<?xml version="1.0" standalone="no"?>
<!DOCTYPE svg PUBLIC "-//W3C//DTD SVG 1.1//EN" "http://www.w3.org/Graphics/SVG/1.1/DTD/svg11.dtd" >
<svg xmlns="http://www.w3.org/2000/svg" xmlns:xlink="http://www.w3.org/1999/xlink" version="1.1">
<metadata></metadata>
<defs>
<font id="lifehackmedium" horiz-adv-x="0" >
<font-face units-per-em="2048" ascent="1495" descent="-553" />
<missing-glyph horiz-adv-x="382" />
<glyph unicode="fi" horiz-adv-x="1146" d="M2 342q0 108 5 216t17 236.5t36 236.5t58 199.5t86.5 144t117.5 52.5q90 0 149 -106q-10 -125 -71 -274t-132 -226q0 -106 -2 -153q136 -119 266 -119q96 0 149 59t69 160q70 12 98 12q147 0 147 -155q0 -90 -6 -282.5t-6 -326.5q-58 -39 -109 -39q-35 0 -58.5 12.5 t-38 33t-22 58t-10 76.5t-2.5 99q0 46 4 146t5 153q-43 -51 -104.5 -80t-129.5 -29q-38 0 -65 11q79 -106 79 -351q0 -107 -18 -212t-51 -192.5t-86 -141.5t-117 -54q-52 0 -94 36t-69.5 101.5t-46.5 144.5t-29.5 178t-14.5 188.5t-4 187.5zM260 258q-2 -317 3.5 -435 t29.5 -118q19 0 46.5 59t51 168t23.5 224q0 259 -152 356q0 -26 -1 -109t-1 -145zM748 1024q0 34 26 56.5t58 31t65 8.5q57 0 87 -34t30 -78q0 -52 -54 -103t-102 -51q-37 0 -63.5 32.5t-36.5 69.5t-10 68z" />
<glyph unicode="fl" horiz-adv-x="1576" d="M2 342q0 108 5 216t17 236.5t36 236.5t58 199.5t86.5 144t117.5 52.5q90 0 149 -106q-10 -125 -71 -274t-132 -226q0 -104 -2 -153q143 -119 279 -119q41 0 73 15.5t51.5 38t36.5 61.5t25 69.5t19 79.5q30 169 97.5 315t156 233t174.5 87q66 0 104.5 -49t38.5 -119 q0 -63 -22 -147t-50 -156t-80.5 -177.5t-84.5 -165t-91 -165.5q11 -129 48 -205t100 -76q45 0 107.5 43.5t121 104.5t117.5 134t96 125.5t57 84.5q32 1 51 -16t19 -46q0 -24 -39.5 -91.5t-109 -153.5t-152.5 -166.5t-183.5 -135.5t-187.5 -55q-95 0 -163.5 69.5t-103 180.5 t-40.5 254q-79 -88 -213 -88q-31 0 -55 8q69 -115 69 -334q0 -107 -18 -212t-51 -192.5t-86 -141.5t-117 -54q-52 0 -94 36t-69.5 101.5t-46.5 144.5t-29.5 178t-14.5 188.5t-4 187.5zM260 258q-2 -317 3.5 -435t29.5 -118q19 0 46.5 59t51 168t23.5 224q0 259 -152 356 q0 -26 -1 -109t-1 -145zM995 725q83 151 138 309.5t55 247.5q0 37 -21 37q-38 0 -75 -96.5t-62 -230t-35 -267.5z" />
<glyph unicode="az" horiz-adv-x="2263" d="M-47 360q0 141 65 269t181.5 208.5t253.5 80.5q109 0 194.5 -67.5t104.5 -141.5q-33 -146 -33 -242q0 -127 67 -127q27 0 71.5 38t93.5 100t97.5 156t77.5 193q-43 34 -43 97q0 74 48 115.5t110 41.5q33 0 60.5 -12.5t27.5 -32.5q0 -47 -31 -100q39 -4 119 -4h107 q107 0 172 -40.5t65 -111.5q0 -57 -56.5 -127.5t-150.5 -126.5q45 -6 99.5 -34.5t101.5 -73.5q152 96 308.5 168.5t238.5 72.5q45 0 59.5 -23t14.5 -61q-213 -47 -543 -262q41 -77 41 -163q0 -121 -59 -244.5t-147.5 -213.5t-194.5 -147t-199 -57q-74 0 -118 41t-44 125 q0 117 124.5 293t330.5 340q-57 101 -267 141q-39 65 21 107q114 76 166.5 136.5t52.5 94.5q0 25 -24 25t-98 -6.5t-115 -6.5q-44 0 -74 6q-52 -167 -132.5 -303t-182.5 -218.5t-203 -82.5q-47 0 -81 27t-47.5 59.5t-19.5 71.5q-42 -115 -144.5 -191.5t-203.5 -76.5 q-114 0 -188 82t-74 208zM215 371q0 -35 11.5 -62.5t33.5 -27.5q54 0 116 87.5t102.5 190t53.5 174.5q-21 58 -67 58q-52 0 -112.5 -76.5t-99 -175.5t-38.5 -168zM1253 -334q0 -39 31 -39q27 0 79 46t105 115t92 165t39 182v6q-152 -129 -248 -261t-98 -214z" />
<glyph unicode="azz" horiz-adv-x="3176" d="M-47 360q0 141 65 269t181.5 208.5t253.5 80.5q109 0 194.5 -67.5t104.5 -141.5q-33 -146 -33 -242q0 -127 67 -127q59 0 169 144t167 333q-59 32 -59 107q0 74 48 115.5t110 41.5q33 0 60.5 -12.5t27.5 -32.5q0 -47 -31 -100q39 -4 119 -4h106q107 0 172.5 -40.5 t65.5 -111.5q0 -57 -56.5 -127.5t-150.5 -126.5q104 -15 197 -102q231 175 346 412q-35 35 -35 88q0 74 48 115.5t110 41.5q33 0 60.5 -12.5t27.5 -32.5q0 -47 -31 -100q39 -4 119 -4h106q107 0 172.5 -40.5t65.5 -111.5q0 -57 -56.5 -127.5t-150.5 -126.5q45 -6 99.5 -34.5 t101.5 -73.5q152 96 308 168.5t238 72.5q45 0 59.5 -23t14.5 -61q-213 -47 -543 -262q41 -77 41 -163q0 -121 -59 -244.5t-147.5 -213.5t-194.5 -147t-199 -57q-74 0 -117.5 41t-43.5 125q0 117 124 293.5t330 339.5q-57 101 -266 141q-39 65 20 107q114 76 167 136.5 t53 94.5q0 25 -25 25q-24 0 -98 -6.5t-115 -6.5q-40 0 -70 6q-64 -139 -149 -243.5t-232 -221.5q40 -79 43 -169q0 -121 -59 -244.5t-147.5 -213.5t-194.5 -147t-199 -57q-74 0 -117.5 41t-43.5 125q0 117 125 293t331 340q-32 55 -97 87.5t-171 53.5q-39 65 20 107 q114 76 167 136.5t53 94.5q0 25 -25 25q-24 0 -98 -6.5t-115 -6.5q-23 0 -55 4q-50 -166 -131 -302t-182.5 -218t-202.5 -82q-47 0 -81 27t-47.5 59.5t-19.5 71.5q-42 -115 -144.5 -191.5t-203.5 -76.5q-114 0 -188 82t-74 208zM215 371q0 -35 11.5 -62.5t33.5 -27.5 q54 0 116 87.5t102.5 190t53.5 174.5q-21 58 -67 58q-52 0 -112.5 -76.5t-99 -175.5t-38.5 -168zM1233 -334q0 -39 31 -39q27 0 79 46t105 115t92 165t39 182v8q-152 -131 -248.5 -263t-97.5 -214zM2212 -334q0 -39 31 -39q27 0 79 46t105 115t92 165t39 182v6 q-152 -129 -248 -261t-98 -214z" />
<glyph unicode="bz" horiz-adv-x="2199" d="M6 496q0 248 45 444q29 129 78.5 227.5t106.5 152.5t113 80.5t108 26.5q68 0 111.5 -40.5t43.5 -120.5q0 -95 -49 -250q-97 -304 -287 -539q16 -161 62.5 -271t110.5 -110q54 0 103.5 54t86.5 137q-92 29 -147.5 98t-55.5 139q0 71 73 136t167 65q81 0 126.5 -71.5 t45.5 -178.5q0 -33 -2 -49q146 73 291 395q-54 31 -54 103q0 74 48 115.5t110 41.5q33 0 60.5 -12.5t27.5 -32.5q0 -47 -31 -100q39 -4 119 -4h107q107 0 172 -40.5t65 -111.5q0 -57 -56.5 -127.5t-150.5 -126.5q45 -6 99.5 -34.5t101.5 -73.5q152 96 308.5 168.5 t238.5 72.5q45 0 59.5 -23t14.5 -61q-213 -47 -543 -262q41 -77 41 -163q0 -121 -59 -244.5t-147.5 -213.5t-194.5 -147t-199 -57q-74 0 -118 41t-44 125q0 117 124.5 293t330.5 340q-57 101 -267 141q-39 65 21 107q114 76 166.5 136.5t52.5 94.5q0 25 -24 25t-98 -6.5 t-115 -6.5q-28 0 -68 4q-61 -172 -176.5 -322.5t-243.5 -183.5q-33 -101 -89 -185t-138.5 -139.5t-173.5 -55.5q-200 0 -304 155.5t-104 444.5zM268 655q84 131 142.5 274t58.5 240q0 50 -33 50q-44 0 -83 -99t-60.5 -226.5t-24.5 -238.5zM575 547q0 -43 26 -78t79 -51 q10 52 10 88q0 52 -15 83.5t-36 31.5q-19 0 -41.5 -23.5t-22.5 -50.5zM1253 -334q0 -39 31 -39q27 0 79 46t105 115t92 165t39 182v6q-152 -129 -248 -261t-98 -214z" />
<glyph unicode="cz" horiz-adv-x="2152" d="M-6 449q0 88 28.5 170.5t81 150.5t136.5 109t186 41q112 0 197.5 -58t85.5 -121q0 -33 -26.5 -57t-88.5 -51q-75 129 -150 129q-57 0 -98.5 -44.5t-60.5 -108.5t-19 -136t20 -131t67.5 -99t115.5 -40q81 0 168.5 54t168 146t149.5 196.5t132 223.5q-49 34 -49 101 q0 74 48 115.5t110 41.5q33 0 60.5 -12.5t27.5 -32.5q0 -47 -31 -100q39 -4 119 -4h107q107 0 172 -40.5t65 -111.5q0 -57 -56.5 -127.5t-150.5 -126.5q45 -6 99.5 -34.5t101.5 -73.5q152 96 308.5 168.5t238.5 72.5q45 0 59.5 -23t14.5 -61q-213 -47 -543 -262 q41 -77 41 -163q0 -121 -59 -244.5t-147.5 -213.5t-194.5 -147t-199 -57q-74 0 -118 41t-44 125q0 117 124.5 293t330.5 340q-57 101 -267 141q-39 65 21 107q114 76 166.5 136.5t52.5 94.5q0 25 -25 25q-24 0 -98 -6.5t-115 -6.5t-75 6q-36 -89 -91.5 -185.5t-134 -196 t-164.5 -178t-190.5 -128t-206.5 -49.5t-180.5 33.5t-125.5 90.5t-71 127.5t-24 150.5zM1208 -334q0 -39 31 -39q27 0 79 46t105 115t92 165t39 182v6q-152 -129 -248 -261t-98 -214z" />
<glyph unicode="dd" horiz-adv-x="2297" d="M-19.5 361.5q-5.5 70.5 1 141t34 134.5t65.5 113.5t96.5 78.5t127.5 29q126 0 227 -96v35q0 153 10.5 265t34.5 197t66.5 128t104.5 43q57 0 129 -72q-113 -315 -113 -645q0 -563 147 -563q81 0 164 167q-17 57 -20 119.5t8 122.5t38 114.5t65.5 95.5t94.5 65t121 24 q127 0 228 -96v35q0 155 9.5 265t32 196.5t64 129t103.5 42.5q57 0 129 -72q-107 -299 -107 -645q0 -237 40.5 -364.5t113.5 -127.5q31 0 65 20.5t61.5 48.5t60.5 76.5t54 83.5t50 92t39.5 80t31.5 68q35 -6 56.5 -27t21.5 -45q0 -29 -26 -93.5t-75 -144t-109.5 -152 t-140.5 -122t-157 -49.5q-175 0 -254 213q-41 -88 -114 -141t-175 -53q-161 0 -251 125q-52 -96 -129 -154.5t-177 -58.5q-170 0 -243 241q-44 -98 -114.5 -160.5t-162.5 -62.5q-72 0 -132 29t-98.5 78.5t-64.5 113.5t-31.5 134.5zM246 457q0 -115 34.5 -199t79.5 -84 q55 0 106 109t64 284q-30 55 -65.5 85t-87.5 30q-58 0 -94.5 -60.5t-36.5 -164.5zM1323 457q0 -109 33 -161t82 -52q57 0 107 85t63 244q-30 59 -65.5 91t-88.5 32q-57 0 -94 -67t-37 -172z" />
<glyph unicode="dz" horiz-adv-x="2344" d="M-17 383.5q-16 83.5 2 167t55 152.5t107 112t158 43q126 0 227 -96v35q0 155 9.5 265t32 196.5t64 129t103.5 42.5q57 0 129 -72q-106 -296 -106 -645q0 -237 40.5 -364.5t113.5 -127.5q44 0 95.5 52.5t101.5 143t93.5 187.5t85.5 209q-65 32 -65 111q0 74 47.5 115.5 t109.5 41.5q33 0 61 -12.5t28 -32.5q0 -47 -31 -100q39 -4 119 -4h106q107 0 172.5 -40.5t65.5 -111.5q0 -57 -56.5 -127.5t-150.5 -126.5q45 -6 99.5 -34.5t101.5 -73.5q152 96 308 168.5t238 72.5q45 0 59.5 -23t14.5 -61q-213 -47 -543 -262q41 -77 41 -163 q0 -121 -59 -244.5t-147.5 -213.5t-194.5 -147t-199 -57q-74 0 -118 41t-44 125q0 117 124.5 293t330.5 340q-57 101 -266 141q-39 65 20 107q114 76 167 136.5t53 94.5q0 25 -25 25q-24 0 -98 -6.5t-115 -6.5q-23 0 -55 4q-38 -119 -78.5 -220t-93 -196.5t-108.5 -162 t-123.5 -106.5t-139.5 -40q-175 0 -254 213q-41 -88 -114 -141t-175 -53q-92 0 -164 43t-108 112t-52 152.5zM246 457q0 -109 32.5 -161t81.5 -52q57 0 107 85t63 244q-30 59 -65.5 91t-87.5 32q-57 0 -94 -67t-37 -172zM1399 -334q0 -39 31 -39q27 0 79 46t105 115t92 165 t39 182v6q-152 -129 -248 -261t-98 -214z" />
<glyph unicode="ez" horiz-adv-x="2162" d="M6 504q0 119 44 226.5t130 178t195 70.5q110 0 168.5 -69t58.5 -189q0 -219 -258 -397q71 -113 193 -113q95 0 203.5 83t203.5 220.5t162 300.5q-59 36 -59 109q0 74 47.5 115.5t109.5 41.5q33 0 60.5 -12.5t27.5 -32.5q0 -49 -30 -100q39 -4 118 -4h107q107 0 172 -40.5 t65 -111.5q0 -57 -56 -127.5t-150 -126.5q45 -6 98.5 -34.5t101.5 -73.5q152 96 308.5 168.5t238.5 72.5q45 0 59.5 -23t14.5 -61q-213 -47 -543 -262q41 -77 41 -163q0 -121 -59 -244.5t-147.5 -213.5t-194.5 -147t-199 -57q-74 0 -118 41t-44 125q0 117 124.5 293 t330.5 340q-57 101 -266 141q-39 65 20 107q114 76 166.5 136.5t52.5 94.5q0 25 -24 25t-98 -6.5t-115 -6.5q-22 0 -54 4q-47 -131 -126 -261.5t-176.5 -240.5t-216.5 -178.5t-232 -68.5q-134 0 -239 65t-160.5 172t-55.5 234zM276 598q0 -72 17 -149q72 68 112.5 135 t40.5 145q0 45 -17.5 65.5t-41.5 20.5q-40 0 -75.5 -59.5t-35.5 -157.5zM1217 -334q0 -39 30 -39q27 0 79 46t105 115t92.5 165t39.5 182v6q-152 -129 -248 -261t-98 -214z" />
<glyph unicode="ezz" horiz-adv-x="3143" d="M6 504q0 119 44 226.5t130 178t195 70.5q110 0 168.5 -69t58.5 -189q0 -219 -258 -397q71 -113 193 -113q142 0 304.5 177t266.5 429q-59 36 -59 107q0 74 47.5 115.5t109.5 41.5q33 0 60.5 -12.5t27.5 -32.5q0 -49 -30 -100q39 -4 118 -4h107q107 0 172 -40.5t65 -111.5 q0 -57 -56 -127.5t-150 -126.5q45 -6 98 -33t98 -69q231 175 346 412q-34 34 -34 88q0 74 47.5 115.5t109.5 41.5q33 0 60.5 -12.5t27.5 -32.5q0 -49 -30 -100q39 -4 118 -4h107q107 0 172 -40.5t65 -111.5q0 -57 -56 -127.5t-150 -126.5q45 -6 98.5 -34.5t101.5 -73.5 q152 96 308.5 168.5t238.5 72.5q45 0 59.5 -23t14.5 -61q-213 -47 -543 -262q41 -77 41 -163q0 -121 -59 -244.5t-147.5 -213.5t-194.5 -147t-199 -57q-74 0 -118 41t-44 125q0 117 124.5 293t330.5 340q-57 101 -266 141q-39 65 20 107q114 76 166.5 136.5t52.5 94.5 q0 25 -24 25t-98 -6.5t-115 -6.5q-40 0 -70 6q-64 -139 -149 -243.5t-232 -221.5q40 -79 43 -169q0 -121 -59 -244.5t-147.5 -213.5t-194.5 -147t-199 -57q-74 0 -118 41t-44 125q0 117 125 293t332 340q-32 55 -97 87.5t-171 53.5q-39 65 20 107q114 76 166.5 136.5 t52.5 94.5q0 25 -24 25t-98 -6.5t-115 -6.5q-24 0 -56 4q-47 -131 -126 -261.5t-176.5 -240.5t-216.5 -178.5t-232 -68.5q-134 0 -239 65t-160.5 172t-55.5 234zM276 598q0 -72 17 -149q72 68 112.5 135t40.5 145q0 45 -17.5 65.5t-41.5 20.5q-40 0 -75.5 -59.5 t-35.5 -157.5zM1219 -334q0 -39 30 -39q27 0 79 46t105 115t92.5 165t39.5 182v8q-152 -131 -248.5 -263t-97.5 -214zM2198 -334q0 -39 30 -39q27 0 79 46t105 115t92.5 165t39.5 182v6q-152 -129 -248 -261t-98 -214z" />
<glyph unicode="fz" horiz-adv-x="1931" d="M2 342q0 108 5 216t17 236.5t36 236.5t58 199.5t86.5 144t117.5 52.5q90 0 149 -106q-10 -125 -71 -274t-132 -226q0 -106 -2 -155q154 -99 301 -99q188 0 310 250q-58 35 -58 107q0 74 48 115.5t110 41.5q33 0 60.5 -12.5t27.5 -32.5q0 -47 -31 -100q39 -4 119 -4h107 q107 0 172 -40.5t65 -111.5q0 -57 -56.5 -127.5t-150.5 -126.5q45 -6 99.5 -34.5t101.5 -73.5q152 96 308.5 168.5t238.5 72.5q31 0 48 -13.5t21 -29.5t4 -41q-212 -46 -542 -262q41 -77 41 -163q0 -121 -59 -244.5t-147.5 -213.5t-194.5 -147t-199 -57q-74 0 -118 41 t-44 125q0 117 124.5 293t330.5 340q-57 101 -267 141q-39 65 21 107q114 76 166.5 136.5t52.5 94.5q0 25 -25 25q-24 0 -98 -6.5t-115 -6.5q-39 0 -69 6q-62 -149 -171 -241t-259 -92q-49 0 -95 14q88 -104 88 -359q0 -107 -18 -212t-51 -192.5t-86 -141.5t-117 -54 q-52 0 -94 36t-69.5 101.5t-46.5 144.5t-29.5 178t-14.5 188.5t-4 187.5zM260 258q-2 -317 3.5 -435t29.5 -118q19 0 46.5 59t51 168t23.5 224q0 259 -152 356q0 -26 -1 -109t-1 -145zM989 -334q0 -39 31 -39q27 0 79 46t105 115t92 165t39 182v6q-152 -129 -248 -261 t-98 -214z" />
<glyph unicode="gz" horiz-adv-x="2064" d="M-25 555q0 119 69.5 230t180 178t226.5 67q58 0 105.5 -20.5t47.5 -59.5q0 -20 -34.5 -44.5t-88.5 -43.5q-21 27 -47 27q-51 0 -96.5 -37.5t-73 -93t-43.5 -114.5t-16 -107q0 -76 35 -76q38 0 76.5 45.5t57 113.5t3.5 125q125 82 164 82q57 0 90.5 -80.5t44.5 -211.5 q107 63 186.5 130.5t136.5 163.5q-41 33 -41 95q0 74 48 115.5t110 41.5q33 0 60.5 -12.5t27.5 -32.5q0 -49 -30 -100q39 -4 118 -4h107q107 0 172 -40.5t65 -111.5q0 -57 -56 -127.5t-150 -126.5q45 -6 98.5 -34.5t101.5 -73.5q152 96 308.5 168.5t238.5 72.5 q45 0 59.5 -23t14.5 -61q-213 -47 -543 -262q41 -77 41 -163q0 -121 -59 -244.5t-147.5 -213.5t-194.5 -147t-199 -57q-74 0 -118 41t-44 125q0 117 124.5 293t330.5 340q-57 101 -266 141q-39 65 20 107q114 76 166.5 136.5t52.5 94.5q0 25 -24 25t-98 -6.5t-115 -6.5 q-42 0 -76 6q-18 -32 -37.5 -61.5t-43.5 -57t-42.5 -48t-49 -46t-46.5 -39t-51.5 -38.5t-47.5 -33t-52 -34.5t-48 -31.5v-51q0 -102 -17 -217t-55.5 -234.5t-92 -215t-134 -156t-174.5 -60.5q-103 0 -153 62.5t-50 165.5q0 170 116 349.5t304 332.5q0 52 -6 92 q-117 -154 -252 -154q-95 0 -145 66.5t-50 179.5zM158 -354q0 -90 43 -90q39 0 75.5 62.5t63.5 163t45.5 198.5t30.5 196q-120 -123 -189 -260t-69 -270zM1128 -334q0 -39 31 -39q27 0 79 46t105 115t92.5 165t39.5 182v6q-152 -129 -249 -261t-98 -214z" />
<glyph unicode="hz" horiz-adv-x="2250" d="M4 276q0 124 16.5 265.5t50.5 284t81 258t114.5 187.5t143.5 72q77 0 120 -70t43 -159q0 -131 -83.5 -263.5t-251.5 -254.5q-9 -132 -9 -246q0 -35 3 -71.5t6 -57.5t7.5 -48t4.5 -28q5 12 21.5 55.5t35.5 92t45.5 108.5t56.5 111.5t63 93.5t71 62t75 10q85 -24 130 -100 q-25 -98 -25 -199q0 -156 80 -156q53 0 122 87t134 219.5t121 291.5q-52 36 -52 103q0 74 48 115.5t110 41.5q33 0 60.5 -12.5t27.5 -32.5q0 -47 -31 -100q39 -4 119 -4h107q107 0 172 -40.5t65 -111.5q0 -57 -56.5 -127.5t-150.5 -126.5q45 -6 99.5 -34.5t101.5 -73.5 q152 96 308.5 168.5t238.5 72.5q45 0 59.5 -23t14.5 -61q-213 -47 -543 -262q41 -77 41 -163q0 -121 -59 -244.5t-147.5 -213.5t-194.5 -147t-199 -57q-74 0 -118 41t-44 125q0 117 124.5 293t330.5 340q-57 101 -266 141q-39 65 20 107q114 76 166.5 136.5t52.5 94.5 q0 25 -24 25t-98 -6.5t-115 -6.5q-24 0 -60 4q-108 -346 -260 -556t-297 -210q-97 0 -154 93.5t-67 226.5q-27 -99 -58.5 -183t-73 -163.5t-93 -125.5t-105.5 -46q-48 0 -82.5 35t-54.5 99t-29.5 144.5t-9.5 179.5zM250 766q68 58 110.5 154t42.5 176q0 69 -26 69 q-84 0 -127 -399zM1298 -334q0 -39 31 -39q27 0 79 46t105 115t92.5 165t39.5 182v6q-152 -129 -249 -261t-98 -214z" />
<glyph unicode="jz" horiz-adv-x="1959" d="M-10 -336q0 164 241 467q-25 395 -178 647q21 24 66 44t84 20q95 0 162 -125t90 -342q30 28 104 94t118 107.5t104.5 112t105.5 142.5q-39 34 -39 93q0 74 48 115.5t110 41.5q33 0 60.5 -12.5t27.5 -32.5q0 -47 -31 -100q39 -4 119 -4h106q107 0 172.5 -40.5t65.5 -111.5 q0 -57 -56.5 -127.5t-150.5 -126.5q45 -6 99.5 -34.5t101.5 -73.5q152 96 308 168.5t238 72.5q45 0 59.5 -23t14.5 -61q-213 -47 -543 -262q41 -77 41 -163q0 -121 -59 -244.5t-147.5 -213.5t-194.5 -147t-199 -57q-74 0 -117.5 41t-43.5 125q0 117 124 293.5t330 339.5 q-57 101 -266 141q-39 65 20 107q114 76 167 136.5t53 94.5q0 25 -25 25q-24 0 -98 -6.5t-115 -6.5q-39 0 -74 6q-49 -87 -121 -172.5t-128 -137.5t-147.5 -131.5t-131.5 -117.5v-59q0 -201 -32 -353t-101 -242.5t-168 -90.5q-79 0 -126.5 53.5t-47.5 130.5zM53 1077 q0 44 33.5 75t78.5 43.5t95 12.5q125 0 125 -94q0 -27 -9.5 -57.5t-28 -61t-52 -50t-76.5 -19.5q-69 0 -117.5 47t-48.5 104zM113 -313q0 -36 11.5 -56t29.5 -20q41 0 62.5 99t21.5 257q-125 -168 -125 -280zM1018 -334q0 -39 31 -39q27 0 79 46t105 115t92 165t39 182v6 q-152 -129 -248 -261t-98 -214z" />
<glyph unicode="kz" horiz-adv-x="2226" d="M-14 1380q106 60 172 60q61 0 88.5 -50t27.5 -153q0 -35 -4 -109.5t-12.5 -209t-13.5 -226.5q66 125 161 213t189 88q79 0 119.5 -47t40.5 -125q0 -73 -53 -164t-158 -188q27 -45 49 -76.5t56 -67.5t74.5 -55.5t84.5 -19.5q51 0 102.5 45t97.5 125t86 179t76 218 q-59 32 -59 107q0 74 48 115.5t110 41.5q33 0 60.5 -12.5t27.5 -32.5q0 -47 -31 -100q39 -4 119 -4h106q107 0 172.5 -40.5t65.5 -111.5q0 -57 -56.5 -127.5t-150.5 -126.5q45 -6 99.5 -34.5t101.5 -73.5q152 96 308.5 168.5t238.5 72.5q31 0 48 -13.5t21 -29.5t4 -41 q-212 -46 -542 -262q41 -77 41 -163q0 -121 -59 -244.5t-147.5 -213.5t-195 -147t-199.5 -57q-74 0 -117.5 41t-43.5 125q0 117 124 293.5t330 339.5q-57 101 -266 141q-39 65 21 107q114 76 166.5 136.5t52.5 94.5q0 25 -25 25q-24 0 -98 -6.5t-115 -6.5q-21 0 -53 4 q-28 -113 -57.5 -205t-74 -192.5t-94 -168.5t-117.5 -112.5t-145 -44.5q-210 0 -405 287q-57 -39 -154 -92v-70q0 -49 -9 -91.5t-37.5 -77.5t-73.5 -35q-58 0 -113 38q39 148 39 584q0 165 -1.5 264.5t-13 255.5t-34.5 258zM233 420q49 34 95 73t92.5 87t75 99t28.5 95 q0 11 -5.5 20t-14.5 9q-46 0 -132.5 -129t-138.5 -252v-2zM1280 -334q0 -39 31 -39q27 0 79 46t105 115t92 165t39 182v6q-152 -129 -248 -261t-98 -214z" />
<glyph unicode="lz" horiz-adv-x="2000" d="M2 588q0 208 67 409.5t172 326t210 124.5q66 0 104.5 -49t38.5 -119q0 -63 -22 -147t-50 -156t-80.5 -177.5t-84.5 -165t-91 -165.5q11 -130 50.5 -205.5t109.5 -75.5q107 0 253 180.5t259 456.5q-47 35 -47 99q0 74 48 115.5t110 41.5q33 0 60.5 -12.5t27.5 -32.5 q0 -47 -31 -100q39 -4 119 -4h106q107 0 172.5 -40.5t65.5 -111.5q0 -57 -56.5 -127.5t-150.5 -126.5q45 -6 99.5 -34.5t101.5 -73.5q152 96 308 168.5t238 72.5q45 0 59.5 -23t14.5 -61q-213 -47 -543 -262q41 -77 41 -163q0 -121 -59 -244.5t-147.5 -213.5t-194.5 -147 t-199 -57q-74 0 -117.5 41t-43.5 125q0 117 124 293.5t330 339.5q-57 101 -266 141q-39 65 20 107q114 76 167 136.5t53 94.5q0 25 -25 25q-24 0 -98 -6.5t-115 -6.5q-28 0 -68 4q-49 -124 -105.5 -234.5t-125 -209t-140.5 -169.5t-154.5 -112t-164.5 -41q-92 0 -161.5 46 t-109.5 126.5t-59.5 180.5t-19.5 219zM268 725q83 151 138 309.5t55 247.5q0 37 -21 37q-38 0 -75 -96.5t-62 -230t-35 -267.5zM1061 -334q0 -39 31 -39q27 0 79 46t105 115t92 165t39 182v6q-152 -129 -248 -261t-98 -214z" />
<glyph unicode="mz" horiz-adv-x="2871" d="M-20 166q4 49 15.5 150t15.5 158t6.5 137t-7 146.5t-30.5 127.5q58 55 133 55q153 0 153 -307q0 -106 -16 -207q88 196 115 247q92 171 196 213q41 17 86 17q86 0 132 -67t46 -177q0 -46 -2 -71q64 147 136 222t182 75q76 0 121 -50t45 -135q0 -48 -8.5 -156t-8.5 -155 q0 -79 23 -118.5t76 -39.5q64 0 141 83.5t147 216.5t129 296q-43 34 -43 97q0 74 48 115.5t110 41.5q33 0 60.5 -12.5t27.5 -32.5q0 -47 -31 -100q39 -4 119 -4h107q107 0 172 -40.5t65 -111.5q0 -57 -56.5 -127.5t-150.5 -126.5q45 -6 99.5 -34.5t101.5 -73.5 q152 96 308.5 168.5t238.5 72.5q45 0 59.5 -23t14.5 -61q-213 -47 -543 -262q41 -77 41 -163q0 -121 -59 -244.5t-147.5 -213.5t-194.5 -147t-199 -57q-74 0 -118 41t-44 125q0 117 124.5 293t330.5 340q-57 101 -267 141q-39 65 21 107q114 76 166.5 136.5t52.5 94.5 q0 25 -25 25q-24 0 -98 -6.5t-115 -6.5q-27 0 -63 4q-28 -83 -60.5 -160t-76 -159t-95 -148.5t-110.5 -120.5t-130 -84t-147 -30q-45 0 -88 14.5t-80.5 44.5t-60 82t-22.5 119q0 71 12 176t12 141q0 23 -12 23q-9 0 -18 -6.5t-18.5 -21t-17.5 -29.5t-19 -41t-18.5 -45 t-20.5 -52t-21 -53q-24 -63 -44.5 -107.5t-48.5 -91t-59 -70.5t-65 -24q-81 0 -133 80q1 3 6.5 35t10 62.5t10 74.5t8.5 93t3 96q0 135 -20 135q-19 0 -52 -63.5t-75 -153.5t-91.5 -180.5t-115 -154t-131.5 -63.5q-88 0 -151 66zM1933 -334q0 -39 31 -39q27 0 79 46t105 115 t92 165t39 182v6q-152 -129 -248 -261t-98 -214z" />
<glyph unicode="nz" horiz-adv-x="2480" d="M23 922q72 65 155 65q54 0 88.5 -35.5t34.5 -107.5q0 -18 -6 -133t-6 -183q58 102 110 175.5t88.5 111.5t73 59.5t58.5 26t49 4.5q55 0 95 -16.5t62.5 -41.5t35 -66t16.5 -79t4 -90q0 -59 -3.5 -151t-3.5 -125q0 -156 76 -156q20 0 46.5 10t76.5 50t101.5 105 t120.5 189.5t135 288.5q-52 34 -52 101q0 74 48 115.5t110 41.5q33 0 60.5 -12.5t27.5 -32.5q0 -47 -31 -100q39 -4 119 -4h107q107 0 172 -40.5t65 -111.5q0 -57 -56.5 -127.5t-150.5 -126.5q45 -6 99.5 -34.5t101.5 -73.5q152 96 308.5 168.5t238.5 72.5q45 0 59.5 -23 t14.5 -61q-213 -47 -543 -262q41 -77 41 -163q0 -121 -59 -244.5t-147.5 -213.5t-194.5 -147t-199 -57q-74 0 -118 41t-44 125q0 117 124.5 293t330.5 340q-57 101 -267 141q-39 65 21 107q114 76 166.5 136.5t52.5 94.5q0 25 -25 25q-24 0 -98 -6.5t-115 -6.5q-27 0 -63 4 q-53 -162 -125 -302.5t-158.5 -250.5t-189.5 -173.5t-207 -63.5q-109 0 -182.5 91.5t-73.5 266.5q0 78 10 219.5t10 157.5q0 43 -16 43q-12 0 -31 -12t-53 -53t-70 -105.5t-80.5 -185t-84.5 -275.5q-37 -18 -82 -18q-46 0 -79 15.5t-51.5 38t-28.5 60.5t-12.5 72t-2.5 82 q0 81 8 202t8 167q0 88 -20 164zM1548 -334q0 -39 31 -39q27 0 79 46t105 115t92 165t39 182v6q-152 -129 -248 -261t-98 -214z" />
<glyph unicode="oz" horiz-adv-x="2238" d="M-23 465q0 114 55 195t152 81q11 109 84.5 166.5t177.5 57.5q99 0 170 -52.5t104 -133.5t36 -181q59 -43 125 -43q163 0 293 266q-54 35 -54 103q0 74 48 115.5t110 41.5q33 0 60.5 -12.5t27.5 -32.5q0 -47 -31 -100q39 -4 119 -4h107q107 0 172 -40.5t65 -111.5 q0 -57 -56.5 -127.5t-150.5 -126.5q45 -6 99.5 -34.5t101.5 -73.5q152 96 308.5 168.5t238.5 72.5q45 0 59.5 -23t14.5 -61q-213 -47 -543 -262q41 -77 41 -163q0 -121 -59 -244.5t-147.5 -213.5t-194.5 -147t-199 -57q-74 0 -118 41t-44 125q0 117 124.5 293t330.5 340 q-57 101 -267 141q-39 65 21 107q114 76 166.5 136.5t52.5 94.5q0 25 -25 25q-24 0 -98 -6.5t-115 -6.5q-27 0 -67 4q-67 -158 -174.5 -258t-235.5 -100q-63 0 -121 25q-15 -74 -47 -138.5t-79.5 -117.5t-117 -85t-151.5 -34q-92 -2 -165.5 33.5t-116.5 94.5t-65 126.5 t-22 136.5zM233 346q0 -66 35.5 -115t85.5 -49q39 0 69 32t47 83t25.5 106.5t8.5 110.5q0 75 -14.5 138t-50 107t-87.5 44q-70 0 -110 -72q82 -32 82 -151q0 -32 -11 -82q-38 -14 -59 -58.5t-21 -93.5zM1290 -334q0 -39 31 -39q27 0 79 46t105 115t92 165t39 182v6 q-152 -129 -248 -261t-98 -214z" />
<glyph unicode="ozz" horiz-adv-x="3215" d="M-23 465q0 114 55 195t152 81q11 109 84.5 166.5t177.5 57.5q99 0 170 -52.5t104 -133.5t36 -181q59 -43 125 -43q160 0 288 260q-61 35 -61 109t48 115.5t110 41.5q33 0 60.5 -12.5t27.5 -32.5q0 -47 -31 -100q39 -4 119 -4h106q107 0 172.5 -40.5t65.5 -111.5 q0 -57 -56.5 -127.5t-150.5 -126.5q104 -15 197 -102q231 175 346 412q-35 35 -35 88q0 74 48 115.5t110 41.5q33 0 60.5 -12.5t27.5 -32.5q0 -47 -31 -100q39 -4 119 -4h106q107 0 172.5 -40.5t65.5 -111.5q0 -57 -56.5 -127.5t-150.5 -126.5q45 -6 99.5 -34.5t101.5 -73.5 q152 96 308 168.5t238 72.5q45 0 59.5 -23t14.5 -61q-213 -47 -543 -262q41 -77 41 -163q0 -121 -59 -244.5t-147.5 -213.5t-194.5 -147t-199 -57q-74 0 -117.5 41t-43.5 125q0 117 124 293.5t330 339.5q-57 101 -266 141q-39 65 20 107q114 76 167 136.5t53 94.5 q0 25 -25 25q-24 0 -98 -6.5t-115 -6.5q-40 0 -70 6q-64 -139 -149 -243.5t-232 -221.5q40 -79 43 -169q0 -121 -59 -244.5t-147.5 -213.5t-194.5 -147t-199 -57q-74 0 -117.5 41t-43.5 125q0 117 125 293t331 340q-32 55 -97 87.5t-171 53.5q-39 65 21 107 q114 76 166.5 136.5t52.5 94.5q0 25 -25 25q-24 0 -98 -6.5t-115 -6.5q-21 0 -57 4q-65 -157 -173 -257.5t-235 -100.5q-63 0 -121 25q-15 -74 -47 -138.5t-79.5 -117.5t-117 -85t-151.5 -34q-92 -2 -165.5 33.5t-116.5 94.5t-65 126.5t-22 136.5zM233 346q0 -66 35.5 -115 t85.5 -49q39 0 69 32t47 83t25.5 106.5t8.5 110.5q0 75 -14.5 138t-50 107t-87.5 44q-70 0 -110 -72q82 -32 82 -151q0 -32 -11 -82q-38 -14 -59 -58.5t-21 -93.5zM1278 -334q0 -39 31 -39q27 0 79 46t105 115t92 165t39 182v8q-152 -131 -248.5 -263t-97.5 -214zM2257 -334 q0 -39 31 -39q27 0 79 46t105 115t92 165t39 182v6q-152 -129 -248 -261t-98 -214z" />
<glyph unicode="pz" horiz-adv-x="2166" d="M-12 1014q78 69 145 69q52 0 82.5 -43.5t30.5 -128.5q0 -89 -15 -129q233 197 361 197q87 0 141 -45q64 -50 64 -150q0 -42 -13 -96q203 72 293 162q-22 28 -22 74q0 74 47.5 115.5t109.5 41.5q33 0 60.5 -12.5t27.5 -32.5q0 -49 -30 -100q39 -4 119 -4h106 q107 0 172.5 -40.5t65.5 -111.5q0 -57 -56.5 -127.5t-150.5 -126.5q45 -6 98.5 -34.5t101.5 -73.5q152 96 308.5 168.5t238.5 72.5q45 0 59.5 -23t14.5 -61q-213 -47 -543 -262q41 -77 41 -163q0 -121 -59 -244.5t-147.5 -213.5t-194.5 -147t-199 -57q-74 0 -118 41t-44 125 q0 117 124.5 293t330.5 340q-57 101 -266 141q-39 65 20 107q114 76 166.5 136.5t52.5 94.5q0 25 -24 25t-98 -6.5t-115 -6.5q-58 0 -105 13q-138 -142 -434 -226q-66 -126 -172.5 -219.5t-177.5 -93.5q-38 0 -58 23.5t-20 60.5q0 190 281 293q18 63 18 98q0 66 -63 66 q-34 0 -70 -21t-75 -76t-69.5 -137.5t-50.5 -219t-20 -306.5q0 -220 39 -504q-83 -18 -137 -18q-101 0 -135.5 78.5t-24.5 289.5q27 509 27 750v46.5v45.5t-0.5 38.5t-1.5 41.5t-3 36.5t-5 42t-7 39t-9.5 47t-12.5 48.5zM399 356q0 -14 9 -14q11 0 46.5 46.5t71.5 109.5 q-127 -62 -127 -142zM1225 -334q0 -39 30 -39q27 0 79 46t105 115t92.5 165t39.5 182v6q-152 -129 -248 -261t-98 -214z" />
<glyph unicode="qz" horiz-adv-x="2260" d="M-33 418q1 153 92 285.5t236.5 208t306.5 75.5q61 0 93 -27.5t32 -66.5q0 -52 -49 -82q-33 23 -80 23q-81 0 -177 -61t-163.5 -156.5t-67.5 -184.5q0 -61 48 -61q58 0 136 77.5t118 194.5q45 51 126 51q50 0 84.5 -27t34.5 -81q0 -27 -18.5 -84t-42 -121.5t-47 -173.5 t-31.5 -225q-5 -107 4 -236q64 194 174 422t207 393t188 297q-18 24 -18 66q0 74 48 115.5t110 41.5q33 0 60.5 -12.5t27.5 -32.5q0 -47 -31 -100q39 -4 119 -4h106q107 0 172.5 -40.5t65.5 -111.5q0 -57 -56.5 -127.5t-150.5 -126.5q45 -6 99.5 -34.5t101.5 -73.5 q152 96 308.5 168.5t238.5 72.5q31 0 48 -13.5t21 -29.5t4 -41q-212 -46 -542 -262q41 -77 41 -163q0 -121 -59 -244.5t-147.5 -213.5t-195 -147t-199.5 -57q-74 0 -117.5 41t-43.5 125q0 117 124 293.5t330 339.5q-57 101 -266 141q-39 65 21 107q114 76 166.5 136.5 t52.5 94.5q0 25 -25 25q-24 0 -98 -6.5t-115 -6.5q-57 0 -104 13q-72 -110 -142.5 -233.5t-152 -285t-153.5 -351.5t-120 -376q-30 -25 -76.5 -40t-88.5 -15q-31 0 -55.5 15t-40.5 37.5t-27.5 61t-17 71.5t-9 84t-4 84.5t-0.5 84.5q0 252 31 410q-65 -70 -136.5 -104.5 t-132.5 -34.5q-81 0 -128.5 63t-47.5 156zM1323 -334q0 -39 31 -39q27 0 79 46t105 115t92 165t39 182v6q-152 -129 -248 -261t-98 -214z" />
<glyph unicode="rz" horiz-adv-x="2115" d="M-72 829q0 47 17 87.5t43.5 67t58.5 45.5t61 27.5t52 8.5q52 0 82 -26.5t30 -75.5q0 -69 -59 -187q38 -8 103.5 -17t114 -16.5t98 -20t76 -35t26.5 -54.5q0 -37 -28.5 -96.5t-62.5 -113.5t-62.5 -121t-28.5 -116q0 -45 25 -70.5t67 -25.5q59 0 129.5 64.5t139.5 175 t130.5 233.5t120.5 264q-43 34 -43 97q0 74 48 115.5t110 41.5q33 0 60.5 -12.5t27.5 -32.5q0 -47 -31 -100q39 -4 119 -4h106q107 0 172.5 -40.5t65.5 -111.5q0 -57 -56.5 -127.5t-150.5 -126.5q45 -6 99.5 -34.5t101.5 -73.5q152 96 308 168.5t238 72.5q45 0 59.5 -23 t14.5 -61q-213 -47 -543 -262q41 -77 41 -163q0 -121 -59 -244.5t-147.5 -213.5t-194.5 -147t-199 -57q-74 0 -117.5 41t-43.5 125q0 117 124 293.5t330 339.5q-57 101 -266 141q-39 65 20 107q114 76 167 136.5t53 94.5q0 25 -25 25q-24 0 -98 -6.5t-115 -6.5q-26 0 -66 4 q-45 -107 -82 -189.5t-84.5 -174t-91.5 -159t-97.5 -131t-107.5 -103.5t-118 -64t-131 -24q-133 0 -212 77t-79 181q0 60 18 120.5t35 92t52 86t40 63.5q-385 50 -385 272zM90 868q0 -30 19 -49q41 90 41 137q0 27 -9 27q-13 0 -32 -39.5t-19 -75.5zM1188 -334q0 -39 31 -39 q27 0 79 46t105 115t92 165t39 182v6q-152 -129 -248 -261t-98 -214z" />
<glyph unicode="sz" horiz-adv-x="1953" d="M-4 141q0 58 51.5 126t138.5 134q-38 34 -58 54t-47.5 55.5t-40.5 75t-13 84.5q0 82 49 142.5t127 86.5q105 29 177.5 19.5t102.5 -44.5q0 -64 -56.5 -106t-164.5 -35q-28 -56 133 -164l31 -22q309 173 438 309q-18 27 -18 68q0 74 48 115.5t110 41.5q33 0 60.5 -12.5 t27.5 -32.5q0 -47 -31 -100q39 -4 119 -4h106q107 0 172.5 -40.5t65.5 -111.5q0 -57 -56.5 -127.5t-150.5 -126.5q45 -6 99.5 -34.5t101.5 -73.5q152 96 308 168.5t238 72.5q45 0 59.5 -23t14.5 -61q-213 -47 -543 -262q41 -77 41 -163q0 -121 -59 -244.5t-147.5 -213.5 t-194.5 -147t-199 -57q-74 0 -118 41t-44 125q0 117 124.5 293t330.5 340q-57 101 -266 141q-39 65 20 107q114 76 167 136.5t53 94.5q0 25 -25 25q-24 0 -98 -6.5t-115 -6.5q-63 0 -107 15q-142 -152 -446 -326q66 -81 66 -172q0 -121 -113.5 -205.5t-288.5 -77.5 q-86 3 -133 37.5t-47 91.5zM109 141q0 -16 30 -16q51 0 99.5 36.5t48.5 90.5q0 34 -23 67q-155 -112 -155 -178zM1016 -334q0 -39 31 -39q27 0 79 46t105 115t92 165t39 182v6q-152 -129 -248 -261t-98 -214z" />
<glyph unicode="tz" horiz-adv-x="2033" d="M-104 948q0 38 18 88q75 -18 201 -24q53 281 53 432q74 0 114 -5t73.5 -24t46 -57t12.5 -103q0 -75 -39 -251h303q-3 -21 -21 -72q-9 -27 -27 -39.5t-84 -21.5t-200 -11q-53 -285 -53 -477q0 -126 41.5 -182t101.5 -56q69 0 136 42.5t118.5 105.5t105 159.5t90 180.5 t77.5 192q-48 36 -48 99q0 74 48 115.5t110 41.5q33 0 60.5 -12.5t27.5 -32.5q0 -47 -31 -100q39 -4 119 -4h107q107 0 172 -40.5t65 -111.5q0 -57 -56.5 -127.5t-150.5 -126.5q45 -6 99.5 -34.5t101.5 -73.5q152 96 308.5 168.5t238.5 72.5q45 0 59.5 -23t14.5 -61 q-213 -47 -543 -262q41 -77 41 -163q0 -121 -59 -244.5t-147.5 -213.5t-194.5 -147t-199 -57q-74 0 -118 41t-44 125q0 117 124.5 293t330.5 340q-57 101 -266 141q-39 65 20 107q114 76 166.5 136.5t52.5 94.5q0 25 -24 25t-98 -6.5t-115 -6.5q-24 0 -60 4 q-26 -74 -48.5 -131t-62 -144t-77.5 -152t-92.5 -137.5t-110.5 -119t-128 -77.5t-148 -31q-78 -1 -140.5 25.5t-102.5 71.5t-66 107.5t-37 130.5t-11 144q0 174 39 393h-113q-40 0 -60.5 23t-20.5 63zM1085 -334q0 -39 31 -39q27 0 79 46t105 115t92.5 165t39.5 182v6 q-152 -129 -249 -261t-98 -214z" />
<glyph unicode="uz" horiz-adv-x="2295" d="M-6 893q102 16 137 16q74 0 101.5 -36.5t27.5 -114.5q0 -27 -9 -152t-9 -186q0 -57 12.5 -87t46.5 -30q17 0 40.5 12t70 58.5t94.5 122.5q14 196 14 241q0 96 -14 156q10 1 27.5 2.5t32 2.5t26.5 1q82 0 123 -47t41 -170q0 -20 -11.5 -126.5t-11.5 -160.5q0 -147 68 -147 q66 0 183 169t228 421q-32 36 -32 86q0 74 47.5 115.5t109.5 41.5q33 0 60.5 -12.5t27.5 -32.5q0 -49 -30 -100q39 -4 118 -4h107q107 0 172.5 -40.5t65.5 -111.5q0 -57 -56.5 -127.5t-150.5 -126.5q45 -6 98.5 -34.5t101.5 -73.5q152 96 308.5 168.5t238.5 72.5 q45 0 59.5 -23t14.5 -61q-213 -47 -543 -262q41 -77 41 -163q0 -121 -59 -244.5t-147.5 -213.5t-194.5 -147t-199 -57q-74 0 -118 41t-44 125q0 117 124.5 293t330.5 340q-57 101 -266 141q-39 65 20 107q114 76 166.5 136.5t52.5 94.5q0 25 -24 25t-98 -6.5t-115 -6.5 q-43 0 -78 6q-47 -104 -95.5 -196t-108 -182.5t-117 -155t-122 -104.5t-124.5 -40q-102 0 -163 59.5t-79 158.5q-69 -95 -153 -157.5t-175 -62.5q-188 0 -188 248q0 25 7 144.5t7 199.5q0 116 -16 197zM1350 -334q0 -39 30 -39q27 0 79 46t105 115t92.5 165t39.5 182v6 q-152 -129 -248 -261t-98 -214z" />
<glyph unicode="uzz" horiz-adv-x="3266" d="M-6 893q102 16 137 16q74 0 101.5 -36.5t27.5 -114.5q0 -27 -9 -152t-9 -186q0 -57 12.5 -87t46.5 -30q17 0 40.5 12t70 58.5t94.5 122.5q14 196 14 241q0 96 -14 156q10 1 27.5 2.5t32 2.5t26.5 1q82 0 123 -47t41 -170q0 -20 -11.5 -126.5t-11.5 -160.5q0 -147 68 -147 q64 0 181.5 166.5t227.5 414.5q-43 34 -43 95q0 74 48 115.5t110 41.5q33 0 60.5 -12.5t27.5 -32.5q0 -47 -31 -100q39 -4 119 -4h107q107 0 172 -40.5t65 -111.5q0 -57 -56.5 -127.5t-150.5 -126.5q104 -15 197 -102q231 175 346 412q-35 35 -35 88q0 74 48 115.5t110 41.5 q33 0 60.5 -12.5t27.5 -32.5q0 -47 -31 -100q39 -4 119 -4h107q107 0 172 -40.5t65 -111.5q0 -57 -56.5 -127.5t-150.5 -126.5q45 -6 99.5 -34.5t101.5 -73.5q152 96 308.5 168.5t238.5 72.5q45 0 59.5 -23t14.5 -61q-213 -47 -543 -262q41 -77 41 -163q0 -121 -59 -244.5 t-147.5 -213.5t-194.5 -147t-199 -57q-74 0 -118 41t-44 125q0 117 124.5 293t330.5 340q-57 101 -267 141q-39 65 21 107q114 76 166.5 136.5t52.5 94.5q0 25 -25 25q-24 0 -98 -6.5t-115 -6.5q-39 0 -69 6q-64 -139 -149 -243.5t-232 -221.5q40 -79 43 -169 q0 -121 -59 -244.5t-147.5 -213.5t-194.5 -147t-199 -57q-74 0 -118 41t-44 125q0 117 125 293t332 340q-32 54 -97.5 86.5t-171.5 54.5q-39 65 21 107q114 76 166.5 136.5t52.5 94.5q0 25 -25 25q-24 0 -98 -6.5t-115 -6.5q-25 0 -65 4q-48 -105 -96.5 -196t-108 -182 t-117 -155t-121.5 -103.5t-124 -39.5q-102 0 -163 59.5t-79 158.5q-69 -95 -153 -157.5t-175 -62.5q-188 0 -188 248q0 25 7 144.5t7 199.5q0 116 -16 197zM1337 -334q0 -39 31 -39q27 0 79 46t105 115t92 165t39 182v8q-152 -131 -248.5 -263t-97.5 -214zM2316 -334 q0 -39 31 -39q27 0 79 46t105 115t92 165t39 182v6q-152 -129 -248 -261t-98 -214z" />
<glyph unicode="vz" horiz-adv-x="2248" d="M-16 791q86 100 209 100q88 0 130 -55.5t42 -190.5q0 -37 -5.5 -125t-5.5 -135q0 -66 9.5 -99.5t35.5 -33.5q51 0 93 119.5t69 292.5q-37 66 -37 153q0 65 18.5 104t43.5 54q1 1 10 6t13 7t12.5 5.5t17 4.5t18.5 1q59 0 97.5 -49t38.5 -145q0 -68 -23 -156 q51 -23 121 -20q166 10 285 205q-37 32 -37 90q0 74 47.5 115.5t109.5 41.5q33 0 60.5 -12.5t27.5 -32.5q0 -49 -30 -100q39 -4 119 -4h106q107 0 172.5 -40.5t65.5 -111.5q0 -57 -56.5 -127.5t-150.5 -126.5q45 -6 98.5 -34.5t101.5 -73.5q152 96 308.5 168.5t238.5 72.5 q45 0 59.5 -23t14.5 -61q-213 -47 -543 -262q41 -77 41 -163q0 -121 -59 -244.5t-147.5 -213.5t-194.5 -147t-199 -57q-74 0 -118 41t-44 125q0 117 124.5 293t330.5 340q-57 101 -266 141q-39 65 20 107q114 76 166.5 136.5t52.5 94.5q0 25 -24 25t-98 -6.5t-115 -6.5 q-46 0 -80 6q-152 -272 -416 -272q-68 0 -129 18q-75 -215 -188 -349t-211 -134q-35 0 -63.5 19t-51.5 57.5t-41.5 86.5t-39.5 117t-41 136.5t-50.5 158t-62.5 169.5zM1309 -334q0 -39 30 -39q27 0 79 46t105 115t92.5 165t39.5 182v6q-152 -129 -248 -261t-98 -214z" />
<glyph unicode="wi" horiz-adv-x="1888" d="M25 532q0 97 7.5 167.5t28 134.5t62 97.5t102.5 33.5q54 0 133 -31q-61 -153 -61 -350q0 -379 100 -379q51 0 80 69.5t29 165.5q0 92 -12 178q45 31 96 31q31 0 52.5 -9.5t34.5 -25t20.5 -45t11 -59t6.5 -78.5q8 -126 24 -178.5t56 -52.5q47 0 80 48t46 111t13 129 q0 32 -2 62.5t-6 56.5t-8 48t-11 43t-11.5 35.5t-12.5 31.5t-11.5 24.5t-11 22t-8.5 16.5q51 54 127 54q100 0 145 -101q44 -83 93 -115t106 -32q40 0 73 19.5t49 43t28.5 46t15.5 24.5q70 12 98 12q148 0 148 -155q0 -90 -6.5 -282.5t-6.5 -326.5q-58 -39 -108 -39 q-35 0 -58.5 12.5t-38 33t-22 58t-10 76.5t-2.5 99q0 44 4 161t4 193q-77 -73 -174 -73q-102 0 -160 47q-2 -87 -25.5 -173.5t-66.5 -160.5t-113.5 -120t-156.5 -46q-149 0 -224 164q-53 -104 -125.5 -151.5t-144.5 -47.5q-91 0 -154.5 67t-92.5 173.5t-29 242.5zM1049 731z M1487 1024q0 34 26 56.5t58 31t65 8.5q57 0 87 -34t30 -78q0 -52 -54 -103t-102 -51q-37 0 -63.5 32.5t-36.5 69.5t-10 68z" />
<glyph unicode="wz" horiz-adv-x="2572" d="M25 532q0 97 7.5 167.5t28 134.5t62 97.5t102.5 33.5q54 0 133 -31q-61 -153 -61 -350q0 -379 100 -379q51 0 80 69.5t29 165.5q0 92 -12 178q45 31 96 31q31 0 52.5 -9.5t34.5 -25t20.5 -45t11 -59t6.5 -78.5q8 -126 24 -178.5t56 -52.5q47 0 80 48t46 111t13 129 q0 32 -2 62.5t-6 56.5t-8 48t-11 43t-11.5 35.5t-12.5 31.5t-11.5 24.5t-11 22t-8.5 16.5q51 54 127 54q110 0 154 -121q79 -62 151 -62q58 0 105 28.5t104 113.5q-29 36 -29 82q0 74 48 115.5t110 41.5q33 0 60.5 -12.5t27.5 -32.5q0 -47 -31 -100q39 -4 119 -4h107 q107 0 172 -40.5t65 -111.5q0 -57 -56.5 -127.5t-150.5 -126.5q45 -6 99.5 -34.5t101.5 -73.5q152 96 308.5 168.5t238.5 72.5q45 0 59.5 -23t14.5 -61q-213 -47 -543 -262q41 -77 41 -163q0 -121 -59 -244.5t-147.5 -213.5t-194.5 -147t-199 -57q-74 0 -118 41t-44 125 q0 117 124.5 293t330.5 340q-57 101 -267 141q-39 65 21 107q114 76 166.5 136.5t52.5 94.5q0 25 -25 25q-24 0 -98 -6.5t-115 -6.5q-51 0 -84 8q-142 -213 -309 -213q-73 0 -133 31v-10q0 -88 -23 -176t-66 -163.5t-114.5 -123t-158.5 -47.5q-149 0 -224 164 q-53 -104 -125.5 -151.5t-144.5 -47.5q-91 0 -154.5 67t-92.5 173.5t-29 242.5zM1634 -334q0 -39 31 -39q27 0 79 46t105 115t92 165t39 182v6q-152 -129 -248 -261t-98 -214z" />
<glyph unicode="yz" horiz-adv-x="2078" d="M-4 932q33 29 110 29q57 0 96.5 -26t39.5 -83q0 -13 -8.5 -88t-8.5 -129q0 -141 62 -141t100 117t37 317q24 20 63.5 29.5t73.5 9.5q36 0 61 -13.5t39 -33.5t21.5 -57t9.5 -72t2 -89q0 -59 -4 -161q194 150 303 307q-24 31 -24 76q0 74 47.5 115.5t109.5 41.5 q33 0 60.5 -12.5t27.5 -32.5q0 -49 -30 -100q39 -4 119 -4h106q107 0 172.5 -40.5t65.5 -111.5q0 -57 -56.5 -127.5t-150.5 -126.5q45 -6 98.5 -34.5t101.5 -73.5q152 96 308.5 168.5t238.5 72.5q45 0 59.5 -23t14.5 -61q-213 -47 -543 -262q41 -77 41 -163 q0 -121 -59 -244.5t-147.5 -213.5t-194.5 -147t-199 -57q-74 0 -118 41t-44 125q0 117 124.5 293t330.5 340q-57 101 -266 141q-39 65 20 107q114 76 166.5 136.5t52.5 94.5q0 25 -24 25t-98 -6.5t-115 -6.5q-49 0 -94 10q-74 -113 -168 -202t-246 -203q-15 -146 -44 -273.5 t-65 -219t-79 -166.5t-85.5 -123t-85.5 -80.5t-78 -46t-63 -13.5q-69 0 -116.5 61.5t-47.5 172.5q0 331 420 661q8 65 8 136v4q-57 -89 -121.5 -131.5t-125.5 -42.5q-65 0 -111 50t-66 123.5t-20 159.5q0 29 2 81t2 77q0 62 -8 119zM125 -332q0 -71 45 -71q31 0 65.5 50 t66 132.5t59 182.5t47.5 206q-283 -266 -283 -500zM1139 -334q0 -39 30 -39q27 0 79 46t105 115t92.5 165t39.5 182v6q-152 -129 -248 -261t-98 -214z" />
<glyph unicode="zz" horiz-adv-x="2103" d="M16 924q0 74 48 115.5t110 41.5q33 0 60.5 -12.5t27.5 -32.5q0 -47 -31 -100q39 -4 119 -4h107q107 0 172 -40.5t65 -111.5q0 -57 -56.5 -127.5t-150.5 -126.5q104 -15 197 -102q231 175 346 412q-35 35 -35 88q0 74 48 115.5t110 41.5q33 0 60.5 -12.5t27.5 -32.5 q0 -47 -31 -100q39 -4 119 -4h107q107 0 172 -40.5t65 -111.5q0 -57 -56.5 -127.5t-150.5 -126.5q45 -6 99.5 -34.5t101.5 -73.5q152 96 308.5 168.5t238.5 72.5q45 0 59.5 -23t14.5 -61q-213 -47 -543 -262q41 -77 41 -163q0 -121 -59 -244.5t-147.5 -213.5t-194.5 -147 t-199 -57q-74 0 -118 41t-44 125q0 117 124.5 293t330.5 340q-57 101 -267 141q-39 65 21 107q114 76 166.5 136.5t52.5 94.5q0 25 -25 25q-24 0 -98 -6.5t-115 -6.5q-39 0 -69 6q-64 -139 -149 -243.5t-232 -221.5q40 -79 43 -169q0 -121 -59 -244.5t-147.5 -213.5 t-194.5 -147t-199 -57q-74 0 -118 41t-44 125q0 117 125 293t332 340q-32 54 -97.5 86.5t-171.5 54.5q-39 65 21 107q114 76 166.5 136.5t52.5 94.5q0 25 -24 25t-98 -6.5t-115 -6.5q-102 3 -142 29q-78 34 -78 117zM186 -334q0 -39 31 -39q27 0 79 46t105 115t92 165 t39 182v8q-152 -131 -248.5 -263t-97.5 -214zM1165 -334q0 -39 31 -39q27 0 79 46t105 115t92 165t39 182v6q-152 -129 -248 -261t-98 -214z" />
<glyph unicode="&#x430;&#x437;" horiz-adv-x="2263" d="M-47 360q0 141 65 269t181.5 208.5t253.5 80.5q109 0 194.5 -67.5t104.5 -141.5q-33 -146 -33 -242q0 -127 67 -127q27 0 71.5 38t93.5 100t97.5 156t77.5 193q-43 34 -43 97q0 74 48 115.5t110 41.5q33 0 60.5 -12.5t27.5 -32.5q0 -47 -31 -100q39 -4 119 -4h107 q107 0 172 -40.5t65 -111.5q0 -57 -56.5 -127.5t-150.5 -126.5q45 -6 99.5 -34.5t101.5 -73.5q152 96 308.5 168.5t238.5 72.5q45 0 59.5 -23t14.5 -61q-213 -47 -543 -262q41 -77 41 -163q0 -121 -59 -244.5t-147.5 -213.5t-194.5 -147t-199 -57q-74 0 -118 41t-44 125 q0 117 124.5 293t330.5 340q-57 101 -267 141q-39 65 21 107q114 76 166.5 136.5t52.5 94.5q0 25 -24 25t-98 -6.5t-115 -6.5q-44 0 -74 6q-52 -167 -132.5 -303t-182.5 -218.5t-203 -82.5q-47 0 -81 27t-47.5 59.5t-19.5 71.5q-42 -115 -144.5 -191.5t-203.5 -76.5 q-114 0 -188 82t-74 208zM215 371q0 -35 11.5 -62.5t33.5 -27.5q54 0 116 87.5t102.5 190t53.5 174.5q-21 58 -67 58q-52 0 -112.5 -76.5t-99 -175.5t-38.5 -168zM1253 -334q0 -39 31 -39q27 0 79 46t105 115t92 165t39 182v6q-152 -129 -248 -261t-98 -214z" />
<glyph unicode="&#x431;&#x437;" horiz-adv-x="2207" d="M-31 414q0 175 83 300t218 177q-19 14 -54 37t-56.5 37.5t-49 38t-43.5 44t-27 48.5t-11 59q0 70 42 130.5t106.5 100.5t143 69.5t150.5 42.5t129 13q49 0 74.5 -24.5t25.5 -61.5q0 -67 -67 -116q-69 6 -161.5 -10.5t-164 -53t-71.5 -78.5q0 -30 54.5 -77t123.5 -91.5 t141.5 -102t99.5 -101.5l19 -31q18 -37 26 -62q58 -40 117 -40q140 0 254 169q-39 34 -39 93q0 74 48 115.5t110 41.5q33 0 60.5 -12.5t27.5 -32.5q0 -47 -31 -100q39 -4 119 -4h107q107 0 172 -40.5t65 -111.5q0 -57 -56.5 -127.5t-150.5 -126.5q45 -6 99.5 -34.5 t101.5 -73.5q152 96 308.5 168.5t238.5 72.5q31 0 48 -13.5t21 -29.5t4 -41q-212 -46 -542 -262q41 -77 41 -163q0 -121 -59 -244.5t-147.5 -213.5t-194.5 -147t-199 -57q-74 0 -118 41t-44 125q0 117 124.5 293t330.5 340q-57 101 -267 141q-39 65 21 107 q114 76 166.5 136.5t52.5 94.5q0 25 -25 25q-24 0 -98 -6.5t-115 -6.5q-49 0 -82 8q-58 -109 -150.5 -184.5t-203.5 -75.5q-47 0 -90 15v-9q0 -67 -15 -135.5t-48 -134t-79 -117t-113 -84t-146 -34.5q-112 0 -194.5 56t-121.5 142.5t-39 188.5zM242 451q0 -108 26 -191.5 t76 -83.5q39 0 67.5 44.5t41 110t12.5 142.5q0 115 -27 201t-71 86q-38 0 -68 -53t-43.5 -122t-13.5 -134zM1202 -334q0 -39 31 -39q27 0 79 46t105 115t92 165t39 182v6q-152 -129 -248 -261t-98 -214z" />
<glyph unicode="&#x432;&#x437;" horiz-adv-x="2199" d="M6 496q0 248 45 444q29 129 78.5 227.5t106.5 152.5t113 80.5t108 26.5q68 0 111.5 -40.5t43.5 -120.5q0 -95 -49 -250q-97 -304 -287 -539q16 -161 62.5 -271t110.5 -110q54 0 103.5 54t86.5 137q-92 29 -147.5 98t-55.5 139q0 71 73 136t167 65q81 0 126.5 -71.5 t45.5 -178.5q0 -33 -2 -49q146 73 291 395q-54 31 -54 103q0 74 48 115.5t110 41.5q33 0 60.5 -12.5t27.5 -32.5q0 -47 -31 -100q39 -4 119 -4h107q107 0 172 -40.5t65 -111.5q0 -57 -56.5 -127.5t-150.5 -126.5q45 -6 99.5 -34.5t101.5 -73.5q152 96 308.5 168.5 t238.5 72.5q45 0 59.5 -23t14.5 -61q-213 -47 -543 -262q41 -77 41 -163q0 -121 -59 -244.5t-147.5 -213.5t-194.5 -147t-199 -57q-74 0 -118 41t-44 125q0 117 124.5 293t330.5 340q-57 101 -267 141q-39 65 21 107q114 76 166.5 136.5t52.5 94.5q0 25 -24 25t-98 -6.5 t-115 -6.5q-28 0 -68 4q-61 -172 -176.5 -322.5t-243.5 -183.5q-33 -101 -89 -185t-138.5 -139.5t-173.5 -55.5q-200 0 -304 155.5t-104 444.5zM268 655q84 131 142.5 274t58.5 240q0 50 -33 50q-44 0 -83 -99t-60.5 -226.5t-24.5 -238.5zM575 547q0 -43 26 -78t79 -51 q10 52 10 88q0 52 -15 83.5t-36 31.5q-19 0 -41.5 -23.5t-22.5 -50.5zM1253 -334q0 -39 31 -39q27 0 79 46t105 115t92 165t39 182v6q-152 -129 -248 -261t-98 -214z" />
<glyph unicode="&#x433;&#x437;" horiz-adv-x="2091" d="M8 598q102 155 189.5 226t201.5 71q97 0 161.5 -53.5t64.5 -149.5q0 -60 -25.5 -118t-61.5 -104t-72 -88t-61.5 -84.5t-25.5 -78.5q0 -33 18.5 -51t44.5 -18q104 0 261 181.5t321 493.5q-47 32 -47 99q0 74 48 115.5t110 41.5q33 0 60.5 -12.5t27.5 -32.5q0 -47 -31 -100 q39 -4 119 -4h106q107 0 172.5 -40.5t65.5 -111.5q0 -57 -56.5 -127.5t-150.5 -126.5q45 -6 99.5 -34.5t101.5 -73.5q152 96 308 168.5t238 72.5q45 0 59.5 -23t14.5 -61q-213 -47 -543 -262q41 -77 41 -163q0 -121 -59 -244.5t-147.5 -213.5t-194.5 -147t-199 -57 q-74 0 -117.5 41t-43.5 125q0 117 124 293.5t330 339.5q-57 101 -266 141q-39 65 20 107q114 76 167 136.5t53 94.5q0 25 -25 25q-24 0 -98 -6.5t-115 -6.5q-28 0 -68 4q-56 -117 -115 -221t-139 -215t-160.5 -190t-178 -130t-193.5 -51q-67 0 -116.5 21t-75.5 55t-38 70 t-12 74q0 59 27 120t65 109.5t76 91.5t65 79.5t27 59.5q0 13 -9 24t-32 11q-32 0 -66.5 -24t-59.5 -53.5t-57 -53.5t-60 -24q-53 0 -68 63zM1147 -334q0 -39 31 -39q27 0 79 46t105 115t92 165t39 182v6q-152 -129 -248 -261t-98 -214z" />
<glyph unicode="&#x434;&#x437;" horiz-adv-x="2064" d="M-25 555q0 119 69.5 230t180 178t226.5 67q58 0 105.5 -20.5t47.5 -59.5q0 -20 -34.5 -44.5t-88.5 -43.5q-21 27 -47 27q-51 0 -96.5 -37.5t-73 -93t-43.5 -114.5t-16 -107q0 -76 35 -76q38 0 76.5 45.5t57 113.5t3.5 125q125 82 164 82q57 0 90.5 -80.5t44.5 -211.5 q107 63 186.5 130.5t136.5 163.5q-41 33 -41 95q0 74 48 115.5t110 41.5q33 0 60.5 -12.5t27.5 -32.5q0 -49 -30 -100q39 -4 118 -4h107q107 0 172 -40.5t65 -111.5q0 -57 -56 -127.5t-150 -126.5q45 -6 98.5 -34.5t101.5 -73.5q152 96 308.5 168.5t238.5 72.5 q45 0 59.5 -23t14.5 -61q-213 -47 -543 -262q41 -77 41 -163q0 -121 -59 -244.5t-147.5 -213.5t-194.5 -147t-199 -57q-74 0 -118 41t-44 125q0 117 124.5 293t330.5 340q-57 101 -266 141q-39 65 20 107q114 76 166.5 136.5t52.5 94.5q0 25 -24 25t-98 -6.5t-115 -6.5 q-42 0 -76 6q-18 -32 -37.5 -61.5t-43.5 -57t-42.5 -48t-49 -46t-46.5 -39t-51.5 -38.5t-47.5 -33t-52 -34.5t-48 -31.5v-51q0 -102 -17 -217t-55.5 -234.5t-92 -215t-134 -156t-174.5 -60.5q-103 0 -153 62.5t-50 165.5q0 170 116 349.5t304 332.5q0 52 -6 92 q-117 -154 -252 -154q-95 0 -145 66.5t-50 179.5zM158 -354q0 -90 43 -90q39 0 75.5 62.5t63.5 163t45.5 198.5t30.5 196q-120 -123 -189 -260t-69 -270zM1128 -334q0 -39 31 -39q27 0 79 46t105 115t92.5 165t39.5 182v6q-152 -129 -249 -261t-98 -214z" />
<glyph unicode="&#x435;&#x437;" horiz-adv-x="2162" d="M6 504q0 119 44 226.5t130 178t195 70.5q110 0 168.5 -69t58.5 -189q0 -219 -258 -397q71 -113 193 -113q95 0 203.5 83t203.5 220.5t162 300.5q-59 36 -59 109q0 74 47.5 115.5t109.5 41.5q33 0 60.5 -12.5t27.5 -32.5q0 -49 -30 -100q39 -4 118 -4h107q107 0 172 -40.5 t65 -111.5q0 -57 -56 -127.5t-150 -126.5q45 -6 98.5 -34.5t101.5 -73.5q152 96 308.5 168.5t238.5 72.5q45 0 59.5 -23t14.5 -61q-213 -47 -543 -262q41 -77 41 -163q0 -121 -59 -244.5t-147.5 -213.5t-194.5 -147t-199 -57q-74 0 -118 41t-44 125q0 117 124.5 293 t330.5 340q-57 101 -266 141q-39 65 20 107q114 76 166.5 136.5t52.5 94.5q0 25 -24 25t-98 -6.5t-115 -6.5q-22 0 -54 4q-47 -131 -126 -261.5t-176.5 -240.5t-216.5 -178.5t-232 -68.5q-134 0 -239 65t-160.5 172t-55.5 234zM276 598q0 -72 17 -149q72 68 112.5 135 t40.5 145q0 45 -17.5 65.5t-41.5 20.5q-40 0 -75.5 -59.5t-35.5 -157.5zM1217 -334q0 -39 30 -39q27 0 79 46t105 115t92.5 165t39.5 182v6q-152 -129 -248 -261t-98 -214z" />
<glyph unicode="&#x436;&#x437;" horiz-adv-x="3225" d="M-12 717q0 68 62.5 121t174.5 53q113 0 202 -60.5t137 -154.5t57 -205q76 91 139 191l-2 272q0 98 -33 182q32 32 76.5 52t85.5 20q59 0 79.5 -43t20.5 -141q0 -63 -12 -275.5t-12 -320.5q19 25 70 94t71 96q42 139 146 230.5t245 91.5q52 0 93.5 -14t65.5 -34 t39.5 -45.5t21 -46t5.5 -37.5q0 -73 -106 -100q-63 41 -101 98q-188 -63 -188 -288q0 -68 16.5 -123t57 -92t100.5 -37q72 0 160 54.5t174 146.5t166 202.5t151 233.5q-32 32 -32 86q0 74 47.5 115.5t109.5 41.5q33 0 60.5 -12.5t27.5 -32.5q0 -49 -30 -100q39 -4 118 -4 h107q107 0 172.5 -40.5t65.5 -111.5q0 -57 -56.5 -127.5t-150.5 -126.5q45 -6 98.5 -34.5t101.5 -73.5q152 96 308.5 168.5t238.5 72.5q45 0 59.5 -23t14.5 -61q-213 -47 -543 -262q41 -77 41 -163q0 -121 -59 -244.5t-147.5 -213.5t-194.5 -147t-199 -57q-74 0 -118 41 t-44 125q0 117 124.5 293t330.5 340q-57 101 -266 141q-39 65 20 107q114 76 166.5 136.5t52.5 94.5q0 25 -24 25t-98 -6.5t-115 -6.5q-43 0 -80 6q-48 -90 -106 -180.5t-142 -194t-170.5 -181t-192 -129.5t-206.5 -52q-145 0 -240 95.5t-115 238.5q-95 -128 -129 -180 q0 -217 35 -316q-67 -57 -131 -57q-61 0 -86.5 51.5t-25.5 173.5q0 49 6 189.5t6 203.5q-82 -113 -178 -215q-47 -102 -142 -158.5t-219 -56.5q-97 0 -164 34t-67 91q0 40 35 86q82 -55 147 -55q94 0 151.5 68t57.5 186q0 66 -18.5 124.5t-61.5 106t-106 68.5 q-33 -74 -95 -123q-53 0 -82.5 34.5t-29.5 80.5zM2288 -334q0 -39 30 -39q27 0 79 46t105 115t92.5 165t39.5 182v6q-152 -129 -248 -261t-98 -214z" />
<glyph unicode="&#x438;&#x437;" horiz-adv-x="2295" d="M-6 893q102 16 137 16q74 0 101.5 -36.5t27.5 -114.5q0 -27 -9 -152t-9 -186q0 -57 12.5 -87t46.5 -30q17 0 40.5 12t70 58.5t94.5 122.5q14 196 14 241q0 96 -14 156q10 1 27.5 2.5t32 2.5t26.5 1q82 0 123 -47t41 -170q0 -20 -11.5 -126.5t-11.5 -160.5q0 -147 68 -147 q66 0 183 169t228 421q-32 36 -32 86q0 74 47.5 115.5t109.5 41.5q33 0 60.5 -12.5t27.5 -32.5q0 -49 -30 -100q39 -4 118 -4h107q107 0 172.5 -40.5t65.5 -111.5q0 -57 -56.5 -127.5t-150.5 -126.5q45 -6 98.5 -34.5t101.5 -73.5q152 96 308.5 168.5t238.5 72.5 q45 0 59.5 -23t14.5 -61q-213 -47 -543 -262q41 -77 41 -163q0 -121 -59 -244.5t-147.5 -213.5t-194.5 -147t-199 -57q-74 0 -118 41t-44 125q0 117 124.5 293t330.5 340q-57 101 -266 141q-39 65 20 107q114 76 166.5 136.5t52.5 94.5q0 25 -24 25t-98 -6.5t-115 -6.5 q-43 0 -78 6q-47 -104 -95.5 -196t-108 -182.5t-117 -155t-122 -104.5t-124.5 -40q-102 0 -163 59.5t-79 158.5q-69 -95 -153 -157.5t-175 -62.5q-188 0 -188 248q0 25 7 144.5t7 199.5q0 116 -16 197zM1350 -334q0 -39 30 -39q27 0 79 46t105 115t92.5 165t39.5 182v6 q-152 -129 -248 -261t-98 -214z" />
<glyph unicode="&#x439;&#x437;" horiz-adv-x="2295" d="M-6 893q102 16 137 16q74 0 101.5 -36.5t27.5 -114.5q0 -27 -9 -152t-9 -186q0 -57 12.5 -87t46.5 -30q17 0 40.5 12t70 58.5t94.5 122.5q14 196 14 241q0 96 -14 156q10 1 27.5 2.5t32 2.5t26.5 1q82 0 123 -47t41 -170q0 -20 -11.5 -126.5t-11.5 -160.5q0 -147 68 -147 q66 0 183 169t228 421q-32 36 -32 86q0 74 47.5 115.5t109.5 41.5q33 0 60.5 -12.5t27.5 -32.5q0 -49 -30 -100q39 -4 118 -4h107q107 0 172.5 -40.5t65.5 -111.5q0 -57 -56.5 -127.5t-150.5 -126.5q45 -6 98.5 -34.5t101.5 -73.5q152 96 308.5 168.5t238.5 72.5 q45 0 59.5 -23t14.5 -61q-213 -47 -543 -262q41 -77 41 -163q0 -121 -59 -244.5t-147.5 -213.5t-194.5 -147t-199 -57q-74 0 -118 41t-44 125q0 117 124.5 293t330.5 340q-57 101 -266 141q-39 65 20 107q114 76 166.5 136.5t52.5 94.5q0 25 -24 25t-98 -6.5t-115 -6.5 q-43 0 -78 6q-47 -104 -95.5 -196t-108 -182.5t-117 -155t-122 -104.5t-124.5 -40q-102 0 -163 59.5t-79 158.5q-69 -95 -153 -157.5t-175 -62.5q-188 0 -188 248q0 25 7 144.5t7 199.5q0 116 -16 197zM82 1176q0 32 19.5 49.5t50.5 17.5q30 0 71 -18q25 -11 41.5 -32 t24 -38t27.5 -30t53 -13q39 0 64 12.5t37 30t24 35.5t35 30.5t59 12.5q34 0 63 -18.5t29 -51.5q0 -53 -31.5 -93t-80.5 -60.5t-98.5 -30.5t-96.5 -10q-33 0 -67.5 5t-76 19t-73 36t-53 60.5t-21.5 86.5zM1350 -334q0 -39 30 -39q27 0 79 46t105 115t92.5 165t39.5 182v6 q-152 -129 -248 -261t-98 -214z" />
<glyph unicode="&#x43a;&#x437;" horiz-adv-x="2371" d="M-27 1014q104 59 172 59q61 0 89 -50t28 -153q0 -68 -10 -163q67 121 159 203.5t183 82.5q79 0 119.5 -47t40.5 -125q0 -74 -52.5 -165t-158.5 -185q151 -209 284 -209q154 0 291 208q63 96 171 327q9 19 14 30q-43 40 -43 97q0 74 47.5 115.5t109.5 41.5 q33 0 60.5 -12.5t27.5 -32.5q0 -49 -30 -100q39 -4 118 -4h107q107 0 172 -40.5t65 -111.5q0 -57 -56 -127.5t-150 -126.5q45 -6 98.5 -34.5t101.5 -73.5q152 96 308.5 168.5t238.5 72.5q45 0 59.5 -23t14.5 -61q-213 -47 -543 -262q41 -77 41 -163q0 -121 -59 -244.5 t-147.5 -213.5t-194.5 -147t-199 -57q-74 0 -118 41t-44 125q0 117 124.5 293t330.5 340q-57 101 -266 141q-39 65 20 107q114 76 166.5 136.5t52.5 94.5q0 25 -24 25t-98 -6.5t-115 -6.5t-76 6q-270 -725 -590 -725q-118 0 -231.5 84t-196.5 205q-58 -41 -156 -94v-70 q0 -49 -9 -91.5t-37.5 -77.5t-73.5 -35q-58 0 -113 38q39 148 39 584q0 132 -62 412zM233 420q49 34 95 73t92.5 87t75 99t28.5 95q0 11 -5.5 20t-14.5 9q-46 0 -132.5 -129t-138.5 -252v-2zM1430 -334q0 -39 30 -39q27 0 79 46t105 115t92.5 165t39.5 182v6 q-152 -129 -248 -261t-98 -214z" />
<glyph unicode="&#x43b;&#x437;" horiz-adv-x="2232" d="M-109 172q2 24 8 51t18.5 65t20 59t27 72t25.5 66q29 79 101 217t104 224q80 23 130 20.5t80.5 -35t67.5 -118.5q78 -188 115.5 -276t75 -161.5t59 -94t45.5 -19.5q60 3 176 159t227 420q-51 35 -51 103q0 74 48 115.5t110 41.5q33 0 60.5 -12.5t27.5 -32.5 q0 -47 -31 -100q39 -4 119 -4h107q107 0 172 -40.5t65 -111.5q0 -57 -56.5 -127.5t-150.5 -126.5q45 -6 99.5 -34.5t101.5 -73.5q152 96 308.5 168.5t238.5 72.5q45 0 59.5 -23t14.5 -61q-213 -47 -543 -262q41 -77 41 -163q0 -121 -59 -244.5t-147.5 -213.5t-194.5 -147 t-199 -57q-74 0 -118 41t-44 125q0 117 124.5 293t330.5 340q-57 101 -267 141q-39 65 21 107q114 76 166.5 136.5t52.5 94.5q0 25 -25 25q-24 0 -98 -6.5t-115 -6.5q-25 0 -57 4q-75 -206 -168.5 -373t-199.5 -271.5t-199 -104.5q-104 0 -173.5 80t-135.5 276 q-68 205 -80 229q-12 22 -25 23q-18 1 -48 -67t-56.5 -173t-36.5 -198q-7 -98 2 -144q-84 -26 -164 -26q-61 0 -87.5 32.5t-19.5 106.5zM1290 -334q0 -39 31 -39q27 0 79 46t105 115t92 165t39 182v6q-152 -129 -248 -261t-98 -214z" />
<glyph unicode="&#x43c;&#x437;" horiz-adv-x="2713" d="M-27 23q40 114 74 297t41 352q2 40 -0.5 119.5t-9.5 111.5q50 31 106 31q61 0 108 -39t66 -125q18 -79 33.5 -136.5t37 -117.5t45 -91.5t48.5 -31.5q45 0 95 53.5t86.5 120t85.5 156t79 131.5q27 39 63 59t69 19.5t60 -10.5t42 -27q-37 -159 -37 -320q0 -68 7.5 -125.5 t23 -104.5t43 -74t63.5 -27q46 0 95 35t90.5 88.5t88 136t81.5 157.5t77 173q-37 32 -37 90q0 74 48 115.5t110 41.5q33 0 60.5 -12.5t27.5 -32.5q0 -47 -31 -100q39 -4 119 -4h107q107 0 172 -40.5t65 -111.5q0 -57 -56.5 -127.5t-150.5 -126.5q45 -6 99.5 -34.5 t101.5 -73.5q152 96 308.5 168.5t238.5 72.5q45 0 59.5 -23t14.5 -61q-213 -47 -543 -262q41 -77 41 -163q0 -121 -59 -244.5t-147.5 -213.5t-194.5 -147t-199 -57q-74 0 -118 41t-44 125q0 117 124.5 293t330.5 340q-57 101 -266 141q-39 65 20 107q114 76 166.5 136.5 t52.5 94.5q0 25 -24 25t-98 -6.5t-115 -6.5q-39 0 -74 6q-34 -83 -64.5 -150.5t-72 -145.5t-81 -138.5t-89 -118.5t-100 -96t-111 -61t-123.5 -23q-62 0 -109 17.5t-77 52.5t-49.5 74.5t-29.5 97.5t-14 106t-6 115q-53 -95 -94 -154.5t-76 -91t-64 -42.5t-65 -11 q-58 0 -100.5 31.5t-63 76.5t-32.5 89.5t-17 76t-8 31.5q-16 0 -16 -241q0 -47 -1.5 -74.5t-6 -64.5t-16 -58.5t-30.5 -42.5t-49.5 -30t-71.5 -9q-69 0 -133 23zM1767 -334q0 -39 31 -39q27 0 79 46t105 115t92.5 165t39.5 182v6q-152 -129 -249 -261t-98 -214z" />
<glyph unicode="&#x43d;&#x437;" horiz-adv-x="2334" d="M-6 893q110 16 149 16q79 0 108.5 -39t29.5 -122q0 -19 -2 -51t-4.5 -77.5t-4.5 -76.5q124 9 275 12q10 98 10 172q0 104 -16 164q62 8 92 8q94 0 140 -50t46 -181q0 -22 -12 -135.5t-12 -170.5q0 -64 9 -101t20 -46.5t28 -9.5q66 0 183.5 167t240.5 451q-47 35 -47 101 q0 74 47.5 115.5t109.5 41.5q33 0 61 -12.5t28 -32.5q0 -47 -31 -100q39 -4 119 -4h106q107 0 172.5 -40.5t65.5 -111.5q0 -57 -56.5 -127.5t-150.5 -126.5q45 -6 98.5 -34.5t101.5 -73.5q152 96 308.5 168.5t238.5 72.5q45 0 59.5 -23t14.5 -61q-213 -47 -543 -262 q41 -77 41 -163q0 -121 -59 -244.5t-147.5 -213.5t-194.5 -147t-199 -57q-74 0 -118 41t-44 125q0 117 124.5 293t330.5 340q-57 101 -266 141q-39 65 20 107q114 76 166.5 136.5t52.5 94.5q0 25 -24 25t-98 -6.5t-115 -6.5q-42 0 -72 6q-310 -731 -608 -731 q-67 0 -113.5 25t-71 71.5t-34.5 100.5t-10 125v43q-144 -4 -271 -12v-19q0 -235 35 -309q-86 -25 -149 -25q-87 0 -121.5 63.5t-34.5 198.5q0 26 7 154t7 213q0 120 -16 211zM1397 -334q0 -39 30 -39q27 0 79 46t105 115t92.5 165t39.5 182v6q-152 -129 -248 -261t-98 -214 z" />
<glyph unicode="&#x43e;&#x437;" horiz-adv-x="2238" d="M-23 465q0 114 55 195t152 81q11 109 84.5 166.5t177.5 57.5q99 0 170 -52.5t104 -133.5t36 -181q59 -43 125 -43q163 0 293 266q-54 35 -54 103q0 74 48 115.5t110 41.5q33 0 60.5 -12.5t27.5 -32.5q0 -47 -31 -100q39 -4 119 -4h107q107 0 172 -40.5t65 -111.5 q0 -57 -56.5 -127.5t-150.5 -126.5q45 -6 99.5 -34.5t101.5 -73.5q152 96 308.5 168.5t238.5 72.5q45 0 59.5 -23t14.5 -61q-213 -47 -543 -262q41 -77 41 -163q0 -121 -59 -244.5t-147.5 -213.5t-194.5 -147t-199 -57q-74 0 -118 41t-44 125q0 117 124.5 293t330.5 340 q-57 101 -267 141q-39 65 21 107q114 76 166.5 136.5t52.5 94.5q0 25 -25 25q-24 0 -98 -6.5t-115 -6.5q-27 0 -67 4q-67 -158 -174.5 -258t-235.5 -100q-63 0 -121 25q-15 -74 -47 -138.5t-79.5 -117.5t-117 -85t-151.5 -34q-92 -2 -165.5 33.5t-116.5 94.5t-65 126.5 t-22 136.5zM233 346q0 -66 35.5 -115t85.5 -49q39 0 69 32t47 83t25.5 106.5t8.5 110.5q0 75 -14.5 138t-50 107t-87.5 44q-70 0 -110 -72q82 -32 82 -151q0 -32 -11 -82q-38 -14 -59 -58.5t-21 -93.5zM1290 -334q0 -39 31 -39q27 0 79 46t105 115t92 165t39 182v6 q-152 -129 -248 -261t-98 -214z" />
<glyph unicode="&#x43f;&#x437;" horiz-adv-x="2480" d="M23 922q72 65 155 65q54 0 88.5 -35.5t34.5 -107.5q0 -18 -6 -133t-6 -183q58 102 110 175.5t88.5 111.5t73 59.5t58.5 26t49 4.5q55 0 95 -16.5t62.5 -41.5t35 -66t16.5 -79t4 -90q0 -59 -3.5 -151t-3.5 -125q0 -156 76 -156q20 0 46.5 10t76.5 50t101.5 105 t120.5 189.5t135 288.5q-52 34 -52 101q0 74 48 115.5t110 41.5q33 0 60.5 -12.5t27.5 -32.5q0 -47 -31 -100q39 -4 119 -4h107q107 0 172 -40.5t65 -111.5q0 -57 -56.5 -127.5t-150.5 -126.5q45 -6 99.5 -34.5t101.5 -73.5q152 96 308.5 168.5t238.5 72.5q45 0 59.5 -23 t14.5 -61q-213 -47 -543 -262q41 -77 41 -163q0 -121 -59 -244.5t-147.5 -213.5t-194.5 -147t-199 -57q-74 0 -118 41t-44 125q0 117 124.5 293t330.5 340q-57 101 -267 141q-39 65 21 107q114 76 166.5 136.5t52.5 94.5q0 25 -25 25q-24 0 -98 -6.5t-115 -6.5q-27 0 -63 4 q-53 -162 -125 -302.5t-158.5 -250.5t-189.5 -173.5t-207 -63.5q-109 0 -182.5 91.5t-73.5 266.5q0 78 10 219.5t10 157.5q0 43 -16 43q-12 0 -31 -12t-53 -53t-70 -105.5t-80.5 -185t-84.5 -275.5q-37 -18 -82 -18q-46 0 -79 15.5t-51.5 38t-28.5 60.5t-12.5 72t-2.5 82 q0 81 8 202t8 167q0 88 -20 164zM1548 -334q0 -39 31 -39q27 0 79 46t105 115t92 165t39 182v6q-152 -129 -248 -261t-98 -214z" />
<glyph unicode="&#x440;&#x437;" horiz-adv-x="2166" d="M-12 1014q78 69 145 69q52 0 82.5 -43.5t30.5 -128.5q0 -89 -15 -129q233 197 361 197q87 0 141 -45q64 -50 64 -150q0 -42 -13 -96q203 72 293 162q-22 28 -22 74q0 74 47.5 115.5t109.5 41.5q33 0 60.5 -12.5t27.5 -32.5q0 -49 -30 -100q39 -4 119 -4h106 q107 0 172.5 -40.5t65.5 -111.5q0 -57 -56.5 -127.5t-150.5 -126.5q45 -6 98.5 -34.5t101.5 -73.5q152 96 308.5 168.5t238.5 72.5q45 0 59.5 -23t14.5 -61q-213 -47 -543 -262q41 -77 41 -163q0 -121 -59 -244.5t-147.5 -213.5t-194.5 -147t-199 -57q-74 0 -118 41t-44 125 q0 117 124.5 293t330.5 340q-57 101 -266 141q-39 65 20 107q114 76 166.5 136.5t52.5 94.5q0 25 -24 25t-98 -6.5t-115 -6.5q-58 0 -105 13q-138 -142 -434 -226q-66 -126 -172.5 -219.5t-177.5 -93.5q-38 0 -58 23.5t-20 60.5q0 190 281 293q18 63 18 98q0 66 -63 66 q-34 0 -70 -21t-75 -76t-69.5 -137.5t-50.5 -219t-20 -306.5q0 -220 39 -504q-83 -18 -137 -18q-101 0 -135.5 78.5t-24.5 289.5q27 509 27 750v46.5v45.5t-0.5 38.5t-1.5 41.5t-3 36.5t-5 42t-7 39t-9.5 47t-12.5 48.5zM399 356q0 -14 9 -14q11 0 46.5 46.5t71.5 109.5 q-127 -62 -127 -142zM1225 -334q0 -39 30 -39q27 0 79 46t105 115t92.5 165t39.5 182v6q-152 -129 -248 -261t-98 -214z" />
<glyph unicode="&#x441;&#x437;" horiz-adv-x="2152" d="M-6 449q0 88 28.5 170.5t81 150.5t136.5 109t186 41q112 0 197.5 -58t85.5 -121q0 -33 -26.5 -57t-88.5 -51q-75 129 -150 129q-57 0 -98.5 -44.5t-60.5 -108.5t-19 -136t20 -131t67.5 -99t115.5 -40q81 0 168.5 54t168 146t149.5 196.5t132 223.5q-49 34 -49 101 q0 74 48 115.5t110 41.5q33 0 60.5 -12.5t27.5 -32.5q0 -47 -31 -100q39 -4 119 -4h107q107 0 172 -40.5t65 -111.5q0 -57 -56.5 -127.5t-150.5 -126.5q45 -6 99.5 -34.5t101.5 -73.5q152 96 308.5 168.5t238.5 72.5q45 0 59.5 -23t14.5 -61q-213 -47 -543 -262 q41 -77 41 -163q0 -121 -59 -244.5t-147.5 -213.5t-194.5 -147t-199 -57q-74 0 -118 41t-44 125q0 117 124.5 293t330.5 340q-57 101 -267 141q-39 65 21 107q114 76 166.5 136.5t52.5 94.5q0 25 -25 25q-24 0 -98 -6.5t-115 -6.5t-75 6q-36 -89 -91.5 -185.5t-134 -196 t-164.5 -178t-190.5 -128t-206.5 -49.5t-180.5 33.5t-125.5 90.5t-71 127.5t-24 150.5zM1208 -334q0 -39 31 -39q27 0 79 46t105 115t92 165t39 182v6q-152 -129 -248 -261t-98 -214z" />
<glyph unicode="&#x442;&#x437;" horiz-adv-x="2871" d="M-20 166q4 49 15.5 150t15.5 158t6.5 137t-7 146.5t-30.5 127.5q58 55 133 55q153 0 153 -307q0 -106 -16 -207q88 196 115 247q92 171 196 213q41 17 86 17q86 0 132 -67t46 -177q0 -46 -2 -71q64 147 136 222t182 75q76 0 121 -50t45 -135q0 -48 -8.5 -156t-8.5 -155 q0 -79 23 -118.5t76 -39.5q64 0 141 83.5t147 216.5t129 296q-43 34 -43 97q0 74 48 115.5t110 41.5q33 0 60.5 -12.5t27.5 -32.5q0 -47 -31 -100q39 -4 119 -4h107q107 0 172 -40.5t65 -111.5q0 -57 -56.5 -127.5t-150.5 -126.5q45 -6 99.5 -34.5t101.5 -73.5 q152 96 308.5 168.5t238.5 72.5q45 0 59.5 -23t14.5 -61q-213 -47 -543 -262q41 -77 41 -163q0 -121 -59 -244.5t-147.5 -213.5t-194.5 -147t-199 -57q-74 0 -118 41t-44 125q0 117 124.5 293t330.5 340q-57 101 -267 141q-39 65 21 107q114 76 166.5 136.5t52.5 94.5 q0 25 -25 25q-24 0 -98 -6.5t-115 -6.5q-27 0 -63 4q-28 -83 -60.5 -160t-76 -159t-95 -148.5t-110.5 -120.5t-130 -84t-147 -30q-45 0 -88 14.5t-80.5 44.5t-60 82t-22.5 119q0 71 12 176t12 141q0 23 -12 23q-9 0 -18 -6.5t-18.5 -21t-17.5 -29.5t-19 -41t-18.5 -45 t-20.5 -52t-21 -53q-24 -63 -44.5 -107.5t-48.5 -91t-59 -70.5t-65 -24q-81 0 -133 80q1 3 6.5 35t10 62.5t10 74.5t8.5 93t3 96q0 135 -20 135q-19 0 -52 -63.5t-75 -153.5t-91.5 -180.5t-115 -154t-131.5 -63.5q-88 0 -151 66zM1933 -334q0 -39 31 -39q27 0 79 46t105 115 t92 165t39 182v6q-152 -129 -248 -261t-98 -214z" />
<glyph unicode="&#x443;&#x437;" horiz-adv-x="2078" d="M-4 932q33 29 110 29q57 0 96.5 -26t39.5 -83q0 -13 -8.5 -88t-8.5 -129q0 -141 62 -141t100 117t37 317q24 20 63.5 29.5t73.5 9.5q36 0 61 -13.5t39 -33.5t21.5 -57t9.5 -72t2 -89q0 -59 -4 -161q194 150 303 307q-24 31 -24 76q0 74 47.5 115.5t109.5 41.5 q33 0 60.5 -12.5t27.5 -32.5q0 -49 -30 -100q39 -4 119 -4h106q107 0 172.5 -40.5t65.5 -111.5q0 -57 -56.5 -127.5t-150.5 -126.5q45 -6 98.5 -34.5t101.5 -73.5q152 96 308.5 168.5t238.5 72.5q45 0 59.5 -23t14.5 -61q-213 -47 -543 -262q41 -77 41 -163 q0 -121 -59 -244.5t-147.5 -213.5t-194.5 -147t-199 -57q-74 0 -118 41t-44 125q0 117 124.5 293t330.5 340q-57 101 -266 141q-39 65 20 107q114 76 166.5 136.5t52.5 94.5q0 25 -24 25t-98 -6.5t-115 -6.5q-49 0 -94 10q-74 -113 -168 -202t-246 -203q-15 -146 -44 -273.5 t-65 -219t-79 -166.5t-85.5 -123t-85.5 -80.5t-78 -46t-63 -13.5q-69 0 -116.5 61.5t-47.5 172.5q0 331 420 661q8 65 8 136v4q-57 -89 -121.5 -131.5t-125.5 -42.5q-65 0 -111 50t-66 123.5t-20 159.5q0 29 2 81t2 77q0 62 -8 119zM125 -332q0 -71 45 -71q31 0 65.5 50 t66 132.5t59 182.5t47.5 206q-283 -266 -283 -500zM1139 -334q0 -39 30 -39q27 0 79 46t105 115t92.5 165t39.5 182v6q-152 -129 -248 -261t-98 -214z" />
<glyph unicode="&#x444;&#x437;" horiz-adv-x="2883" d="M6 508q0 75 22 144t63.5 124.5t108 89t148.5 33.5q79 0 143 -36t64 -97q0 -17 -6.5 -30.5t-20 -24t-23 -16t-26.5 -13.5q-49 84 -108 84q-69 0 -110.5 -78.5t-41.5 -179.5q0 -93 33.5 -155t101.5 -62q62 0 130.5 82.5t125.5 220.5q-2 303 -12 454.5t-35 213.5 q32 32 76.5 51.5t83.5 19.5q60 0 87.5 -42.5t27.5 -129.5q0 -27 -9.5 -277t-11.5 -427q60 224 153.5 329t229.5 105q94 0 170 -55.5t111 -149.5q203 71 305 176q-14 28 -14 62q0 74 47.5 115.5t109.5 41.5q33 0 60.5 -12.5t27.5 -32.5q0 -49 -30 -100q39 -4 118 -4h107 q107 0 172 -40.5t65 -111.5q0 -57 -56 -127.5t-150 -126.5q45 -6 98.5 -34.5t101.5 -73.5q152 96 308.5 168.5t238.5 72.5q45 0 59.5 -23t14.5 -61q-213 -47 -543 -262q41 -77 41 -163q0 -121 -59 -244.5t-147.5 -213.5t-194.5 -147t-199 -57q-74 0 -118 41t-44 125 q0 117 124.5 293t330.5 340q-57 101 -266 141q-39 65 20 107q114 76 166.5 136.5t52.5 94.5q0 25 -24 25t-98 -6.5t-115 -6.5q-63 0 -107 15q-48 -49 -119.5 -95t-125.5 -71.5t-134 -59.5v-22q0 -90 -28 -166.5t-71.5 -123.5t-92.5 -73t-94 -26q-73 0 -110.5 44t-37.5 113 q0 187 219 301q-39 127 -112 127q-75 0 -143 -106t-111 -261t-68 -317t-25 -286q0 -134 27 -211q-32 -27 -71 -42.5t-66 -15.5q-63 0 -92 48.5t-27 148.5q0 46 3.5 271t4.5 376q-55 -96 -133.5 -157.5t-167.5 -61.5q-97 0 -167.5 56.5t-103 141t-32.5 183.5zM1210 291 q0 -21 8.5 -35t24.5 -14q35 0 54 67.5t14 159.5q-101 -78 -101 -178zM1942 -334q0 -39 30 -39q27 0 79 46t105 115t92.5 165t39.5 182v6q-152 -129 -248 -261t-98 -214z" />
<glyph unicode="&#x44c;&#x437;" horiz-adv-x="2138" d="M-41 399q0 86 18.5 237.5t18.5 205.5q0 49 -14 114q42 7 61 7q59 0 102 -12.5t66 -31.5t36.5 -49t17 -55.5t3.5 -60.5q0 -53 -21.5 -205t-21.5 -225q0 -80 29.5 -135.5t97.5 -55.5q69 0 105 78q-88 26 -135.5 88.5t-47.5 132.5q0 67 44 113.5t122 46.5q99 0 166.5 -71 t75.5 -175q197 98 383 488q-37 32 -37 90q0 74 48 115.5t110 41.5q33 0 60.5 -12.5t27.5 -32.5q0 -47 -31 -100q39 -4 119 -4h106q107 0 172.5 -40.5t65.5 -111.5q0 -57 -56.5 -127.5t-150.5 -126.5q45 -6 99.5 -34.5t101.5 -73.5q152 96 308.5 168.5t238.5 72.5 q31 0 48 -13.5t21 -29.5t4 -41q-212 -46 -542 -262q41 -77 41 -163q0 -121 -59 -244.5t-147.5 -213.5t-194.5 -147t-199 -57q-74 0 -118 41t-44 125q0 117 124 293.5t330 339.5q-57 101 -266 141q-39 65 21 107q114 76 166.5 136.5t52.5 94.5q0 25 -25 25q-24 0 -98 -6.5 t-115 -6.5q-43 0 -73 6q-102 -215 -233 -372.5t-277 -200.5q-35 -101 -121 -166t-199 -65q-99 0 -175.5 36t-121 97t-66.5 133.5t-22 152.5zM362 422q0 -31 34.5 -57.5t88.5 -40.5v16q0 58 -21 95.5t-56 37.5q-22 0 -34 -14t-12 -37zM1198 -334q0 -39 31 -39q27 0 79 46 t105 115t92 165t39 182v6q-152 -129 -248 -261t-98 -214z" />
<glyph unicode="&#x44a;&#x436;" horiz-adv-x="3330" d="M-72 754q0 85 76.5 144.5t157.5 59.5q133 0 133 -100q0 -65 -64 -160h39q22 0 69 1t69 1q107 0 151.5 -30t44.5 -74q0 -50 -59 -182q53 41 139 41q92 0 157.5 -70t65.5 -164v-12q125 51 237.5 166.5t155.5 236.5q-29 14 -45 43t-16 62q0 67 61 120t164 54 q92 0 168.5 -35.5t126 -95t79 -133t34.5 -154.5q75 87 139 189l-2 272q0 98 -33 182q32 32 76.5 52t83.5 20q59 0 80.5 -41t21.5 -131q0 -78 -12 -288.5t-12 -319.5q19 25 70 94t71 96q42 139 146.5 230.5t248.5 91.5q51 0 91.5 -14t64 -34t39.5 -45.5t21.5 -46t5.5 -37.5 q0 -72 -107 -100q-62 40 -100 98q-189 -64 -189 -295q0 -49 10.5 -91.5t32 -77.5t60 -55.5t90.5 -20.5q94 0 226 87.5t244.5 206t184.5 230.5q32 -10 42.5 -34t0.5 -54q-9 -33 -56.5 -100.5t-126.5 -151.5t-171 -159.5t-203.5 -127t-210.5 -51.5q-159 0 -251 94.5 t-111 239.5q-95 -128 -129 -180q0 -217 35 -316q-66 -57 -125 -57q-62 0 -90.5 48t-28.5 149q0 86 6 221.5t6 199.5q-73 -103 -180 -217q-49 -102 -141 -157.5t-207 -55.5q-108 0 -175 33.5t-67 91.5q0 40 35 86q80 -55 139 -55q103 0 160 67.5t57 188.5q0 101 -47 184 t-139 113q20 -58 -6 -137t-86 -158.5t-138.5 -152.5t-171 -128t-176.5 -77q-56 -102 -169 -166t-240 -64q-137 0 -217 82t-80 191q0 59 13 119t37 117.5t43 94t46 84.5q-58 2 -108 9t-100 23t-85.5 40.5t-57.5 63t-22 88.5zM98 768q0 -25 19 -41q55 90 55 137q-3 13 -10 13 q-24 0 -44 -33.5t-20 -75.5zM440 100q0 -50 25.5 -77t69.5 -27q83 0 133 78q-80 22 -131 73t-60 109q-37 -105 -37 -156zM594 270q2 -26 34 -50t83 -34q2 12 2 33q-2 39 -24 69.5t-50 30.5q-21 0 -33 -14t-12 -35z" />
<glyph unicode="&#x44a;&#x437;" horiz-adv-x="2367" d="M-72 754q0 85 76.5 144.5t157.5 59.5q133 0 133 -100q0 -65 -64 -160h39q22 0 69 1t69 1q107 0 151.5 -30t44.5 -74q0 -50 -59 -182q53 41 139 41q92 0 157.5 -70t65.5 -162q193 134 391 602q-45 33 -45 99q0 74 48 115.5t110 41.5q33 0 60.5 -12.5t27.5 -32.5 q0 -47 -31 -100q39 -4 119 -4h107q107 0 172 -40.5t65 -111.5q0 -57 -56.5 -127.5t-150.5 -126.5q45 -6 99.5 -34.5t101.5 -73.5q152 96 308.5 168.5t238.5 72.5q45 0 59.5 -23t14.5 -61q-213 -47 -543 -262q41 -77 41 -163q0 -121 -59 -244.5t-147.5 -213.5t-194.5 -147 t-199 -57q-74 0 -118 41t-44 125q0 117 124.5 293t330.5 340q-57 101 -267 141q-39 65 21 107q114 76 166.5 136.5t52.5 94.5q0 25 -24 25t-98 -6.5t-115 -6.5q-30 0 -66 4q-247 -614 -537 -706q-54 -103 -168.5 -168.5t-242.5 -65.5q-137 0 -217 82t-80 191q0 59 13 119 t37 117.5t43 94t46 84.5q-58 2 -108 9t-100 23t-85.5 40.5t-57.5 63t-22 88.5zM98 768q0 -25 19 -41q55 90 55 137q-3 13 -10 13q-24 0 -44 -33.5t-20 -75.5zM440 100q0 -50 25.5 -77t69.5 -27q80 0 135 80q-73 24 -128 71.5t-65 108.5q-37 -105 -37 -156zM594 270 q2 -31 33 -59.5t82 -38.5q4 32 4 47q-2 39 -24 69.5t-50 30.5q-21 0 -33 -14t-12 -35zM1423 -334q0 -39 31 -39q27 0 79 46t105 115t92 165t39 182v6q-152 -129 -248 -261t-98 -214z" />
<glyph unicode="&#x44b;&#x437;" horiz-adv-x="2797" d="M-31 418q0 86 18.5 237t18.5 205q0 50 -14 115q36 6 61 6q73 0 121 -17.5t69.5 -50.5t28.5 -65t7 -76q0 -53 -21.5 -205t-21.5 -225q0 -80 29 -135t97 -55q69 0 105 77q-88 26 -135 88.5t-47 133.5q0 67 44 113t122 46q100 0 167.5 -73t73.5 -179q99 48 189 162 q3 31 11 85.5t12.5 98t4.5 84.5q0 87 -26 156q65 19 123 19q91 0 134.5 -56t43.5 -157q0 -76 -20.5 -227t-20.5 -201q0 -67 28 -111.5t84 -44.5q49 0 97 27.5t92 79.5t83.5 112.5t78 141t68 149t61.5 151.5q-45 33 -45 97q0 74 47.5 115.5t109.5 41.5q33 0 60.5 -12.5 t27.5 -32.5q0 -49 -30 -100q39 -4 118 -4h107q107 0 172 -40.5t65 -111.5q0 -57 -56 -127.5t-150 -126.5q45 -6 98.5 -34.5t101.5 -73.5q152 96 308.5 168.5t238.5 72.5q45 0 59.5 -23t14.5 -61q-213 -47 -543 -262q41 -77 41 -163q0 -121 -59 -244.5t-147.5 -213.5 t-194.5 -147t-199 -57q-74 0 -118 41t-44 125q0 117 124.5 293t330.5 340q-57 101 -266 141q-39 65 20 107q114 76 166.5 136.5t52.5 94.5q0 25 -24 25t-98 -6.5t-115 -6.5q-40 0 -70 6q-52 -136 -100 -240.5t-111 -210t-127.5 -174t-146 -111t-170.5 -42.5 q-102 0 -183.5 67t-111.5 191q-9 50 -12 96q-105 -95 -203 -129q-34 -101 -120.5 -167t-199.5 -66q-99 0 -175.5 36t-121 97.5t-66.5 134t-22 152.5zM373 440q0 -32 34 -62.5t87 -45.5q2 10 2 26q0 58 -21.5 96t-56.5 38q-21 0 -33 -14t-12 -38zM1860 -334q0 -39 30 -39 q27 0 79 46t105 115t92.5 165t39.5 182v6q-152 -129 -248 -261t-98 -214z" />
<glyph unicode="&#x44d;&#x437;" horiz-adv-x="2142" d="M0 227q0 46 35 76.5t98 30.5q19 -60 61.5 -95.5t86.5 -35.5q73 0 118 56t58 144q-52 -10 -99 -10q-103 0 -129.5 38t-7.5 112q77 -11 236 6q-15 91 -59.5 152t-112.5 61q-96 0 -158 -119q-69 25 -94 48.5t-25 53.5q0 21 18.5 49t52.5 57t93.5 49t130.5 20q155 0 261 -89 t149 -227q33 -20 94 -20q90 0 152 59t122 182q-47 35 -47 99q0 74 48 115.5t110 41.5q33 0 60.5 -12.5t27.5 -32.5q0 -47 -31 -100q39 -4 119 -4h107q107 0 172 -40.5t65 -111.5q0 -57 -56.5 -127.5t-150.5 -126.5q45 -6 99.5 -34.5t101.5 -73.5q152 96 308.5 168.5 t238.5 72.5q45 0 59.5 -23t14.5 -61q-213 -47 -543 -262q41 -77 41 -163q0 -121 -59 -244.5t-147.5 -213.5t-194.5 -147t-199 -57q-74 0 -118 41t-44 125q0 117 124.5 293t330.5 340q-57 101 -267 141q-39 65 21 107q114 76 166.5 136.5t52.5 94.5q0 25 -25 25 q-24 0 -98 -6.5t-115 -6.5q-27 0 -67 4q-19 -52 -43 -98.5t-58.5 -92t-73 -77.5t-89.5 -52t-107 -20q-34 0 -80 4q0 -80 -27.5 -153.5t-80 -134t-138.5 -97t-194 -36.5q-124 0 -209.5 53.5t-85.5 148.5zM1204 -334q0 -39 31 -39q27 0 79 46t105 115t92 165t39 182v6 q-152 -129 -248 -261t-98 -214z" />
<glyph unicode="&#x44e;&#x437;" horiz-adv-x="2629" d="M-6 844q72 65 156 65q53 0 87.5 -35t34.5 -106q0 -18 -10 -305q75 72 166 115q19 64 55 122.5t87.5 108.5t123.5 79.5t154 29.5q135 0 215 -92t94 -232q53 -39 119 -39q151 0 287 272q-43 34 -43 97q0 74 47.5 115.5t109.5 41.5q33 0 60.5 -12.5t27.5 -32.5 q0 -49 -30 -100q39 -4 118 -4h107q107 0 172.5 -40.5t65.5 -111.5q0 -57 -56.5 -127.5t-150.5 -126.5q45 -6 98.5 -34.5t101.5 -73.5q152 96 308.5 168.5t238.5 72.5q45 0 59.5 -23t14.5 -61q-213 -47 -543 -262q41 -77 41 -163q0 -121 -59 -244.5t-147.5 -213.5 t-194.5 -147t-199 -57q-74 0 -118 41t-44 125q0 117 124.5 293t330.5 340q-57 101 -266 141q-39 65 20 107q114 76 166.5 136.5t52.5 94.5q0 25 -24 25t-98 -6.5t-115 -6.5q-28 0 -68 4q-74 -160 -176.5 -261t-230.5 -101q-58 0 -113 18q-12 -79 -43 -151t-79.5 -130 t-118.5 -93t-152 -37q-80 0 -141.5 23.5t-99 61.5t-62 91.5t-34 105.5t-11.5 113q-95 -71 -148 -164q7 -118 25 -186q-40 -19 -115 -19q-46 0 -79 15t-51.5 37.5t-28.5 60t-12.5 70.5t-2.5 81q0 81 8 200.5t8 164.5q0 89 -20 162zM678 442q0 -110 28.5 -187.5t79.5 -76.5 q38 2 65 53t38.5 120.5t11.5 146.5q0 111 -25.5 186.5t-68.5 75.5q-59 0 -94 -96.5t-35 -221.5zM1690 -334q0 -39 30 -39q27 0 79 46t105 115t92.5 165t39.5 182v6q-152 -129 -248 -261t-98 -214z" />
<glyph unicode="&#x44f;&#x437;" horiz-adv-x="2189" d="M8 158q213 58 352 241q-78 -47 -153 -47q-97 0 -148 69.5t-51 168.5q0 97 46.5 186t128 145t173.5 56q119 0 201 -107q23 29 72 29q23 0 56.5 -12t55.5 -35q-19 -66 -36 -180.5t-17 -208.5q0 -178 68 -178q41 0 85.5 33t84 84.5t79.5 124t71.5 142.5t62.5 148 q-60 34 -60 107q0 74 48 115.5t110 41.5q33 0 60.5 -12.5t27.5 -32.5q0 -47 -31 -100q39 -4 119 -4h107q107 0 172 -40.5t65 -111.5q0 -57 -56.5 -127.5t-150.5 -126.5q45 -6 99.5 -34.5t101.5 -73.5q152 96 308.5 168.5t238.5 72.5q45 0 59.5 -23t14.5 -61 q-213 -47 -543 -262q41 -77 41 -163q0 -121 -59 -244.5t-147.5 -213.5t-194.5 -147t-199 -57q-74 0 -118 41t-44 125q0 117 124.5 293t330.5 340q-57 101 -267 141q-39 65 21 107q114 76 166.5 136.5t52.5 94.5q0 25 -25 25q-24 0 -98 -6.5t-115 -6.5q-25 0 -61 4 q-46 -117 -87.5 -207.5t-96 -180.5t-109.5 -149t-124.5 -95.5t-143.5 -36.5q-69 0 -123 60t-64 167q-46 -136 -138 -233t-197 -97q-47 0 -86.5 34t-59.5 114zM240 604q0 -28 15 -46.5t36 -18.5q111 0 213 235q-24 76 -82 76q-67 0 -124.5 -75.5t-57.5 -170.5zM1249 -334 q0 -39 31 -39q27 0 79 46t105 115t92 165t39 182v6q-152 -129 -248 -261t-98 -214z" />
<glyph unicode=" "  horiz-adv-x="382" />
<glyph unicode="&#x09;" horiz-adv-x="382" />
<glyph unicode="&#xa0;" horiz-adv-x="382" />
<glyph unicode="!" horiz-adv-x="675" d="M195 205q0 61 54 97t126 36q66 0 116 -30t50 -83q0 -64 -59 -134.5t-132 -70.5q-68 0 -111.5 62.5t-43.5 122.5zM195 1260q0 39 0.5 58.5t2 54.5t6.5 53.5t12.5 45t20 40.5t30 28.5t42.5 20.5t56 6q61 0 103.5 -24.5t57.5 -72.5q0 -126 -32 -508t-66 -475 q-28 -32 -78 -32q-28 0 -47 11t-31 31.5t-19.5 53.5t-12.5 72t-11 93v3q-34 336 -34 541z" />
<glyph unicode="&#x22;" horiz-adv-x="727" d="M86 1384q0 63 23 85t96 22t93.5 -20.5t20.5 -86.5q0 -94 -36 -266q-15 -74 -30.5 -94t-57.5 -20t-57 20.5t-27 91.5q-25 157 -25 268zM401 1384q0 63 23 85t96 22t94 -20.5t21 -86.5q0 -89 -37 -266q-15 -74 -30.5 -94t-57.5 -20t-57 20.5t-27 91.5q-25 157 -25 268z" />
<glyph unicode="#" horiz-adv-x="1716" d="M80 334q-3 47 34.5 82.5t100.5 42.5q69 6 211 12l74 223q-55 0 -108.5 -0.5t-84.5 -1t-33 -0.5q-29 8 -50.5 31t-24.5 57q-3 47 34.5 82.5t100.5 42.5q145 12 241 15q90 264 130 340q25 48 67.5 71t89.5 23q65 0 96 -31q-13 -47 -131 -399q68 2 226 2q93 269 127 334 q25 48 67.5 71t89.5 23q66 0 97 -31q-13 -47 -131 -399q282 -16 282 -90q0 -89 -119 -127q-135 0 -235 -2q-55 -161 -76 -228q311 -8 311 -90q0 -90 -118 -127q-152 0 -267 -2l-137 -410q-26 -24 -62 -38.5t-69 -14.5q-36 0 -58 19t-22 57q0 30 15 92q25 99 86 291 q-40 0 -117 -1t-113 -1q-58 -169 -135 -404q-26 -24 -62 -38.5t-69 -14.5q-36 0 -58 19t-22 57q0 34 14 92q34 131 84 285q-49 0 -96 -0.5t-74.5 -1t-29.5 -0.5q-29 8 -51 31t-25 57zM678 477q32 0 106.5 1t118.5 1l74 223q-37 -1 -112 -2t-111 -2z" />
<glyph unicode="$" horiz-adv-x="1171" d="M74 96q0 72 65.5 116.5t130.5 25.5q33 -93 91.5 -156.5t134.5 -83.5q0 287 2 453q-90 38 -148 69q-50 28 -94 63.5t-85.5 83.5t-66 110t-24.5 128q0 90 34.5 165.5t93.5 127.5t133.5 85t160.5 46v64q0 72 24 102.5t76 30.5q39 0 78 -27q-9 -34 -16 -168q89 -8 167 -36 t131.5 -79.5t53.5 -115.5q0 -53 -53.5 -92t-141.5 -35q-32 170 -159 207q-3 -147 -3 -355v-114q8 -3 119 -52q86 -37 142 -71.5t101 -82t66 -110t21 -145.5q0 -90 -37.5 -163t-102.5 -120.5t-143.5 -76.5t-169.5 -40q-7 -107 -27 -151.5t-79 -44.5q-48 0 -76 45 q19 75 21 147q-77 4 -149 21t-134 46.5t-99.5 77t-37.5 105.5zM387 995q0 -115 113 -196q0 261 2 370q-55 -23 -85 -70t-30 -104zM662 4q65 20 107 64t42 116q0 64 -37 107.5t-110 81.5q0 -316 -2 -369z" />
<glyph unicode="%" horiz-adv-x="1748" d="M113 1036q0 134 92.5 214.5t224.5 80.5q130 0 224 -82t94 -213q0 -135 -93.5 -215t-224.5 -80q-133 0 -225 78t-92 217zM168 -51q172 194 434 498.5t444 513t275 303.5q77 77 129 77q60 0 111 -102q-235 -315 -595 -755t-536 -609q-68 -68 -133 -68q-51 0 -81 34t-48 108 zM334 1049q0 -60 23.5 -102t72.5 -42q47 0 72.5 45t25.5 99q0 143 -94 143q-50 0 -75 -39.5t-25 -103.5zM999 98q0 134 93 214.5t225 80.5q129 0 223 -82t94 -213q0 -135 -93 -215t-224 -80q-133 0 -225.5 78.5t-92.5 216.5zM1221 111q0 -60 23.5 -102t72.5 -42 q47 0 72.5 45t25.5 99q0 143 -94 143q-50 0 -75 -39.5t-25 -103.5z" />
<glyph unicode="&#x26;" horiz-adv-x="1546" d="M61 426q0 78 25 150.5t73.5 137t98.5 114.5t119 108q-29 116 -29 221q0 167 97.5 267t232.5 100q106 0 188 -72t82 -197q0 -50 -17.5 -100t-39.5 -87t-66 -85t-71.5 -74t-81.5 -74q-19 -17 -29 -26q130 -215 377 -383q103 150 139 303q64 0 90.5 -23.5t26.5 -72.5 q0 -30 -32 -115t-87 -176q142 -78 291 -117q-3 -23 -8 -46t-19 -56t-32.5 -57.5t-50.5 -42t-72 -17.5q-112 0 -287 117q-189 -170 -424 -170q-218 0 -356 137t-138 336zM377 395q0 -118 60.5 -187t152.5 -69q115 0 246 94q-211 188 -342 418q-117 -147 -117 -256zM524 1210 q0 -57 15 -145q66 53 107 93t70 88.5t29 94.5q0 28 -18 47t-51 19q-52 0 -101.5 -52.5t-50.5 -144.5z" />
<glyph unicode="'" horiz-adv-x="409" d="M98 1384q0 63 23 85t96 22t94 -20.5t21 -86.5q0 -89 -37 -266q-15 -74 -30.5 -94t-57.5 -20t-57 20.5t-27 91.5q-25 157 -25 268z" />
<glyph unicode="(" horiz-adv-x="768" d="M106 733q0 140 40 299.5t101.5 289.5t142.5 216t157 86q46 0 73 -33t35 -71q-9 -16 -33.5 -61.5t-36 -68t-34 -71.5t-34.5 -85t-29 -94t-26.5 -113t-17 -128.5t-10.5 -153.5q-3 -104 9 -207.5t28 -174.5t48 -155t48 -119t50 -100l34 -65q-11 -28 -47.5 -53t-75.5 -25 q-82 0 -161.5 85t-135.5 215.5t-90.5 287.5t-34.5 299z" />
<glyph unicode=")" horiz-adv-x="649" d="M18 1520q8 38 35 71t74 33q76 0 156.5 -86t142 -216t101.5 -289.5t40 -299.5q0 -142 -34.5 -299t-90.5 -287.5t-135.5 -215.5t-161.5 -85q-39 0 -75 25t-47 53l34 65q34 65 50 100t48 119t48 155t28 174.5t9 207.5q-3 80 -11 153t-17 129t-26 113.5t-29.5 94t-34.5 84.5 t-34.5 71.5t-36.5 68t-33 61.5z" />
<glyph unicode="*" horiz-adv-x="1126" d="M72 1108q0 48 59 111q58 0 242 8q-103 160 -142 207q-5 43 20.5 69.5t53.5 26.5q47 0 92 -45q1 -1 150 -172q91 118 149 200q17 23 55 27.5t73 -15t42 -59.5l-129 -217q40 2 89.5 5.5t78 5.5t41.5 2q53 -66 53 -113q0 -81 -223 -109q145 -176 170 -211q0 -52 -31.5 -79 t-74.5 -27q-66 0 -142 76q-68 65 -143 166q-168 -238 -248 -238q-36 0 -66.5 30.5t-37.5 98.5l123 164h-45q-111 0 -160 19.5t-49 68.5z" />
<glyph unicode="+" horiz-adv-x="1198" d="M131 543q0 34 14 69q143 14 344 19q-1 48 0 95t3 89t10.5 78t21.5 62t36 40.5t54 14.5q46 0 93 -41q13 -126 16 -336q45 1 88.5 0t83 -3.5t73 -11t58 -22t38 -36t13.5 -52.5q0 -48 -39 -92q-130 -14 -315 -17q-3 -203 -30 -279.5t-113 -76.5q-35 0 -70 14 q-13 126 -18 342q-205 2 -283 29t-78 115z" />
<glyph unicode="," horiz-adv-x="638" d="M160 -115q37 39 53 58t32.5 49t22.5 61q-51 23 -76.5 65t-25.5 89q0 73 47 113t117 40q67 0 110 -56t43 -144q0 -60 -40.5 -141t-101 -141t-110.5 -60q-49 0 -71 67z" />
<glyph unicode="-" horiz-adv-x="1249" d="M227 432q0 32 15 70q104 11 176.5 15t253.5 5q20 0 61.5 0.5t63.5 0.5t58.5 -1t57 -4.5t48 -9t43 -15t31 -23t22 -32.5t6.5 -43q0 -46 -35 -92q-152 -16 -360 -16q-242 0 -312 13q-98 17 -120 76q-9 23 -9 56z" />
<glyph unicode="." horiz-adv-x="612" d="M133 205q0 47 30.5 79.5t68 45t75.5 12.5q79 0 125.5 -32.5t46.5 -76.5q0 -70 -58 -139t-136 -69q-63 0 -107.5 62.5t-44.5 117.5z" />
<glyph unicode="/" horiz-adv-x="1286" d="M12 92q115 209 290.5 538t296.5 553t185 326q57 84 103 84q55 0 123 -110q-152 -347 -385.5 -819t-358.5 -652q-47 -73 -106 -73q-46 0 -81.5 37.5t-66.5 115.5z" />
<glyph unicode="0" horiz-adv-x="1183" d="M-2 567q8 181 59 330.5t131 248t183.5 152.5t218.5 54q101 0 188.5 -34t150 -93t111.5 -134.5t78 -161.5t44 -171t14 -166q-1 -180 -50.5 -330t-132 -248.5t-188 -152.5t-221.5 -54q-120 0 -222 49t-169.5 128t-114 179.5t-65.5 203.5t-15 200zM285 596 q-1 -290 89 -463.5t206 -173.5q61 0 116.5 44.5t99 125.5t69 206.5t26.5 276.5q-6 259 -95 423.5t-202 164.5q-80 0 -148.5 -71.5t-113 -211.5t-47.5 -321z" />
<glyph unicode="1" horiz-adv-x="960" d="M147 844q0 66 55.5 161.5t134 179.5t169 144t153.5 60q77 0 124.5 -82t47.5 -265q0 -81 -21.5 -345t-21.5 -439q0 -200 31 -326q-48 -64 -105 -99.5t-100 -35.5q-65 0 -89.5 56.5t-24.5 185.5q0 115 27.5 439t27.5 495q0 75 -7 111t-28 36q-16 0 -42 -22t-57.5 -64 t-65 -118.5t-56.5 -170.5q-73 -14 -112.5 14.5t-39.5 84.5z" />
<glyph unicode="2" horiz-adv-x="1282" d="M82 2q0 73 71.5 129.5t200.5 56.5q87 0 217 -36q129 138 211 350.5t82 427.5q0 132 -70.5 218.5t-177.5 86.5q-114 0 -178.5 -95t-64.5 -231q-102 -23 -166 11.5t-64 105.5q0 64 40.5 130t108 118t163 85.5t196.5 33.5q232 0 367 -133.5t135 -360.5q0 -205 -95.5 -428 t-258.5 -381q189 -32 334 57q86 -60 86 -139q0 -64 -53.5 -111t-137.5 -47q-54 0 -130.5 19.5t-122 36.5t-142.5 55q-172 -104 -365 -104q-88 0 -137 42t-49 103zM211 18q0 -30 51 -30q83 0 170 49q-83 26 -133 26q-42 0 -65 -13t-23 -32z" />
<glyph unicode="3" horiz-adv-x="1277" d="M111 92q0 56 48 95.5t117 52.5q7 -13 22 -49t26.5 -59t36 -55.5t53 -52t76 -33.5t106.5 -14q101 0 181 51t120.5 127t40.5 160q0 116 -80 202.5t-207 86.5q-27 0 -72.5 -5t-74.5 -5q-41 0 -72 17.5t-31 54.5q0 24 19 75.5t20 55.5q68 0 131 29.5t105 74.5t67 97.5 t25 99.5q0 52 -38 87.5t-91 35.5q-66 0 -119 -42.5t-106 -140.5q-72 0 -111 32.5t-39 80.5q0 74 62 126t147.5 73.5t179.5 21.5q178 0 280.5 -92.5t102.5 -224.5q0 -87 -51.5 -161.5t-150.5 -119.5q100 -15 175.5 -59t119 -107.5t64.5 -137t21 -155.5q0 -76 -24.5 -148.5 t-76 -138t-124.5 -114.5t-177.5 -78t-227.5 -29q-110 0 -219 38t-181.5 105t-72.5 142z" />
<glyph unicode="4" horiz-adv-x="1251" d="M106 530q146 225 212.5 408.5t107.5 433.5q117 23 190.5 -24t73.5 -160q0 -64 -22 -145.5t-68.5 -184.5t-83 -176.5t-100.5 -192.5l461 -2q8 204 8 332q0 251 -27 352q81 35 125 35q84 0 131 -46.5t47 -133.5q0 -191 -12 -397t-12 -338q0 -59 -1 -136t-1 -108t2 -71 t7 -61.5t15 -41.5q-64 -41 -151 -41q-150 0 -150 150q1 56 12 346l-532 -6q-38 0 -75 9.5t-74 31.5t-60 65t-23 102z" />
<glyph unicode="5" horiz-adv-x="1210" d="M106 96q0 59 52 102.5t112 43.5q59 -134 125 -188t164 -54q128 0 214.5 100t86.5 265q0 77 -29.5 139.5t-78 100.5t-107 58.5t-119.5 20.5q-25 0 -55.5 -2.5t-51.5 -6t-56.5 -9t-51.5 -7.5q-94 140 -94 392q0 56 4.5 94t17.5 76.5t38 62t65.5 42.5t101 27.5t142.5 8.5 q34 0 126.5 -4t145.5 -4q126 0 207 18q45 -45 45 -92q0 -50 -31 -89.5t-86 -39.5q-99 0 -241 20.5t-179 20.5q-124 0 -124 -166q0 -74 26 -172q70 8 111 8q155 0 281 -62.5t200 -179.5t74 -268q0 -100 -38.5 -194.5t-107.5 -170t-174.5 -122.5t-228.5 -49q-220 -4 -353 81 t-133 199z" />
<glyph unicode="6" horiz-adv-x="1230" d="M92 465q0 107 23.5 215t68 209.5t112.5 189t152 153t192 103t228 37.5q73 0 129 -37t56 -98q0 -9 -1.5 -16.5t-6.5 -16t-8 -14t-12.5 -16t-13.5 -15t-18.5 -18.5t-19.5 -19q-61 45 -139 45q-99 0 -184 -49t-143.5 -131.5t-96 -184t-50.5 -212.5q187 155 406 155 q84 0 159 -26t134.5 -75.5t94 -129t34.5 -178.5q0 -115 -42.5 -213t-114 -163.5t-165 -102.5t-196.5 -37q-116 0 -212.5 34.5t-163.5 94.5t-113 142t-67.5 176t-21.5 198zM358 401q14 -170 98 -282.5t216 -112.5q118 0 194 72t76 213t-68.5 211.5t-175.5 70.5 q-88 0 -180 -46t-160 -126z" />
<glyph unicode="7" horiz-adv-x="1122" d="M80 1290q0 25 14.5 53t38.5 46q334 -154 574 -154q182 0 346 80q42 -13 65 -34.5t23 -45.5q0 -59 -131 -109q-318 -528 -318 -979q0 -127 33 -239q-35 -23 -91.5 -38t-96.5 -15q-85 0 -130 69t-45 164q0 68 27 161.5t62 177t102.5 212t113.5 209t130 225.5 q-126 -20 -213 -20q-504 0 -504 237z" />
<glyph unicode="8" horiz-adv-x="1142" d="M49 215q0 72 24.5 135.5t72 117.5t97 95.5t119.5 87.5q-180 145 -180 320q0 80 25.5 146.5t68.5 111.5t99 76t116 45t121 14q109 0 201.5 -37.5t150.5 -111.5t58 -171q0 -91 -66.5 -176.5t-187.5 -183.5q49 -31 79 -51.5t73.5 -53t70.5 -58.5t58.5 -63t48.5 -72.5 t29 -79.5t12 -91q0 -80 -41.5 -156t-113.5 -135t-178 -95t-226 -36q-101 0 -193 25t-169 74t-123 132.5t-46 190.5zM330 190q0 -69 42 -123.5t98.5 -80t111.5 -25.5q114 0 180.5 71t66.5 163q0 51 -20.5 95.5t-64 86t-82.5 70.5t-105 71q-108 -88 -167.5 -167t-59.5 -161z M432 1057q0 -73 42 -133.5t120 -120.5q93 64 142.5 124.5t49.5 131.5q0 70 -46.5 130t-123.5 60q-47 0 -84.5 -18.5t-58 -48t-31 -61.5t-10.5 -64z" />
<glyph unicode="9" horiz-adv-x="1224" d="M59 860q0 75 22 147t67 135.5t107.5 111.5t150.5 76t190 28q114 0 208 -32t158 -88t108.5 -133t64.5 -165.5t20 -187.5q0 -206 -60 -383t-161.5 -296.5t-236.5 -187t-283 -67.5q-114 0 -167.5 35t-53.5 90q0 73 71 127q91 -64 189 -64q72 0 138 36t121.5 105.5t95 181 t54.5 253.5q-144 -154 -362 -154q-108 0 -194.5 37t-139 99t-80 137.5t-27.5 158.5zM313 885q0 -123 61.5 -208t176.5 -85q89 0 171.5 48t147.5 128q-1 120 -29.5 222t-93.5 172.5t-157 70.5q-65 0 -119 -30.5t-87.5 -80.5t-52 -111.5t-18.5 -125.5z" />
<glyph unicode=":" horiz-adv-x="610" d="M133 283q0 47 30.5 79.5t68 45t75.5 12.5q79 0 125.5 -32.5t46.5 -76.5q0 -70 -58 -139.5t-136 -69.5q-63 0 -107.5 62.5t-44.5 118.5zM133 815q0 47 30.5 79.5t68 45t75.5 12.5q79 0 125.5 -32t46.5 -76q0 -70 -58 -139.5t-136 -69.5q-63 0 -107.5 62.5t-44.5 117.5z " />
<glyph unicode=";" horiz-adv-x="612" d="M133 813q0 47 30.5 79.5t68 45t75.5 12.5q79 0 125.5 -32t46.5 -76q0 -70 -58 -139.5t-136 -69.5q-63 0 -107.5 62.5t-44.5 117.5zM141 -82q38 41 53 58.5t32.5 48t23.5 61.5q-51 24 -77 65.5t-26 88.5q0 73 47 113t117 40q68 0 111 -56t43 -144q0 -60 -40.5 -141 t-101 -141.5t-110.5 -60.5q-25 0 -43.5 19t-28.5 49z" />
<glyph unicode="&#x3c;" horiz-adv-x="976" d="M43 424q0 61 127.5 176.5t292 225.5t328.5 200q102 -25 102 -133q0 -32 -17.5 -66t-52 -68.5t-72.5 -66t-92.5 -68t-97.5 -63.5t-102.5 -64t-93.5 -59q78 -52 129.5 -87.5t131 -95t127.5 -103t84.5 -91.5t36.5 -81q0 -58 -69 -95q-114 42 -292 143.5t-324 218t-146 177.5 z" />
<glyph unicode="=" horiz-adv-x="1146" d="M141 168q0 32 15 61q172 15 462 17q22 0 66 0.5t68 0.5t63 -1t61 -4t51.5 -7.5t46.5 -13t33.5 -19.5t23.5 -27.5t7 -37.5q0 -41 -39 -80q-143 -14 -385 -14q-269 0 -345 12q-101 16 -121 71q-7 18 -7 42zM141 514q0 32 15 61q172 15 462 17q22 0 66 0.5t68 0.5t63 -1 t61 -4t51.5 -7.5t46.5 -13t33.5 -19.5t23.5 -27.5t7 -37.5q0 -41 -39 -80q-143 -14 -385 -14q-269 0 -345 12q-101 16 -121 71q-7 18 -7 42z" />
<glyph unicode="&#x3e;" horiz-adv-x="1017" d="M88 57q0 32 17.5 66t52 68.5t72.5 66t92.5 68t97.5 63.5t102.5 64t93.5 59q-77 52 -129.5 88t-131.5 95t-127.5 103t-85 92t-36.5 81q0 57 70 94q114 -42 292 -143.5t324 -218t146 -177.5t-127.5 -176.5t-292 -225.5t-328.5 -200q-102 25 -102 133z" />
<glyph unicode="?" horiz-adv-x="958" d="M100 1206q3 89 37 158.5t88.5 111.5t120.5 63.5t139 21.5q98 0 186.5 -42.5t144.5 -120.5t56 -171q0 -74 -24.5 -137.5t-65 -110.5t-82.5 -87.5t-86 -88t-67 -92.5q-50 -97 -25 -215q-56 -39 -108 -39q-62 0 -92.5 43.5t-30.5 113.5q0 66 19 123.5t49.5 100t67.5 82.5 t74 78t67.5 77.5t49.5 90.5t19 108q0 59 -37 105t-100 46q-59 0 -97 -29.5t-50 -75t-8 -96t22 -96.5q-25 -25 -66 -43t-72 -18q-55 0 -92 36t-37 103zM252 201q0 47 30.5 79.5t68 45t75.5 12.5q79 0 125.5 -32.5t46.5 -76.5q0 -70 -58.5 -139.5t-136.5 -69.5 q-63 0 -107 62.5t-44 118.5z" />
<glyph unicode="@" horiz-adv-x="1658" d="M170 563q0 91 27 177.5t83.5 163.5t136.5 135t192.5 92t244.5 34q112 0 216.5 -32t190 -92t137.5 -157t52 -216q0 -140 -83 -220.5t-189 -80.5q-81 0 -127.5 63t-51.5 152q-72 -119 -143 -172.5t-151 -53.5q-71 0 -119.5 46t-48.5 135q0 75 49.5 150.5t133.5 125 t175 49.5q76 0 126 -39.5t69 -87.5q0 -105 20 -189.5t59 -84.5q43 0 73 59.5t30 132.5q0 186 -113.5 294t-300.5 108q-91 0 -168 -26t-131 -70t-92.5 -102.5t-57 -124.5t-18.5 -136q0 -88 30.5 -170t87.5 -148t149 -105.5t206 -39.5q156 0 299 65.5t258 172.5 q18 -10 26 -15.5t17 -20t9 -34.5q0 -31 -50 -82.5t-129.5 -104t-197.5 -90.5t-236 -38q-163 0 -297 49t-218 130.5t-129.5 184t-45.5 213.5zM682 520q0 -22 10.5 -34.5t26.5 -12.5q44 0 103 66t122 196q-12 27 -45 27q-70 0 -143.5 -87t-73.5 -155z" />
<glyph unicode="A" horiz-adv-x="1841" d="M96 -340q0 221 236 756q-179 57 -203 123q-13 38 -13 111v16q0 28 1 53q0 51 -2 90q177 -87 340 -147q61 101 139 211.5t181 234.5t204.5 224t213 172t204.5 87q37 -5 67.5 -16.5t53 -25.5t39 -37.5t27.5 -43.5t18 -53.5t10 -58.5q2 -24 4 -66q1 -31 2 -54v-14 q0 -27 -1 -74t-1 -75q0 -81 -5 -312.5t-5 -379.5q0 -129 25 -234.5t55.5 -162.5t74.5 -113q-78 -102 -192 -102q-123 0 -189.5 116t-66.5 316q0 44 8 166q-143 -36 -343 -37h-14q-193 0 -364 28q-132 -331 -190 -671q-6 -37 -6 -83q0 -80 18 -188q-71 6 -118 14t-90 24.5 t-66.5 42.5t-37.5 66.5t-14 96.5zM705 586q233 -59 434 -59q104 0 198 16q5 46 17.5 151.5t19.5 165t15 143t12 148t4 115.5q0 56 -16 92.5t-41 36.5q-127 -58 -308 -278t-335 -531z" />
<glyph unicode="B" horiz-adv-x="1613" d="M10 1313q15 26 60.5 61t124.5 74t174.5 71.5t222 54t256.5 21.5q122 0 226 -15t179.5 -40.5t136 -61t99 -74.5t64 -83t36 -85t10.5 -81q0 -79 -33.5 -154.5t-86.5 -132.5t-120.5 -104.5t-135 -77t-129.5 -43.5q201 -34 314.5 -173t113.5 -312q0 -53 -14 -105t-42 -103 t-74 -94.5t-105.5 -77t-141.5 -52.5t-178 -19q-373 0 -373 199q4 51 16 94q5 -2 34 -15t40 -17t41.5 -14t53 -14t58 -8t72.5 -4q90 0 161 29t113.5 77.5t64.5 106t22 119.5q0 115 -71 198t-198 83q-34 0 -60.5 -2t-54.5 -7.5t-43 -9t-51.5 -14.5t-54.5 -16q-52 0 -82 31.5 t-30 70.5q0 42 40.5 70t116.5 28q42 0 92 -6q61 20 125.5 60t125 96.5t99 134t38.5 158.5q0 106 -65.5 178.5t-164.5 103.5t-221 31q-100 0 -199 -21q25 -36 25 -71q-103 -208 -159 -515.5t-56 -617.5q0 -230 31.5 -418.5t91.5 -293.5q-28 -17 -87.5 -27t-105.5 -10 q-51 0 -91.5 15.5t-67 39t-45.5 63.5t-29 77t-15.5 93.5t-6.5 98t-1 104.5q0 295 62.5 639.5t142.5 579.5q32 94 72 176q-187 -75 -289 -174q-48 18 -70 54q-12 20 -12 40q0 16 8 33z" />
<glyph unicode="C" horiz-adv-x="1861" d="M102 522q0 150 46 297.5t138.5 280t220.5 234t305 161t378 59.5q139 0 257 -38t196 -102t121.5 -147t43.5 -173q0 -101 -38.5 -154t-98.5 -53q-46 0 -91.5 17t-70 36t-24.5 29q1 6 19.5 42t36.5 86t18 91q0 52 -25.5 91.5t-70.5 61.5t-98 32.5t-114 10.5 q-148 0 -279.5 -49.5t-227 -133.5t-165.5 -193t-104.5 -231.5t-34.5 -246.5q0 -104 25.5 -201.5t76.5 -181.5t122.5 -146.5t170 -98t212.5 -35.5q113 0 214.5 28.5t168.5 67.5t122 88.5t81 83.5t40 60q51 0 78 -27t27 -68q0 -63 -68 -137.5t-172.5 -136t-243.5 -102.5 t-270 -41q-187 0 -355 60.5t-293.5 168.5t-199.5 266.5t-74 343.5z" />
<glyph unicode="D" horiz-adv-x="1714" d="M-47 1432q0 30 6 57q235 33 455 33h26q45 88 72 112q22 -7 40 -15.5t41.5 -23t36 -36.5t9.5 -48q202 -18 367 -69.5t279 -126t191.5 -169.5t113.5 -199.5t36 -217.5q0 -130 -45 -254t-122.5 -224t-179 -188t-215 -152.5t-230.5 -111.5t-226 -70.5t-200 -23.5 q-242 0 -275 170q231 0 447 68.5t376.5 183.5t257.5 275.5t97 336.5q0 124 -50 234.5t-141 195t-227.5 138t-302.5 63.5q-86 -232 -140.5 -520.5t-54.5 -605.5q0 -130 13 -289q-14 -4 -43 -4q-63 0 -109.5 27.5t-73 77.5t-39 112.5t-12.5 138.5q0 243 70.5 530t167.5 523 q-43 -7 -135.5 -33.5t-147.5 -26.5q-70 0 -101.5 37t-31.5 95z" />
<glyph unicode="E" horiz-adv-x="1556" d="M10 1044v7q0 129 72 241q74 116 199.5 193.5t291 122.5t342.5 45q197 0 372 -51.5t279 -137t105 -180.5q0 -99 -127 -133q-97 140 -150 195q-120 123 -292 151q-60 10 -131 10q-141 0 -254.5 -40t-182.5 -106q-69 -65 -105 -147q-34 -77 -34 -161v-9q1 -50 14 -102.5 t39 -108t73.5 -106.5t109.5 -86q125 23 246 23q275 0 297 -105q4 -14 4 -27q0 -52 -58 -87q-72 -44 -184 -44q-163 0 -385 80q-83 -43 -129 -121q-45 -75 -45 -160v-7q1 -65 33.5 -126.5t89 -110.5t141.5 -78.5t182 -29.5q106 0 207 25.5t178.5 68t130.5 81t95 79.5 q66 -20 66 -69q0 -6 -1 -13q-2 -10 -14.5 -32t-41.5 -55.5t-69.5 -68.5t-104 -71t-138 -64t-178.5 -45.5t-220 -17.5q-141 0 -264 38t-208 101.5t-134.5 147.5t-50.5 174v6q0 120 76 233q78 116 227 191q-164 85 -265 208t-104 279z" />
<glyph unicode="F" horiz-adv-x="1542" d="M39 969q0 77 25 144.5t67 120t104 98.5t128.5 80t149.5 63.5t157.5 49.5t160.5 38q185 39 446.5 95.5t334.5 72.5q122 25 183.5 53t111.5 69q75 -106 75 -215q0 -85 -44.5 -136.5t-135.5 -61.5q-143 -13 -313 -19q-478 -21 -717 -71q14 -84 14 -215q0 -126 -16 -289 q21 7 61 14q208 45 363 45q207 0 207 -96q0 -23 -25 -69.5t-57 -86.5q-100 28 -199 28q-48 0 -96 -7q-139 -16 -281 -62q-38 -327 -38 -510q0 -272 77 -417q-98 -27 -172 -27h-14q-176 13 -176 254q0 34 3.5 80t12 116t14.5 116t19.5 145.5t19.5 140.5q-57 -29 -107 -60.5 t-75.5 -49.5t-27.5 -19q5 24 9 83t16 100.5t42 68.5q1 1 9 9.5t21.5 20.5t32.5 27.5t49 34t64 35.5q24 218 24 328q0 26 -1 45q-2 64 -29 143q-242 -98 -242 -277q0 -60 50 -110q-45 -49 -97 -65q-29 -9 -54 -10q-21 0 -39 6q-40 14 -67.5 53.5t-27.5 95.5z" />
<glyph unicode="G" horiz-adv-x="2064" d="M123 578q0 146 41 286t128 266.5t210.5 221.5t300.5 151.5t387 57.5h10q109 0 216 -21q112 -21 197.5 -56t153 -77t103.5 -84q37 -43 37 -80q0 -48 -46 -97q-48 -51 -137 -65q-39 63 -91 117.5t-121 100t-158 71.5q-86 25 -180 25h-7q-131 -1 -247.5 -49.5t-200.5 -130 t-145.5 -187t-92 -221.5t-30.5 -232q0 -104 23 -201t71.5 -181.5t117.5 -147.5t166.5 -99t212.5 -36q143 0 274 45t219.5 115t141 153.5t52.5 161.5q0 65 -77 97q-50 20 -116 20q-36 0 -76 -6q-23 -3 -73.5 -9.5t-81.5 -10.5t-74 -7.5t-78 -3.5q-81 0 -124.5 33t-43.5 90 q0 77 70 162q79 -26 153 -33.5t174 -7.5q69 0 125.5 -2.5t116 -10t105 -20t87 -33.5t68.5 -50t42.5 -69t15.5 -90q0 -113 -42 -215t-113.5 -178.5t-163 -139t-192.5 -101.5t-200.5 -60t-188.5 -21q-179 0 -330.5 47.5t-258.5 129t-182.5 191t-111.5 234t-36 257.5z" />
<glyph unicode="H" horiz-adv-x="1669" d="M-70 485q0 52 80.5 111.5t214.5 116.5q41 264 41 428q0 123 -26.5 199t-89.5 145q70 88 120.5 124t96.5 36q170 0 170 -383q0 -145 -43 -461q218 59 385 59q97 0 192.5 -12.5t120.5 -36.5q28 -22 47 -47q39 287 51 403q17 166 17 183q0 57 -17 116t-61 154q29 49 76 75.5 t102 26.5q86 0 123 -70.5t37 -203.5q0 -115 -26.5 -319t-53.5 -434t-27 -410q0 -301 78 -461q-109 -27 -184 -27q-20 0 -37 2q-50 3 -86 26t-55.5 56.5t-28 84t-8.5 100t7.5 114t15.5 115t20 114.5q8 45 12 66q2 13 7 42.5t7 45.5q-200 47 -331 55q-59 5 -118 5 q-147 0 -292 -29q-6 -41 -15.5 -107t-15.5 -112t-10 -80q-33 -275 -33 -492q0 -95 15 -168q-120 30 -153 43q-118 47 -145 150q-10 36 -10 80q0 75 12.5 161.5t40.5 227.5t40 211q-56 -24 -104.5 -51.5t-70.5 -43.5t-26 -22q-28 15 -45 41.5t-17 52.5z" />
<glyph unicode="I" horiz-adv-x="1388" d="M6 1358q13 71 74 122t166 80.5t236 42.5t300 13q109 0 297.5 -4t202.5 -4q98 0 141.5 7t100.5 27q5 -23 5 -47q0 -47 -20 -96q-20 -51 -78.5 -92t-166.5 -41q-107 0 -252.5 9.5t-194.5 10.5q7 -25 6 -53q0 -23 -4 -49q-14 -88 -38 -333.5t-27 -362.5q-2 -81 -3 -155 q0 -343 50 -544q49 -3 103 -3q32 0 65 1q127 5 187.5 16.5t90.5 41.5q23 -11 41.5 -30t29 -42.5t13 -49t-9.5 -50t-35.5 -45t-68.5 -34.5t-105 -18q-35 -3 -86 -3q-92 1 -234 9q-206 12 -271 11h-9q-142 0 -237 -12.5t-199 -38.5q-38 31 -56 77q-12 33 -12 64q0 13 2 25 q7 44 51 75.5t119 32.5q34 1 68 0q146 0 282 -10q-12 39 -18 82q-12 62 -12 233q0 91 4 211q10 350 39 580q35 297 35 363v7q-412 -24 -453 -174q-49 0 -87 43q-33 37 -33 90q0 8 1 17z" />
<glyph unicode="J" horiz-adv-x="1812" d="M143 31q0 32 8 58t27.5 48.5t32 34t43 33t39.5 28.5q42 -63 104.5 -126.5t139.5 -120t168.5 -92t175.5 -35.5q232 0 375 160.5t143 433.5q0 109 -17.5 338.5t-17.5 332.5q0 91 16 176q-14 0 -43 -1t-45 -1q-66 0 -191 9.5t-181 9.5q-164 0 -248 -65q-62 -48 -62 -122 q0 -28 8 -59q-76 -49 -153 -49q-68 0 -113 40.5t-45 115.5q0 61 31.5 121.5t87.5 110.5t142 81t186 31q93 0 278.5 -26t265.5 -26q69 0 144 11q71 127 178 127q46 0 90 -24t57 -58q-4 -6 -17 -27.5t-21 -33t-22 -29.5t-31 -32.5t-38 -27.5q-43 -87 -43 -241 q0 -149 16.5 -407t16.5 -368q0 -165 -67.5 -306t-182 -236.5t-266.5 -149t-321 -53.5q-105 0 -220.5 34.5t-210 90.5t-156 134t-61.5 157z" />
<glyph unicode="K" horiz-adv-x="1482" d="M113 139v83v65q0 189 22 418.5t44 422.5t22 293q0 52 -9 142t-20 120q31 4 59 4q232 0 232 -253q0 -66 -7 -170t-21.5 -270.5t-20.5 -250.5q134 156 284 258q208 140 368.5 308t223.5 284q75 -16 137 -67.5t62 -126.5q0 -34 -31 -88.5t-84 -106.5q-30 -29 -79 -66 t-87 -63.5t-136.5 -93t-153.5 -104.5q-27 -19 -75 -50t-63 -41q87 -267 303.5 -488.5t468.5 -297.5q-77 -206 -229 -209h-2q-39 0 -107 37q-70 38 -157 115t-173 178.5t-164.5 242.5t-123.5 291q-86 -68 -136.5 -143t-64.5 -172q0 -329 72 -528q-35 -14 -91 -20 q-27 -3 -55 -3q-29 0 -59 4q-91 17 -122 97q-26 66 -27 249z" />
<glyph unicode="L" horiz-adv-x="1679" d="M-82 496q262 0 494 61q49 345 58 397q56 320 155 469q128 191 372 191q96 0 175 -101.5t79 -273.5v-8q0 -251 -179 -485q-182 -238 -468 -363q-63 -408 -153 -553q55 -6 178.5 -28.5t251.5 -38t262 -15.5q219 0 450 78q99 -104 99 -195q0 -84 -83 -135t-245 -51 q-109 0 -248 34.5t-252 77.5t-248 88t-225 60q-84 -115 -217 -115q-97 0 -151 56q-49 50 -49 140q0 10 1 21q125 28 250 31q88 177 146 469q-116 -22 -226 -22q-111 0 -175 60q-53 50 -54 123q0 14 2 28zM643 643q209 100 328 264.5t119 390.5q0 72 -30 121t-79 49 q-39 0 -72.5 -17t-61 -54t-50 -78t-42 -107t-34 -122t-30 -142t-25 -148t-23.5 -157z" />
<glyph unicode="M" horiz-adv-x="2379" d="M121 -358q0 130 68.5 381t170.5 518q24 62 54 134t79 176t100 199.5t115 194t125.5 170t131 117t131.5 45.5q54 0 96 -22t69.5 -66t47 -99t30 -130.5t16 -151t7.5 -171.5t3 -179.5t2.5 -187t6.5 -183.5q4 -84 6.5 -122.5t10 -88.5t20.5 -84q60 151 160 405 q209 531 292 686.5t187 155.5q65 0 118.5 -94.5t53.5 -249.5q0 -55 -6 -237.5t-6 -257.5q0 -158 6 -276t14.5 -185.5t25 -121t28 -75.5t34 -57.5t33.5 -58.5q-84 -97 -221 -97q-188 0 -188 394q0 123 34.5 443.5t34.5 399.5q0 110 -14 127q-4 6 -10 6q-24 0 -88 -156.5 t-130.5 -350.5t-141.5 -380.5t-116 -232.5l-2 -2q-63 -88 -153 -88q-106 0 -183 127.5t-77 366.5q0 72 26.5 408.5t26.5 572.5q0 39 -9.5 56t-31.5 17q-76 0 -185.5 -190.5t-205 -453.5t-169 -543.5t-87.5 -454.5q-3 -37 -3 -75q0 -98 19 -198q-40 4 -62.5 7t-58 8.5 t-56 10.5t-49 14.5t-44.5 20.5t-35 26.5t-28.5 34.5t-16 44t-6.5 54z" />
<glyph unicode="N" horiz-adv-x="1703" d="M102 119q0 200 46.5 564t46.5 544q0 112 -25 276q93 27 162 27q94 0 147 -49q60 -58 90 -219q24 -129 160.5 -472.5t239.5 -510.5q166 -275 241 -275q93 0 101 592q1 104 3 178t6.5 165t11.5 155t19 135.5t29 120t41 95t54.5 74t71 44t89.5 16.5q44 0 78.5 -22.5t53 -59 t27.5 -74.5t9 -75q-18 -13 -47 -28.5t-46 -25.5t-40 -36t-37.5 -63t-29 -105.5t-23.5 -163.5q-7 -77 -10.5 -181.5t-3.5 -193.5t-4.5 -191t-13 -184.5t-30 -162.5t-54 -136t-87 -94.5t-127.5 -48.5q-15 -2 -30 -2q-54 0 -110 28q-71 36 -133.5 103t-123.5 161.5t-112.5 202 t-99 223.5t-84.5 225t-67 209t-48.5 173t-26.5 119q-5 -106 -7 -247.5t-2 -242t0.5 -254t0.5 -201.5q0 -294 57 -475q-32 -22 -92 -32q-31 -5 -62 -5q-30 0 -61 5q-36 5 -62 26t-46 65t-30 120t-10 184z" />
<glyph unicode="O" horiz-adv-x="1818" d="M59 635q0 92 12.5 195t41 208.5t68 189.5t99 137.5t128.5 53.5q81 0 124 -76q-94 -99 -146 -273t-52 -382q0 -201 39 -362t107.5 -263t158.5 -156t195 -54q89 0 171.5 33.5t154.5 103.5t125.5 170.5t84.5 243.5t31 313q0 145 -23 272t-68.5 228t-120 159t-169.5 58 q-91 0 -160.5 -54.5t-103 -136.5t-33.5 -174q0 -84 28.5 -155.5t92 -121t153.5 -55.5q-13 -108 -69 -165.5t-131 -57.5q-93 0 -160 59.5t-98 152t-31 206.5q0 92 20.5 183.5t64 177t104.5 151t148.5 104.5t190.5 39q107 0 198.5 -31.5t156.5 -84.5t117 -125.5t85 -150.5 t54.5 -164t30 -162t8.5 -148q0 -202 -46 -372.5t-125 -290.5t-185.5 -203.5t-227 -123.5t-250.5 -40q-106 0 -203.5 24.5t-187 73t-162.5 126.5t-127 180.5t-83.5 240t-29.5 299.5z" />
<glyph unicode="P" horiz-adv-x="1937" d="M59 1085q0 66 36 139.5t114 146.5t186.5 131.5t267.5 95t343 36.5q242 0 443.5 -75t323 -216t121.5 -321q0 -111 -44 -219.5t-133.5 -206t-213 -171.5t-295 -117.5t-366.5 -43.5h-35q-12 -111 -12 -244q0 -239 73 -372q-99 -23 -168 -23q-21 0 -38 2q-170 10 -170 223 q0 105 63 441q-193 53 -197 137q-1 20 3.5 37.5t10.5 28.5t21 23.5t24.5 18.5t31 19t30.5 18q35 -56 111 -98q51 278 51 410q0 159 -76 252q29 27 76 47q47 22 99 24h7q48 0 82 -34q23 -20 41.5 -67.5t18.5 -100.5q0 -66 -3.5 -128t-11.5 -128.5t-13.5 -106t-18.5 -118 t-17 -107.5h6q108 0 213.5 24t199.5 73.5t166 118t114.5 164.5t44.5 206v8q0 197 -171 324.5t-474 127.5q-137 0 -270.5 -40t-225.5 -119t-92 -177q0 -40 17.5 -72t36 -47.5t54.5 -39.5q-21 -50 -71.5 -77.5t-108.5 -27.5q-89 0 -147 65t-58 156z" />
<glyph unicode="Q" horiz-adv-x="1781" d="M29 635v13q0 91 13 190q13 105 44 208.5t74 186t105.5 133.5t135.5 51q79 0 109 -74q-95 -100 -158 -312q-59 -199 -59 -392v-25q4 -161 33.5 -290t78.5 -216t116.5 -145t144.5 -84t165 -26q109 0 202 50.5t157.5 135t109 196t64.5 234.5q18 112 18 225v23 q-3 132 -24.5 246.5t-61 207.5t-104.5 147t-148 54q-51 0 -95.5 -24.5t-74.5 -64.5t-49.5 -80t-31.5 -83q-12 -1 -23 -1q-83 0 -132 47q-56 52 -56 134q0 108 106 193.5t279 85.5q142 0 257.5 -46t194 -125.5t131.5 -191t78 -238.5t27 -271v-21q0 -133 -23 -260 q-26 -137 -78 -260t-137 -223.5t-196 -161.5q14 -6 82 -34.5t97 -38t88 -27.5t114.5 -24.5t117.5 -6.5q116 0 228 63q24 -87 24 -154q0 -12 -1 -23q-5 -75 -39 -122t-80 -69.5t-101 -22.5q-58 0 -140 32.5t-169.5 82t-176 101t-185 95.5t-171.5 60q-18 -2 -55 -2 q-132 0 -250.5 34t-223 108t-180.5 183t-121.5 267.5t-49.5 351.5z" />
<glyph unicode="R" horiz-adv-x="1808" d="M-37 1098q0 72 35.5 146t112 144.5t183 125t261.5 87.5t336 33q177 0 336.5 -40.5t278 -112.5t188 -178t69.5 -230q0 -175 -128.5 -337.5t-358.5 -258.5q40 -47 164 -227q189 -268 318 -396t227 -159q-27 -123 -92 -181q-52 -47 -114 -47q-15 0 -30 3q-49 11 -99 50 t-91 90t-87.5 124t-81 135.5t-79 142t-74.5 127.5q-5 9 -23 38.5t-24.5 40t-22.5 36.5t-24.5 38t-22.5 33t-24 33.5t-22.5 26.5t-24.5 25q-152 -31 -318 -31h-24q-27 -179 -27 -359q0 -237 74 -372q-98 -23 -168 -23q-21 0 -39 2q-56 3 -93 27.5t-53 66t-21 90.5 q-2 21 -2 45q0 30 4 64q6 60 15.5 113t21.5 111q5 21 7 32q6 37 20 111t21 114q-2 1 -7 2.5t-7 2.5q-191 46 -197 124q-2 27 7.5 50t31 41.5t34 26.5t36.5 22q50 -53 131 -88l18 151q12 75 12 166v37q-2 70 -16.5 110t-56.5 91q29 27 75 47q47 22 99 24h7q48 0 81 -34 q24 -20 41.5 -67t17.5 -101q0 -198 -43 -465q137 1 250 28t185 67.5t126.5 95t82.5 104t44.5 102t20.5 80.5t4 47q0 181 -168 298.5t-465 117.5q-134 0 -265.5 -37t-222 -109t-90.5 -161q0 -36 17.5 -65t37.5 -44.5t54 -36.5q-22 -46 -82 -77t-115 -31q-93 0 -137.5 51 t-44.5 127z" />
<glyph unicode="S" horiz-adv-x="1812" d="M152 983q0 125 46.5 229t127 175.5t190.5 121t235 72.5t263 23q121 0 247 -23t232 -63.5t173 -102.5t67 -133q0 -47 -42 -86q-42 -38 -96 -56q-40 -13 -73 -14q-11 0 -21 2q-5 23 -28.5 58.5t-70.5 80t-107 82t-148.5 63.5t-185.5 26q-131 0 -255.5 -47t-205 -131 t-80.5 -181q0 -50 15.5 -94.5t40 -79.5t66 -67.5t82 -56.5t99.5 -49.5t108 -43t117 -39.5q260 -83 292 -95q250 -90 347 -199q80 -90 80 -210q0 -104 -48 -194t-128.5 -153t-186 -107.5t-222 -66t-234.5 -21.5q-279 0 -440.5 69t-161.5 178q0 79 71 150q140 -91 285.5 -147 t321.5 -56q121 0 231 40t176 106t66 137q0 40 -19.5 73t-58.5 59t-85 46t-111.5 40t-125.5 36t-139.5 38.5t-140.5 43.5q-290 98 -427.5 233.5t-137.5 333.5z" />
<glyph unicode="T" horiz-adv-x="1431" d="M90 1253q0 91 60 165.5t165 124.5t231 82t273 48q185 21 479 24t406 15q67 7 112 24t74 54q67 -26 99 -62.5t32 -72.5t-26 -63t-71 -42.5t-100.5 -25.5t-121 -14t-126.5 -5.5t-122 -1.5h-49q-41 0 -229 -4q2 -2 2 -6q-48 -213 -85.5 -520t-37.5 -586q0 -471 114 -670 q-27 -16 -83.5 -25t-102.5 -9q-91 0 -153.5 53.5t-75.5 157.5q-17 119 -17 237q0 325 58 734.5t141 617.5q-528 -50 -528 -217q0 -31 16 -56.5t35 -39.5t49 -31q-35 -41 -90.5 -66.5t-112.5 -25.5q-105 0 -160 60.5t-55 145.5z" />
<glyph unicode="U" horiz-adv-x="1783" d="M145 430q6 157 34 439.5t32 396.5v14q0 68 -9 108q-10 44 -34 101q30 45 85.5 68.5t121.5 23.5q69 0 114.5 -51.5t45.5 -155.5q0 -89 -26.5 -255.5t-55.5 -369t-33 -368.5q-1 -38 -1 -73q0 -201 39 -312q46 -131 158 -131q98 0 207 95t199 242.5t160.5 328t101.5 350.5 q28 324 82 516q18 71 69.5 110t120.5 39q43 0 92 -17t66 -40q-1 -4 -22 -55t-30.5 -77.5t-29.5 -88.5t-31 -118t-24 -133.5t-19 -168t-6 -189.5q0 -93 6.5 -187.5t23 -216t54.5 -226t93 -164.5q-47 -47 -97.5 -67.5t-118.5 -20.5q-124 0 -180 121q-50 112 -63 364 q-84 -176 -189.5 -318t-233.5 -233.5t-247 -91.5q-78 0 -147.5 29t-129.5 92.5t-101.5 156.5t-62.5 229q-16 102 -16 222q0 40 2 82z" />
<glyph unicode="V" horiz-adv-x="1865" d="M55 1272q3 89 54 139.5t131 50.5q55 0 105 -24.5t90.5 -65t79 -106t68 -133.5t60 -162t52.5 -177.5t48 -194.5t44.5 -197.5t43.5 -202.5t43 -195q8 -43 23.5 -69.5t50.5 -47.5q61 21 134.5 93.5t145 186.5t131 249.5t96 297t36.5 314.5q0 405 -227 643q11 6 31.5 17 t28.5 15.5t23.5 11.5t26 9.5t25.5 4.5t31 2q80 0 141.5 -45.5t96 -113t57 -156t29.5 -162t7 -144.5q0 -172 -45.5 -358t-118.5 -347.5t-166.5 -308.5t-188.5 -251.5t-185 -166t-156 -61.5q-49 0 -144 90t-116 150q-31 107 -87.5 347t-119.5 455q-35 125 -73 220.5t-72 157.5 t-76 109t-76.5 73.5t-81.5 52.5z" />
<glyph unicode="W" horiz-adv-x="2226" d="M-70 1128q27 18 72.5 54.5t77 61t72.5 44t75 19.5q138 0 138 -297q0 -105 -30 -416.5t-30 -427.5q0 -88 25 -139.5t65 -51.5q33 0 70 47t72.5 140.5t64.5 217.5t46.5 294.5t17.5 355.5q0 57 24.5 105.5t59.5 78.5t76 51.5t73 30.5t51 9q50 0 72 -38.5t35 -111.5 q12 -74 20.5 -206t13.5 -248.5t22 -247t43.5 -223.5t81 -154.5t132.5 -61.5q12 0 33 6t60 29.5t77 61.5t80 110.5t73.5 166.5t53 240t22.5 322q0 177 -41.5 425.5t-103.5 379.5q93 19 164 19q73 0 126 -28.5t87.5 -80.5t55 -137.5t28.5 -187.5t8 -242q-2 -103 -14 -217 t-37.5 -246.5t-62.5 -255t-95 -238t-128.5 -200.5t-168 -136t-209.5 -51q-82 0 -151.5 42.5t-117.5 112t-87.5 161t-64.5 187.5t-46.5 194t-35 177.5t-28 141t-28.5 82.5q-22 -273 -88 -592q-23 -145 -76 -273.5t-136 -215t-175 -86.5q-67 0 -117 25t-80 70t-47 95.5 t-26 114.5q-27 184 -27 692q0 324 -117 446z" />
<glyph unicode="X" horiz-adv-x="1646" d="M-148 -162.5q2 30.5 15 51.5q30 -3 56 -3q49 0 87 10q59 16 140 94q131 128 419 604q-126 220 -194 400.5t-68 273.5q0 112 72 180q64 61 153 62q10 0 21 -1q39 -386 156 -684q128 204 236.5 345.5t195.5 220.5t156 113t133 34q120 0 182 -79q44 -56 45 -136 q0 -33 -8 -70q-96 27 -154 27q-45 0 -86 -16t-84 -51.5t-87.5 -86.5t-99 -126t-115.5 -165.5t-139 -209.5q-6 -10 -9.5 -15t-9 -13t-9.5 -15l-16 -25q74 -124 163.5 -224t179.5 -165.5t172 -106.5t161 -61q5 -43 5 -81q-1 -37 -5 -71q-10 -68 -47.5 -112.5t-94.5 -44.5 q-154 0 -432 352q-119 151 -231 322q-77 -114 -279 -408q-10 -14 -36 -50.5t-35.5 -49.5t-32.5 -43t-34.5 -41t-34 -33.5t-38 -31.5t-39.5 -23t-46 -19t-49.5 -9.5t-57.5 -4.5q-45 0 -81 18t-56.5 45.5t-31 59.5t-8.5 62.5z" />
<glyph unicode="Y" horiz-adv-x="1476" d="M115 1010q0 147 27 266t69 162q101 98 313 98h25q-6 -9 -16 -26t-35 -77.5t-44 -128t-35 -176.5t-16 -225q0 -219 60.5 -330.5t175.5 -111.5q50 0 102.5 24t108.5 80.5t103 140t85 213.5t56 289q1 203 83 283q62 61 177 61q35 0 76 -6q-40 -96 -49 -239.5t-9 -583.5 q0 -176 -30.5 -333.5t-95.5 -293t-159.5 -234t-230.5 -154.5t-301 -56q-58 0 -126.5 11t-141 33t-120 65.5t-48.5 99.5q0 48 31 87t100 81q70 -101 164 -151t159 -50q91 0 165.5 23.5t128 64.5t94 102.5t66 130t42 156t23.5 172t8 185.5q-93 -193 -221 -292.5t-256 -99.5 q-94 0 -172.5 31t-132.5 86.5t-94.5 126t-63.5 155.5t-34 169t-11 172z" />
<glyph unicode="Z" horiz-adv-x="1609" d="M86 10q0 93 57 179t244 290q343 378 709 762q-110 0 -265 4t-204 4q-117 0 -188.5 -20t-119.5 -84q-124 66 -124 170q0 87 93 149t253 62q92 0 197.5 -24t180.5 -51.5t153 -46.5q55 -13 93 -13q17 0 31 2q121 88 213 88q59 0 89 -44.5t42 -162.5q-29 -10 -64.5 -28.5 t-111.5 -74t-161.5 -134t-214.5 -221t-271 -322.5q-277 -349 -377 -490q106 -20 305.5 -38.5t362.5 -18.5q267 0 465 98q36 -82 40 -144q1 -9 1 -18q0 -50 -20 -84q-22 -40 -72 -65t-114 -35t-149 -10q-174 0 -544 49t-457 49q-1 2 -8 13.5t-9.5 16t-9 17t-9.5 19.5t-9 20.5 t-9 23.5t-7 24.5t-6 27.5t-3.5 29t-1.5 32z" />
<glyph unicode="[" horiz-adv-x="813" d="M166.5 747.5q-0.5 304.5 15 555.5t47.5 294q88 29 234 29q106 0 167.5 -26.5t61.5 -73.5q0 -25 -26 -82h-240q4 -140 4 -705q0 -556 -10 -671l248 -5q24 -30 18.5 -77.5t-41.5 -71.5q-52 -35 -192 -35q-78 0 -156 9.5t-119 23.5q-4 71 -7.5 301t-4 534.5z" />
<glyph unicode="\" horiz-adv-x="1136" d="M43 1432q23 59 49.5 84.5t61.5 25.5q57 0 120 -88q78 -108 216 -321.5t275 -433t328 -526.5q13 -22 20.5 -33.5t19 -30t20.5 -33.5q-38 -86 -125 -86q-21 0 -39 3.5t-34.5 13.5t-26.5 16t-25 24.5t-19 23t-19.5 28.5t-16.5 26q-269 404 -805 1307z" />
<glyph unicode="]" horiz-adv-x="770" d="M66 1526q0 47 61.5 73.5t167.5 26.5q145 0 233 -29q32 -43 47.5 -294.5t15.5 -555.5t-3.5 -534.5t-7.5 -300.5q-41 -14 -119 -23.5t-156 -9.5q-140 0 -192 35q-36 24 -41.5 71.5t18.5 77.5l248 5q-10 115 -10 671q0 565 4 705h-240q-26 57 -26 82z" />
<glyph unicode="^" horiz-adv-x="1003" d="M-33 506q39 106 132 270.5t201 300t165 135.5t163 -118t207 -270t185 -304q-23 -96 -123 -96q-34 0 -72.5 24.5t-70.5 58.5t-73.5 91.5t-69.5 102t-70 113t-64 101.5q-62 -93 -105 -153.5t-109 -145.5t-119.5 -129.5t-90.5 -44.5q-52 0 -86 64z" />
<glyph unicode="_" horiz-adv-x="1724" d="M215 -150q0 31 23 70q164 11 281 14.5t415 4.5q35 0 105 1q271 2 370 -15q158 -26 158 -111q0 -24 -13.5 -44.5t-44.5 -45.5q-209 -17 -579 -17q-435 0 -575 22t-140 121z" />
<glyph unicode="`" horiz-adv-x="518" d="M20 1391q0 59 142 59q52 0 82 -6q41 -6 104.5 -99.5t106.5 -183.5l43 -90q0 -51 -72 -51q-46 0 -96 16q-40 11 -145 119.5t-150 192.5q-15 24 -15 43z" />
<glyph unicode="a" horiz-adv-x="1050" d="M-47 360q0 141 65 269t181.5 208.5t253.5 80.5q109 0 194.5 -67.5t104.5 -141.5q-33 -146 -33 -242q0 -127 67 -127q23 0 55.5 22.5t71.5 65t70.5 79t74.5 90t60 73.5h8q18 0 30.5 -14t12.5 -27q0 -19 -26 -70t-72.5 -115t-102.5 -123.5t-125.5 -100t-131.5 -40.5 q-47 0 -81 27t-47.5 59.5t-19.5 71.5q-42 -115 -144.5 -191.5t-203.5 -76.5q-114 0 -188 82t-74 208zM215 371q0 -35 11.5 -62.5t33.5 -27.5q54 0 116 87.5t102.5 190t53.5 174.5q-21 58 -67 58q-52 0 -112.5 -76.5t-99 -175.5t-38.5 -168z" />
<glyph unicode="b" horiz-adv-x="1110" d="M6 496q0 248 45 444q29 129 78.5 227.5t106.5 152.5t113 80.5t108 26.5q68 0 111.5 -40.5t43.5 -120.5q0 -95 -49 -250q-97 -304 -287 -539q16 -161 62.5 -271t110.5 -110q54 0 103.5 54t86.5 137q-92 29 -147.5 98t-55.5 139q0 71 73 136t167 65q81 0 126.5 -71.5 t45.5 -178.5q0 -15 -4 -61q110 25 209 99t159 163l37 51q54 -17 54 -59q0 -31 -39 -93q-86 -134 -205.5 -211.5t-245.5 -91.5q-33 -101 -88.5 -184t-137.5 -137.5t-173 -54.5q-200 0 -304 155.5t-104 444.5zM268 655q84 131 142.5 274t58.5 240q0 50 -33 50q-44 0 -83 -99 t-60.5 -226.5t-24.5 -238.5zM575 547q0 -39 28.5 -74.5t76.5 -52.5q10 52 10 86q0 52 -15 83.5t-36 31.5q-19 0 -41.5 -23.5t-22.5 -50.5z" />
<glyph unicode="c" horiz-adv-x="1003" d="M-6 449q0 88 28.5 170.5t81 150.5t136.5 109t186 41q112 0 197.5 -58t85.5 -121q0 -33 -26.5 -57t-88.5 -51q-75 129 -150 129q-57 0 -98.5 -44.5t-60.5 -108.5t-19 -136q0 -111 48 -190.5t135 -79.5q96 0 228.5 88t240 202.5t161.5 211.5q29 0 46.5 -20t17.5 -48 q0 -31 -45.5 -100t-125 -152t-175 -159.5t-209.5 -127.5t-213 -51q-94 0 -168.5 33.5t-120 90.5t-69 128t-23.5 150z" />
<glyph unicode="d" horiz-adv-x="1220" d="M-17 384q-8 39 -8 78q0 44 10 88q18 84 55 153t107 112t158 43q126 0 227 -96v35q0 155 9.5 265t32 196.5t64 129t103.5 42.5q57 0 129 -72q-106 -296 -106 -645q0 -237 40.5 -364.5t113.5 -127.5q31 0 65 20.5t61.5 48.5t60.5 76.5t54 83.5t50 92t39.5 80t31.5 68 q35 -6 56.5 -27t21.5 -45q0 -29 -26 -93.5t-75 -144t-109.5 -152t-140.5 -122t-157 -49.5q-175 0 -254 213q-41 -88 -114 -141t-175 -53q-92 0 -164 43t-108 112t-52 153zM246 457q0 -109 32.5 -161t81.5 -52q57 0 107 85t63 244q-30 59 -65.5 91t-87.5 32q-57 0 -94 -67 t-37 -172z" />
<glyph unicode="e" horiz-adv-x="1019" d="M6 504q0 119 44 226.5t130 178t195 70.5q110 0 168.5 -69t58.5 -189q0 -219 -258 -397q71 -113 193 -113q77 0 159.5 47.5t153 124.5t126.5 156.5t99 160.5q24 6 41 6q22 0 32 -9q20 -17 19 -54q0 -31 -36 -101t-103 -156.5t-149.5 -165.5t-190 -133t-209.5 -54 q-108 0 -198 38t-149.5 102.5t-92.5 150t-33 180.5zM276 598q0 -72 17 -149q72 68 112.5 135t40.5 145q0 45 -17.5 65.5t-41.5 20.5q-40 0 -75.5 -59.5t-35.5 -157.5z" />
<glyph unicode="f" horiz-adv-x="727" d="M2 342q0 108 5 216t17 236.5t36 236.5t58 199.5t86.5 144t117.5 52.5q90 0 149 -106q-10 -125 -71 -274t-132 -226q0 -104 -2 -153q143 -119 279 -119q55 0 107 21.5t80 44t57 51.5l30 30q39 0 39 -45q0 -44 -54 -92.5t-134 -80.5t-152 -32q-38 0 -65 11q79 -106 79 -351 q0 -107 -18 -212t-51 -192.5t-86 -141.5t-117 -54q-52 0 -94 36t-69.5 101.5t-46.5 144.5t-29.5 178t-14.5 188.5t-4 187.5zM260 258q-1 -85 -1 -155q0 -193 5 -280q5 -118 29 -118q19 0 46.5 59t51 168t23.5 224q0 259 -152 356q0 -26 -1 -109t-1 -145z" />
<glyph unicode="g" horiz-adv-x="1007" d="M-25 555q0 119 69.5 230t180 178t226.5 67q58 0 105.5 -20.5t47.5 -59.5q0 -20 -34.5 -44.5t-88.5 -43.5q-21 27 -47 27q-51 0 -96.5 -37.5t-73 -93t-43.5 -114.5t-16 -107q0 -76 35 -76q38 0 76.5 45.5t57.5 113.5q10 38 10 72q0 27 -7 53q125 82 164 82q106 0 135 -290 q263 143 471 143q22 0 37.5 -16t15.5 -39q0 -7 -4 -23q-249 -31 -512 -205v-53q0 -102 -17 -217t-55.5 -234.5t-92 -215t-134 -156t-174.5 -60.5q-103 0 -153 62.5t-50 165.5q0 170 116 349.5t304 332.5q0 52 -6 92q-117 -154 -252 -154q-95 0 -145 66.5t-50 179.5z M158 -354q0 -90 43 -90q39 0 75.5 62.5t63.5 163.5t45.5 199t30.5 197q-258 -268 -258 -532z" />
<glyph unicode="h" horiz-adv-x="1134" d="M4 276q0 124 16.5 265.5t50.5 284t81 258t114.5 187.5t143.5 72q77 0 120 -70t43 -159q0 -131 -83.5 -263.5t-251.5 -254.5q-9 -132 -9 -246q0 -35 3 -71.5t6 -57.5t7.5 -48t4.5 -28q5 12 21.5 55.5t35.5 92t45.5 108.5t56.5 111.5t63 93.5t71 62q25 13 50 13q12 0 25 -3 q85 -24 130 -100q-25 -98 -25 -199q0 -156 68 -156q48 0 119 62t130 137.5t124.5 159t92.5 108.5q39 0 39 -57q0 -38 -62.5 -138.5t-149.5 -207t-192.5 -189t-180.5 -82.5q-59 0 -103.5 47.5t-68 118t-29.5 154.5q-27 -99 -58.5 -183t-73 -163.5t-93 -125.5t-105.5 -46 q-48 0 -82.5 35t-54.5 99t-29.5 144.5t-9.5 179.5zM250 766q68 58 110.5 154t42.5 176q0 69 -26 69q-84 0 -127 -399z" />
<glyph unicode="i" horiz-adv-x="419" d="M16 256q0 46 4.5 171.5t4.5 207.5t-2 133q70 12 98 12q147 0 147 -155q0 -90 -6 -282.5t-6 -326.5q-58 -39 -109 -39q-35 0 -58.5 12.5t-38 33t-22 58t-10 76.5t-2.5 99zM20 1024q0 33 26 56t58.5 31.5t65.5 8.5q57 0 87 -34t30 -78q0 -52 -54 -103t-102 -51 q-53 0 -82 58.5t-29 111.5z" />
<glyph unicode="j" horiz-adv-x="782" d="M-10 -336q0 166 243 467q-28 397 -180 647q21 24 66 44t84 20q95 0 162 -124t90 -339q153 156 290 270.5t166 114.5q7 0 15 -5.5t16 -26t8 -52.5q-23 -22 -115.5 -103.5t-189.5 -171.5t-180 -176v-63q0 -201 -32 -353t-101 -242.5t-168 -90.5q-79 0 -126.5 53.5 t-47.5 130.5zM53 1077q0 44 33.5 75t78.5 43.5t95 12.5q125 0 125 -94q0 -27 -9.5 -57.5t-28 -61t-52 -50t-76.5 -19.5q-69 0 -117.5 47t-48.5 104zM113 -313q0 -36 11.5 -56t29.5 -20q41 0 62.5 99.5t21.5 258.5q-125 -171 -125 -282z" />
<glyph unicode="k" horiz-adv-x="1271" d="M-14 1380q106 60 172 60q61 0 88.5 -50t27.5 -153q0 -35 -4 -109.5t-12.5 -209t-13.5 -226.5q66 125 161 213t189 88q79 0 119.5 -47t40.5 -125q0 -74 -52 -164.5t-157 -185.5q62 -83 145.5 -146t161.5 -63q62 0 126.5 33.5t118.5 88t97.5 107t84.5 106.5t58 71 q23 -6 41.5 -23.5t18.5 -32.5q0 -14 -22.5 -59.5t-60.5 -107.5t-94.5 -129.5t-118.5 -125t-138.5 -94.5t-149.5 -37q-118 0 -231.5 84t-196.5 205q-58 -41 -156 -94v-70q0 -49 -9 -91.5t-37.5 -77.5t-73.5 -35q-58 0 -113 38q39 148 39 584q0 165 -1.5 264.5t-13 255.5 t-34.5 258zM233 420q49 34 95 73t92.5 87t75 99t28.5 95q0 11 -5.5 20t-14.5 9q-46 0 -132.5 -129t-138.5 -252v-2z" />
<glyph unicode="l" horiz-adv-x="849" d="M2 588q0 208 67 409.5t172 326t210 124.5q66 0 104.5 -49t38.5 -119q0 -63 -22 -147t-50 -156t-80.5 -177.5t-84.5 -165t-91 -165.5q11 -129 48 -205t100 -76q45 0 107.5 43.5t121 104.5t117.5 134t96 125.5t57 84.5q32 1 51 -16t19 -46q0 -24 -39.5 -91.5t-109 -153.5 t-152.5 -166.5t-183.5 -135.5t-187.5 -55q-77 0 -137.5 46t-97.5 126t-55.5 181.5t-18.5 218.5zM268 725q83 151 138 309.5t55 247.5q0 37 -21 37q-38 0 -75 -96.5t-62 -230t-35 -267.5z" />
<glyph unicode="m" horiz-adv-x="1783" d="M-20 166q4 49 15.5 150t15.5 158q5 57 7 137q1 17 0 33q0 62 -8 114q-10 66 -30 127q58 55 133 55q153 0 153 -307q0 -106 -16 -207q88 196 115 247q92 171 196 213q41 17 86 17q86 0 132 -67t46 -177q0 -46 -2 -71q64 147 136 222t182 75q76 0 121 -50t45 -135 q0 -48 -8.5 -156t-8.5 -155q0 -166 103 -166q61 0 138 41t150.5 106t140 142.5t115.5 153.5q68 0 68 -50q0 -22 -27 -69.5t-73 -107.5t-115 -123t-146 -116t-173.5 -86.5t-190.5 -33.5q-105 0 -168 63t-63 197q0 71 12 176t12 141q0 23 -12 23q-9 0 -18 -6.5t-18.5 -21 t-17.5 -29.5t-19 -41t-18.5 -45t-20.5 -52t-21 -53q-24 -63 -44.5 -107.5t-48.5 -91t-59 -70.5t-65 -24q-81 0 -133 80q1 3 6.5 35t10 62.5t10 74.5t8.5 93t3 96q0 135 -20 135q-19 0 -52 -63.5t-75 -153.5t-91.5 -180.5t-115 -154t-131.5 -63.5q-88 0 -151 66z" />
<glyph unicode="n" horiz-adv-x="1384" d="M23 922q72 65 155 65q54 0 88.5 -35.5t34.5 -107.5q0 -18 -6 -133t-6 -183q58 102 110 175.5t88.5 111.5t73 59.5t58.5 26t49 4.5q55 0 95 -16.5t62.5 -41.5t35 -66t16.5 -79t4 -90q0 -59 -3.5 -151t-3.5 -125q0 -79 12.5 -117.5t47.5 -38.5q33 0 97.5 35.5t139.5 95 t152 152t125 190.5q22 5 39 5q53 0 53 -48q0 -28 -30.5 -84.5t-82 -125t-124 -140.5t-151 -131t-169 -97t-172.5 -38q-37 0 -66.5 8t-58 31.5t-47 62t-30 103t-11.5 151.5q0 78 10 219.5t10 157.5q0 43 -16 43q-12 0 -31 -12t-53 -53t-70 -105.5t-80.5 -185t-84.5 -275.5 q-37 -18 -82 -18q-46 0 -79 15.5t-51.5 38t-28.5 60.5t-12.5 72t-2.5 82q0 81 8 202t8 167q0 88 -20 164z" />
<glyph unicode="o" horiz-adv-x="1122" d="M-23 461q0 116 54.5 198t148.5 82h4q12 109 84.5 166.5t180.5 57.5q100 0 171.5 -55.5t103.5 -140.5t32 -189q0 -42 -6 -86q53 -39 124 -39q79 0 165.5 66.5t154.5 183.5q6 -2 15.5 -6.5t25.5 -22t16 -39.5q0 -40 -35 -95.5t-90.5 -106.5t-134 -86.5t-155.5 -35.5 q-74 0 -125 31q-49 -120 -142.5 -194.5t-222.5 -75.5h-5q-88 0 -159 34q-73 34 -116.5 91.5t-66 125t-22.5 136.5zM233 342q0 -62 36 -111t87 -49q50 0 85 56.5t49 129t14 146.5q0 78 -13.5 139.5t-52 105.5t-98.5 44q-55 0 -98 -72q82 -34 82 -151q0 -32 -11 -82 q-38 -14 -59 -58t-21 -98z" />
<glyph unicode="p" horiz-adv-x="983" d="M-12 1014q78 69 145 69q52 0 82.5 -43.5t30.5 -128.5q0 -89 -15 -129q233 197 361 197q87 0 141 -45q64 -50 64 -150q0 -43 -17 -106q121 22 240 22q67 0 104 -14t37 -37q0 -25 -35 -45q-199 0 -393 -41q-66 -125 -172.5 -218t-175.5 -93q-38 0 -58 23.5t-20 60.5 q0 190 281 293q18 63 18 98q0 66 -63 66q-34 0 -70 -21t-75 -76t-69.5 -137.5t-50.5 -219t-20 -306.5q0 -220 39 -504q-83 -18 -137 -18q-101 0 -136 79q-26 60 -26 201q0 41 2 88q27 509 27 750v46.5v45.5t-0.5 38.5t-1.5 41.5t-3 36.5t-5 42t-7 39t-9.5 47t-12.5 48.5z M399 356q0 -14 9 -14q11 0 46.5 46.5t71.5 109.5q-127 -62 -127 -142z" />
<glyph unicode="q" horiz-adv-x="1105" d="M-33 418q1 153 92 285.5t236.5 208t306.5 75.5q61 0 93 -27.5t32 -66.5q0 -52 -49 -82q-33 23 -80 23q-81 0 -177 -61t-163.5 -156.5t-67.5 -184.5q0 -61 48 -61q58 0 136 77.5t118 194.5q45 51 126 51q50 0 84.5 -27t34.5 -81q0 -27 -18.5 -84t-42 -121.5t-47 -173.5 t-31.5 -225q-2 -36 -2 -73q0 -81 8 -167q48 150 104 284t107.5 230.5t104.5 178t97 133.5t81.5 88t60.5 51.5t33 15.5q22 0 35.5 -14.5t11.5 -32.5q-84 -91 -162 -201.5t-155.5 -251.5t-141 -316t-100.5 -362q-64 -55 -145 -55q-31 0 -55.5 15t-40.5 37.5t-27.5 61t-17 71.5 t-9 84t-4 84.5t-0.5 84.5q0 252 31 410q-65 -70 -136.5 -104.5t-132.5 -34.5q-81 0 -128.5 63t-47.5 156z" />
<glyph unicode="r" horiz-adv-x="942" d="M-72 829q0 47 17 87.5t43.5 67t58.5 45.5t61 27.5t52 8.5q52 0 82 -26.5t30 -75.5q0 -69 -59 -187q38 -8 103.5 -17t114 -16.5t98 -20t76 -35t26.5 -54.5q0 -37 -28.5 -96.5t-62.5 -113.5t-62.5 -121t-28.5 -116q0 -45 25 -70.5t67 -25.5q28 0 57 11.5t55.5 29t56 47.5 t53.5 57.5t53.5 69.5t50 73t48.5 78.5t44 75.5t42 74.5t37 65.5q58 -14 58 -70q0 -12 -23.5 -63.5t-64 -126.5t-101 -158t-128 -153.5t-153 -117t-167.5 -46.5q-133 0 -212 77t-79 181q0 60 18 120.5t35 92t52 86t40 63.5q-385 50 -385 272zM90 868q0 -30 19 -49 q41 90 41 137q0 27 -9 27q-13 0 -32 -39.5t-19 -75.5z" />
<glyph unicode="s" horiz-adv-x="770" d="M-4 141q0 114 197 254q-77 71 -102 103q-64 80 -64 172q0 82 49 142.5t127 86.5q79 22 140 22q19 -1 37 -3q72 -10 103 -44q-1 -64 -57 -106q-48 -36 -134 -36q-14 0 -30 1q-4 -8 -4 -18q0 -54 137 -146q29 -18 43 -32q118 57 227 91t171 34q61 0 61 -47q0 -9 -2 -19 q-156 -20 -383 -129q66 -81 66 -172q0 -121 -114 -205q-105 -78 -262 -79q-13 0 -26 1q-86 3 -133 37.5t-47 91.5zM109 141q0 -16 30 -16q51 0 99.5 36.5t48.5 90.5q0 34 -23 67q-155 -112 -155 -178z" />
<glyph unicode="t" horiz-adv-x="894" d="M-104 948q0 38 18 88q75 -18 201 -24q53 281 53 432q74 0 114 -5t73.5 -24t46 -57t12.5 -103q0 -75 -39 -251h303q-3 -21 -21 -72q-9 -27 -27 -39.5t-84 -21.5t-200 -11q-53 -285 -53 -477q0 -238 164 -238q62 0 123 31.5t109.5 81.5t91.5 109.5t75.5 120t54.5 107.5 t35 76q4 11 6 15q74 0 74 -57q0 -19 -11.5 -61t-36.5 -101.5t-59.5 -123.5t-85.5 -127.5t-108.5 -113.5t-134 -81t-158.5 -31q-86 0 -153 27t-109 71t-69.5 107t-38.5 130t-11 144q0 174 39 393h-113q-40 0 -60.5 23t-20.5 63z" />
<glyph unicode="u" horiz-adv-x="1120" d="M-6 893q102 16 137 16q74 0 101.5 -36.5t27.5 -114.5q0 -27 -9 -152t-9 -186q0 -57 12.5 -87t46.5 -30q17 0 40.5 12t70 58.5t94.5 122.5q14 196 14 241q0 96 -14 156q10 1 27.5 2.5t32 2.5t26.5 1q82 0 123 -47t41 -170q0 -20 -11.5 -126.5t-11.5 -160.5q0 -61 8 -95 t18.5 -43t26.5 -9q34 0 91.5 59t113 141.5t101.5 160t69 126.5q30 0 51 -14t21 -45q0 -20 -29.5 -83t-83 -145t-116.5 -159t-140 -130t-145 -53q-183 0 -211 213q-66 -93 -150 -154t-174 -61q-188 0 -188 248q0 25 7 144.5t7 199.5q0 116 -16 197z" />
<glyph unicode="v" horiz-adv-x="1161" d="M-16 791q86 100 209 100q88 0 130 -55.5t42 -190.5q0 -37 -5.5 -125t-5.5 -135q0 -66 9.5 -99.5t35.5 -33.5q51 0 93 119t71 293q-39 76 -39 157q0 61 19 100.5t43 53.5q1 1 10 6t13 7t12.5 5.5t17 4.5t18.5 1q59 0 97.5 -49t38.5 -145q0 -82 -31 -184q81 -62 203 -62 q90 0 152.5 33t123.5 98q14 0 27.5 -15.5t13.5 -27.5t-13 -34t-42 -50t-67.5 -53t-96.5 -42t-123 -17q-122 0 -217 53q-77 -204 -186 -330.5t-203 -126.5q-35 0 -63.5 19t-51.5 57.5t-41.5 86.5t-39.5 117t-41 136.5t-50.5 158t-62.5 169.5z" />
<glyph unicode="w" horiz-adv-x="1507" d="M25 532q0 97 7.5 167.5t28 134.5t62 97.5t102.5 33.5q54 0 133 -31q-61 -153 -61 -350q0 -379 100 -379q51 0 80 69.5t29 165.5q0 92 -12 178q45 31 96 31q31 0 52.5 -9.5t34.5 -25t20.5 -45t11 -59t6.5 -78.5q8 -126 24 -178.5t56 -52.5q47 0 80 48t46 111t13 129 q0 32 -2 62.5t-6 56.5t-8 48t-11 43t-11.5 35.5t-12.5 31.5t-11.5 24.5t-11 22t-8.5 16.5q51 54 127 54q96 0 145 -99q46 -85 108 -125.5t120 -40.5q24 0 47.5 4t42.5 11t35.5 14t31 16.5t23.5 16t17.5 13t9.5 7.5q11 0 21.5 -11.5t10.5 -29.5q0 -45 -79.5 -92t-165.5 -47 q-111 0 -189 66q-1 -87 -24 -173.5t-66 -161t-114 -121t-158 -46.5q-149 0 -224 164q-53 -104 -125.5 -151.5t-144.5 -47.5q-91 0 -154.5 67t-92.5 173.5t-29 242.5zM1049 731z" />
<glyph unicode="x" horiz-adv-x="872" d="M-68 92q89 51 157 111.5t151 169.5q16 20 22 30q-92 92 -148.5 184.5t-56.5 168.5t52.5 135t109.5 59q34 0 55 -14q28 -16 48 -45q0 -52 -54 -137q21 -65 117 -168q27 43 60 99.5t51 87t42 65.5t42 52.5t41 30t49 13.5h10q34 0 70 -16q42 -20 61 -60q-76 -66 -146 -159 t-159 -230q150 -130 336 -227q-4 -49 -39.5 -88t-75.5 -39q-52 0 -144 48.5t-190 125.5q-105 -162 -181.5 -244t-150.5 -82q-46 0 -81 34t-48 95z" />
<glyph unicode="y" horiz-adv-x="1034" d="M-4 932q33 29 110 29q57 0 96.5 -26t39.5 -83q0 -13 -8.5 -88t-8.5 -129q0 -141 62 -141t100 117q37 114 37 307v10q24 20 63.5 29.5t73.5 9.5q36 0 61 -13.5t39 -33.5t21.5 -57t9.5 -72t2 -89q0 -62 -4 -172q164 99 316 166.5t184 67.5q28 0 44 -23.5t13 -50.5 q-296 -115 -567 -301q-21 -203 -68 -368.5t-103 -266.5t-120 -170t-116 -96t-93 -27q-69 0 -116.5 61.5t-47.5 172.5q0 331 420 661q8 65 8 136v4q-57 -89 -121.5 -131.5t-125.5 -42.5q-65 0 -111 50t-66 123.5t-20 159.5q0 29 2 81t2 77q0 62 -8 119zM125 -332 q0 -71 45 -71q41 0 88 87.5t85.5 216t64.5 271.5q-283 -269 -283 -504z" />
<glyph unicode="z" horiz-adv-x="1128" d="M41 -346q0 117 124.5 293t330.5 340q-57 101 -267 141q-15 26 -15 48q0 34 36 59q114 76 166.5 136.5t52.5 94.5q0 25 -25 25q-24 0 -98 -6.5t-115 -6.5q-178 0 -178 101q0 51 66 157q45 -43 144 -75.5t190 -32.5q108 0 172.5 -38.5t64.5 -109.5q0 -57 -56.5 -127.5 t-150.5 -126.5q45 -6 99.5 -34.5t101.5 -73.5q152 96 308.5 168.5t238.5 72.5q45 0 59.5 -23t14.5 -61q-213 -47 -543 -262q41 -77 41 -163q0 -121 -59 -244.5t-147.5 -213.5t-194.5 -147t-199 -57q-74 0 -118 41t-44 125zM182 -334q0 -39 31 -39q27 0 79 46t105 115t92 165 t39 182v6q-152 -129 -248 -261t-98 -214z" />
<glyph unicode="{" horiz-adv-x="847" d="M86 768q1 29 14 46t30.5 23.5t41.5 23.5t41 42q44 66 66 209q6 37 11 91t8 94.5t11.5 90.5t19.5 86.5t33 73t52.5 59.5t77.5 37.5t108 14.5q78 0 120 -22.5t42 -61.5q0 -28 -31 -64q-29 13 -61 13q-40 0 -63.5 -35.5t-33 -93.5t-15 -130t-15 -149t-27.5 -145t-58.5 -123 t-101.5 -80q57 -25 93.5 -79.5t51 -120.5t21.5 -140.5t10.5 -143.5t11.5 -125t30.5 -90t62.5 -34q34 0 61 12q29 -33 29 -61q0 -42 -39.5 -69.5t-120.5 -27.5q-57 0 -102.5 17t-76 42.5t-53.5 68.5t-35.5 81.5t-20.5 96.5t-11 98t-6 100q-4 88 -23.5 151.5t-44.5 94.5 t-49.5 51t-41.5 38t-17 40z" />
<glyph unicode="|" horiz-adv-x="712" d="M219 -8q0 169 7 627.5t7 680.5q0 44 1.5 105t1.5 76v94q65 29 116 29q64 0 96.5 -40t34.5 -91v-101q0 -118 -8 -417t-8 -549v-422v-95q-64 -45 -135 -45q-63 0 -88 36t-25 112z" />
<glyph unicode="}" horiz-adv-x="847" d="M86 1575q0 39 42 61.5t120 22.5q61 0 108 -14.5t77.5 -37.5t52.5 -59.5t33 -73t19.5 -86.5t11.5 -90.5t8 -94.5t11 -91q22 -143 66 -209q17 -25 41 -42t41.5 -23.5t30.5 -23.5t14 -46q0 -22 -17 -40t-41.5 -38t-49.5 -51t-44.5 -94.5t-23.5 -151.5q-3 -60 -6 -100 t-11 -98t-20.5 -96.5t-35.5 -81.5t-53.5 -68.5t-76 -42.5t-102.5 -17q-81 0 -120.5 27.5t-39.5 69.5q0 28 29 61q27 -12 61 -12q40 0 62.5 34t30.5 90t11.5 125t10.5 143.5t21.5 140.5t51 120.5t93.5 79.5q-61 25 -101.5 80t-58.5 123t-27.5 145t-15 149t-15 130t-33 93.5 t-63.5 35.5q-32 0 -61 -13q-31 36 -31 64z" />
<glyph unicode="~" horiz-adv-x="1218" d="M59 446q0 68 50 131t126 99.5t152 36.5q56 0 122 -24t115.5 -53t103.5 -53t89 -24q53 0 108 34t99 95q102 -30 102 -119q0 -94 -98 -169.5t-219 -75.5q-47 0 -96 16t-90 39t-80 45.5t-80 38.5t-76 16q-47 0 -93.5 -32.5t-70 -63.5t-35.5 -55q-63 0 -96 33t-33 85z" />
<glyph unicode="&#xa1;" horiz-adv-x="651" d="M170 879q0 64 58.5 134t131.5 70q47 0 84 -32.5t54.5 -73.5t17.5 -78q0 -61 -54 -97t-126 -36q-66 0 -116 30t-50 83zM184 -367q0 125 32 507.5t67 475.5q29 33 77 33q28 0 47 -11t31 -31.5t19.5 -53.5t12.5 -72t11 -93v-3q35 -346 35 -541q0 -39 -0.5 -58.5t-2 -54.5 t-6.5 -53.5t-12.5 -45t-20 -40.5t-30 -28.5t-42.5 -20.5t-56 -6q-61 0 -104.5 24t-57.5 72z" />
<glyph unicode="&#xa2;" horiz-adv-x="956" d="M63 481q0 169 95.5 308.5t261.5 173.5q0 10 -1 26t-1 21q-4 85 29 108t102 10q5 -57 2 -159q116 -9 188 -63t72 -118q0 -57 -43 -84.5t-104 -27.5q-14 45 -46.5 73.5t-70.5 38.5q-2 -57 -2 -200q0 -74 1 -189t1 -157q113 6 162 145q62 0 99.5 -29.5t37.5 -72.5 q0 -77 -79 -139.5t-218 -75.5q-3 -126 -10 -154q-7 -25 -34 -35.5t-56.5 -4.5t-42.5 22q2 27 5 85t5 87q-111 13 -193 74.5t-121 148.5t-39 188zM317 508q0 -170 103 -236q3 109 0 269q0 139 2 225q-52 -35 -78.5 -105t-26.5 -153z" />
<glyph unicode="&#xa3;" horiz-adv-x="1357" d="M63 2q0 96 84 168t232 72h18q16 122 23 297q-135 0 -240 12q-7 23 -7.5 45t5.5 44.5t27.5 39t56.5 22.5q51 7 162 13v196q0 123 37.5 221.5t118 160t192.5 61.5q78 0 140 -22t97.5 -57t53.5 -74t18 -77q0 -39 -38 -66.5t-85 -27.5q-36 0 -73 21q0 159 -72 159 q-44 0 -68 -100t-24 -250q0 -92 -4 -137q250 0 305 -4q12 -17 17.5 -40.5t-2 -50t-29.5 -42.5q-31 -27 -303 -41q-22 -198 -76 -352q52 -19 132.5 -58t140 -60.5t114.5 -21.5q41 0 69 21.5t72 77.5q137 -30 137 -127q0 -76 -74.5 -129.5t-170.5 -53.5q-75 0 -145.5 22.5 t-116.5 51t-111.5 69t-112.5 62.5q-123 -217 -330 -217q-81 0 -125.5 51.5t-44.5 120.5zM193 2q0 -22 14 -40.5t41 -18.5q76 0 121 155h-29q-61 0 -104 -28t-43 -68z" />
<glyph unicode="&#xa4;" horiz-adv-x="1335" d="M129 1055q0 55 36 84.5t87 29.5q72 0 188 -125q109 68 242 68t236 -63q82 92 178 131q55 0 84.5 -36t29.5 -87q0 -81 -143 -205q18 -55 18 -125q0 -79 -24 -143q69 -57 106.5 -105t59.5 -102q0 -55 -36 -85t-87 -30q-73 0 -199 135q-103 -59 -227 -59q-133 0 -236 63 q-87 -100 -190 -143q-55 0 -85 36t-30 87q0 82 152 213q-21 58 -21 129t21 129q-118 98 -160 203zM510 743q0 -106 44 -174.5t126 -68.5q74 0 123 72.5t49 175.5q0 105 -44.5 172t-123.5 67q-81 0 -127.5 -69.5t-46.5 -174.5z" />
<glyph unicode="&#xa5;" horiz-adv-x="1255" d="M70 1292q32 28 84 43t102 15q78 0 129 -54q32 -32 93 -151t114.5 -232.5t64.5 -126.5q18 29 48.5 89.5t59 120t67 126.5t74.5 117t79.5 83.5t83.5 33.5q66 0 88 -29q-3 -7 -179.5 -331.5t-197.5 -383.5v-8q298 -3 365 -16q10 -51 -13 -89t-77 -42q-179 0 -283 -2 q-1 -18 -2 -56.5t-2 -58.5q308 -3 377 -16q10 -51 -13 -89t-77 -42q-132 0 -291 -3q-8 -300 -8 -350q-19 -30 -67 -45.5t-97 -15.5q-48 0 -62.5 39.5t-21.5 152.5q-4 60 -8 217q-256 -4 -355 -6q-13 20 -14.5 44t8.5 46t36 37.5t65 18.5q142 8 256 10q0 21 -1 59.5t-1 55.5 q-159 -2 -349 -7q-13 20 -14.5 44t8.5 46t36 37.5t65 18.5q143 8 252 10v27z" />
<glyph unicode="&#xa6;" horiz-adv-x="686" d="M227 -4q0 71 4.5 177.5t4.5 180.5q0 44 1 105t1 76v94q63 28 116 28q64 0 96.5 -40t34.5 -91v-100q0 -62 -4 -195t-4 -243v-94q-66 -46 -137 -46q-63 0 -88 36t-25 112zM227 961q0 83 4.5 207t4.5 137q0 44 1 104.5t1 75.5v94q65 29 116 29q64 0 96.5 -40t34.5 -91v-101 q0 -1 -4 -151t-4 -273v-94q-64 -45 -137 -45q-63 0 -88 36t-25 112z" />
<glyph unicode="&#xa7;" horiz-adv-x="1126" d="M117 803q0 183 157 276q-77 111 -77 209q0 59 22 112.5t65.5 97.5t117 70.5t167.5 26.5q144 0 227 -65t83 -144q0 -35 -21 -63t-49 -40.5t-57.5 -12t-46.5 17.5q-1 76 -39.5 123t-98.5 47q-61 0 -94.5 -35.5t-32.5 -101.5q0 -42 27.5 -84.5t71.5 -81t96.5 -79.5 t105.5 -88.5t97.5 -100.5t72.5 -123t29 -148q0 -182 -158 -276q78 -113 78 -209q0 -59 -22.5 -112.5t-66 -97.5t-117 -70.5t-167.5 -26.5q-144 0 -226.5 65t-82.5 144q0 35 21 63t49 40.5t57.5 12t46.5 -17.5q1 -76 39 -123t98 -47q61 0 94.5 35.5t32.5 101.5 q0 42 -27.5 84.5t-71 81t-96.5 79.5t-106 88.5t-97 100.5t-72 123t-29 148zM360 862q0 -28 13.5 -60t32.5 -59t52.5 -64t60.5 -63t70.5 -67.5t69.5 -67.5q37 30 37 76q0 28 -13.5 60t-32.5 59t-52.5 64t-60.5 63t-70.5 67.5t-69.5 67.5q-37 -30 -37 -76z" />
<glyph unicode="&#xa8;" horiz-adv-x="747" d="M20 1210q0 18 5 33q13 26 32 46t37 30t34 16t26 7l10 1q162 -15 162 -137q0 -72 -43 -113.5t-123 -41.5q-39 0 -67.5 14t-43.5 38t-22 50.5t-7 56.5zM422 1210q0 21 4 33q13 26 32 46t37 30t34 16t26 7l10 1q91 -8 125.5 -44.5t34.5 -92.5q0 -73 -41.5 -114t-122.5 -41 q-51 0 -84 25.5t-44 59t-11 74.5z" />
<glyph unicode="&#xa9;" horiz-adv-x="1855" d="M182 662q0 108 30.5 211t93.5 195t152 160.5t215 109t273 40.5q134 0 250 -36t200.5 -100t145.5 -149.5t91 -185.5t30 -207q0 -105 -28 -207.5t-88.5 -197t-145.5 -166t-208 -114t-267 -42.5q-146 0 -269 38.5t-209.5 104.5t-147 154t-89.5 187.5t-29 204.5zM418 664 q0 -104 29.5 -193.5t79 -153t115 -109t138 -67.5t146.5 -22q76 0 149.5 22.5t140 70t117.5 114.5t81 163t30 209q0 126 -43.5 228t-115 164.5t-158.5 95.5t-179 33q-97 0 -189.5 -36t-169.5 -103t-124 -175.5t-47 -240.5zM575 684q0 67 26 134t73 123t122.5 91t166.5 35 q100 0 177 -49.5t77 -104.5q0 -28 -23 -48t-80 -44q-69 111 -135 111q-73 0 -116.5 -74t-43.5 -158q0 -108 42 -176.5t122 -68.5q39 0 72.5 26t77.5 86q47 0 73.5 -24t26.5 -60q0 -41 -31 -74t-77.5 -51t-93 -27t-85.5 -9q-169 0 -270 104.5t-101 257.5z" />
<glyph unicode="&#xaa;" horiz-adv-x="548" d="M10 1180q0 120 97 228t212 108q60 0 104 -36.5t54 -78.5q-18 -59 -18 -135q0 -60 11.5 -97t43.5 -63q0 -34 -23.5 -57t-58.5 -23q-37 0 -60.5 34.5t-25.5 86.5q-31 -56 -86 -91.5t-104 -35.5q-63 0 -104.5 45.5t-41.5 114.5zM168 1190q-3 -15 2 -29t16 -14q42 0 93.5 80 t68.5 143q-7 27 -35 27q-43 0 -91.5 -75.5t-53.5 -131.5z" />
<glyph unicode="&#xab;" horiz-adv-x="1705" d="M63 690q0 61 121 177.5t267.5 218t240.5 143.5q58 -36 58 -94q0 -41 -40 -99t-114.5 -128.5t-130.5 -118.5t-137 -113q30 -23 91 -69t100.5 -76t91 -74.5t81.5 -80t52 -77t22 -78.5q0 -108 -86 -133q-98 66 -202 147t-199 166.5t-155.5 163.5t-60.5 125zM592 690 q0 61 121 177.5t267.5 218t240.5 143.5q57 -36 57 -94q0 -41 -40 -99t-114.5 -128.5t-130.5 -118.5t-137 -113q30 -23 91 -69t100.5 -76t91 -74.5t81.5 -80t52 -77t22 -78.5q0 -108 -86 -133q-135 90 -270.5 200t-240.5 225.5t-105 176.5z" />
<glyph unicode="&#xac;" horiz-adv-x="1343" d="M92 686q0 32 21 62q214 14 616 16h89q60 2 118 1t110.5 -3t97 -9.5t77 -19t51 -31.5t18.5 -47v-364q0 -27 -26 -43.5t-64 -16.5q-34 0 -67 15t-52 43l-4 278q-138 -6 -352 -6q-385 0 -509 19t-124 106z" />
<glyph unicode="&#xad;" horiz-adv-x="1249" d="M227 432q0 32 15 70q104 11 176.5 15t253.5 5q20 0 61.5 0.5t63.5 0.5t58.5 -1t57 -4.5t48 -9t43 -15t31 -23t22 -32.5t6.5 -43q0 -46 -35 -92q-152 -16 -360 -16q-242 0 -312 13q-98 17 -120 76q-9 23 -9 56z" />
<glyph unicode="&#xae;" horiz-adv-x="1705" d="M115 1104q0 91 26.5 168t79.5 138t142 95.5t206 34.5q80 0 157 -28.5t139.5 -80t102 -131t40.5 -172.5q2 -123 -67 -224.5t-173 -154.5t-213 -53q-180 0 -310 117t-130 291zM252 1118q0 -154 90.5 -242t214.5 -88q58 0 112 22t97.5 63.5t69.5 110t26 153.5 q0 102 -43.5 176t-108.5 107.5t-141 33.5q-60 0 -116 -22t-101.5 -62.5t-72.5 -106t-27 -145.5zM340 1223q0 49 57.5 98t159.5 49q84 0 132 -35.5t48 -97.5q0 -38 -26 -78t-72 -67q3 -4 14 -18.5t17 -20.5q63 -74 102 -84q-6 -30 -22 -48t-37 -18q-8 0 -15.5 3t-15.5 10 t-14.5 13.5t-15 19t-13.5 19.5t-14 21.5t-13 20.5q-36 52 -39 55q-38 -10 -75 -10q-4 -46 -4 -68q0 -34 18 -90q-24 -6 -49 -6q-57 0 -57 55q0 11 2 24t5.5 29.5t4.5 24.5l6 37q-44 11 -47 31q0 26 29 47q11 -17 28 -25q0 13 4 41q2 18 2 129v4q-37 -19 -37 -49 q0 -18 25 -35q-4 -10 -18.5 -18t-28.5 -8q-20 0 -30.5 13t-10.5 32zM502 1104q60 5 98.5 39.5t38.5 91.5q0 76 -98 76q-17 0 -25 -2q2 -6 2 -21q0 -58 -16 -184z" />
<glyph unicode="&#xaf;" horiz-adv-x="1228" d="M209 1219q0 40 18 67q64 -4 367 -4q20 0 90 4t107 4q72 0 107.5 -16.5t35.5 -63.5q0 -64 -35 -108q-89 12 -166 12q-25 0 -72.5 -2t-62.5 -2q-17 0 -75 -3t-89 -3q-124 0 -174.5 24t-50.5 91z" />
<glyph unicode="&#xb0;" horiz-adv-x="522" d="M4 1300q0 108 73.5 172t178.5 64q103 0 178.5 -66t75.5 -170q0 -108 -74.5 -171.5t-179.5 -63.5q-106 0 -179 62.5t-73 172.5zM180 1311q0 -48 19 -81.5t57 -33.5t59 35.5t21 79.5q0 114 -76 114q-39 0 -59.5 -32t-20.5 -82z" />
<glyph unicode="&#xb1;" horiz-adv-x="1198" d="M66 131q0 30 14 62q173 14 489 16q23 0 69.5 0.5t71.5 0.5t66 -1t64.5 -4t55 -7.5t49 -13t35 -19.5t25 -27.5t7.5 -37.5q0 -41 -39 -80q-151 -14 -408 -14q-304 0 -401.5 19t-97.5 106zM66 745q0 30 14 62q142 12 358 14q-3 71 -0.5 139.5t9.5 123.5t32.5 88.5t67.5 33.5 q41 0 80 -39q14 -133 14 -344q47 1 92.5 0.5t86.5 -2.5t76 -9t61 -18.5t40.5 -31.5t14.5 -47q0 -41 -39 -80q-142 -11 -332 -14q-3 -176 -27.5 -244t-97.5 -68q-32 0 -61 15q-13 131 -15 297q-88 1 -142 3.5t-103.5 9.5t-74.5 20.5t-39.5 35.5t-14.5 55z" />
<glyph unicode="&#xb2;" horiz-adv-x="579" d="M61 1077q0 33 28 57.5t79 24.5q30 0 119 -26q61 87 61 217q0 52 -17 89.5t-50 37.5q-42 0 -67.5 -36t-25.5 -85q-41 -7 -68.5 8.5t-27.5 56.5q0 59 53 103.5t131 44.5q92 0 140.5 -60.5t48.5 -152.5q0 -63 -26 -128t-72 -118q70 -11 118 20q33 -23 33 -65 q0 -27 -19.5 -46.5t-54.5 -19.5q-43 0 -149 48q-68 -43 -143 -43q-42 0 -66.5 21.5t-24.5 51.5zM129 1071q0 -8 7.5 -14t19.5 -6q40 0 75 24q-51 19 -71 19q-14 0 -22.5 -6.5t-8.5 -16.5z" />
<glyph unicode="&#xb3;" horiz-adv-x="493" d="M45 1094q0 24 19.5 44t56.5 27q33 -88 108 -88q43 0 69 29.5t26 67.5q0 35 -23 60.5t-65 25.5h-43q-36 0 -44.5 28t11.5 53q52 0 84 32.5t32 70.5q0 19 -11 32t-29 13q-31 0 -86 -62q-48 10 -48 48q0 40 41 62t88 22q61 0 104.5 -29t43.5 -86q0 -32 -20.5 -60t-59.5 -45 q71 -10 107 -50t36 -97q0 -78 -63 -137.5t-174 -59.5q-73 0 -116.5 30.5t-43.5 68.5z" />
<glyph unicode="&#xb4;" horiz-adv-x="552" d="M20 1071q7 15 19 39t46 86.5t65 111.5t68 90.5t63 45.5q30 6 81 6q142 0 142 -59q0 -19 -15 -43q-45 -83 -152.5 -192t-148.5 -120q-50 -16 -96 -16q-72 0 -72 51z" />
<glyph unicode="&#xb5;" horiz-adv-x="1173" d="M86 608q0 191 18 341t41 171q15 15 85.5 15.5t99.5 -27.5q43 -52 51 -240q7 -36 16.5 -71.5t27.5 -80t39 -77.5t52.5 -55.5t67.5 -22.5q198 0 225 352q9 120 28.5 160.5t73.5 40.5q43 0 93.5 -18.5t78.5 -48.5q2 -15 -2.5 -77t-10 -155t-5.5 -166q0 -494 22 -629 q-56 -26 -112 -26q-68 0 -102.5 32.5t-45.5 96.5q-7 40 -8.5 90.5t0.5 140.5t2 133q-90 -161 -243 -161q-124 0 -203 149v-8q-13 -220 -19 -373t-5.5 -207.5t2 -107t1.5 -66.5q-68 -24 -112 -24q-64 0 -97 60.5t-36 146.5q-23 396 -23 712z" />
<glyph unicode="&#xb6;" horiz-adv-x="1040" d="M59 1280q0 179 119 266t318 78q227 -9 374 -33q19 -61 19 -157v-95q0 -111 -7.5 -393t-7.5 -518v-397v-88q-54 -43 -110 -43q-53 0 -73.5 33.5t-20.5 105.5q0 14 6 504.5t6 728.5q0 38 1 92.5t1 69.5l-127 -2v-93q0 -111 -7 -393t-7 -518v-397v-88q-54 -43 -111 -43 q-53 0 -73.5 33.5t-20.5 105.5q0 30 4.5 374t5.5 566q-151 21 -220 100.5t-69 200.5z" />
<glyph unicode="&#xb7;" horiz-adv-x="339" d="M20 670q0 65 50.5 98t117.5 33q140 0 140 -115q0 -67 -48 -130.5t-114 -63.5q-64 0 -105 57t-41 121z" />
<glyph unicode="&#xb8;" horiz-adv-x="452" d="M6 201q0 18 14.5 28.5t34.5 10.5q13 0 44 -5.5t46 -5.5q44 0 67.5 23t23.5 63q0 16 -3 28t-12 27.5t-31 27t-55 18.5l-20 39q49 129 51 129l164 10l-58 -117q76 -15 125 -63t49 -127q0 -86 -70.5 -144.5t-166.5 -58.5q-24 0 -56 6.5t-66.5 19.5t-57.5 37t-23 54z" />
<glyph unicode="&#xb9;" horiz-adv-x="411" d="M55 1389q0 58 73 121t130 63q39 0 67.5 -35.5t28.5 -101.5q0 -31 -8 -125.5t-8 -157.5q0 -75 12 -119q-16 -24 -43.5 -35.5t-50.5 -11.5q-51 0 -51 88q0 39 10 145.5t10 168.5q0 27 -1.5 36t-8.5 9q-15 0 -39.5 -29t-40.5 -78q-36 -7 -58 12.5t-22 49.5z" />
<glyph unicode="&#xba;" horiz-adv-x="544" d="M8 1270q0 116 71.5 185t172.5 69q100 0 173 -71t73 -183q0 -114 -72.5 -183t-173.5 -69q-102 0 -173 67.5t-71 184.5zM172 1268q0 -142 80 -142q42 0 62 43t20 99q0 143 -78 143q-43 0 -63.5 -40.5t-20.5 -102.5z" />
<glyph unicode="&#xbb;" horiz-adv-x="1396" d="M63 221q0 37 22 78.5t52.5 77t82 80t91 75t100.5 75.5t91 69q-81 65 -137 113t-130.5 118.5t-114.5 128.5t-40 99q0 58 57 94q94 -42 240.5 -143.5t267.5 -218t121 -177.5t-105 -176.5t-240.5 -225.5t-270.5 -200q-87 26 -87 133zM592 221q0 37 22 78.5t52 77t81.5 80 t91 74.5t100.5 76t91 69q-81 65 -137 113t-130.5 118.5t-114.5 128.5t-40 99q0 58 58 94q94 -42 240.5 -143.5t267 -218t120.5 -177.5t-105 -176.5t-240.5 -225.5t-270.5 -200q-86 25 -86 133z" />
<glyph unicode="&#xbf;" horiz-adv-x="960" d="M90 -125q0 74 25 137.5t65 110.5t82.5 87.5t86.5 88t67 92.5q49 96 24 215q56 39 109 39q61 0 92 -44t31 -114q0 -66 -19 -123.5t-49.5 -100t-67.5 -82t-74 -77.5t-67.5 -77.5t-49.5 -90.5t-19 -108q0 -59 37 -105.5t100 -46.5q59 0 97 29.5t50 75t8 96t-22 96.5 q25 25 65.5 43.5t71.5 18.5q55 0 92 -36t37 -103q-3 -89 -37 -158.5t-88.5 -111.5t-120.5 -63.5t-139 -21.5q-98 0 -186.5 42.5t-144.5 120.5t-56 171zM365 872q0 70 58 139.5t136 69.5q63 0 107.5 -62.5t44.5 -117.5q0 -47 -30.5 -79.5t-68 -45t-75.5 -12.5 q-79 0 -125.5 32t-46.5 76z" />
<glyph unicode="&#xc0;" horiz-adv-x="1841" d="M96 -340q0 221 236 756q-179 57 -203 123q-14 42 -12.5 126.5t-1.5 143.5q177 -87 340 -147q61 101 139 211.5t181 234.5t204.5 224t213 172t204.5 87q37 -5 67.5 -16.5t53 -25.5t39 -37.5t27.5 -43.5t18 -53.5t10 -58t4.5 -66t1 -68.5t-1 -74t-0.5 -75q0 -81 -5 -312.5 t-5 -379.5q0 -129 25 -234.5t55.5 -162.5t74.5 -113q-78 -102 -192 -102q-123 0 -189.5 116t-66.5 316q0 44 8 166q-143 -36 -343.5 -37t-377.5 28q-132 -331 -190 -671q-16 -101 12 -271q-71 6 -118 14t-90 24.5t-66.5 42.5t-37.5 66.5t-14 96.5zM705 586q354 -89 632 -43 q5 46 17.5 151.5t19.5 165t15 143t12 148t4 115.5q0 56 -16 92.5t-41 36.5q-127 -58 -308 -278t-335 -531zM1167 2111q0 30 37 46t88 16q75 0 133 -37q1 -4 10 -33t15 -48t23 -57.5t36.5 -72t52 -80.5t72.5 -94q-59 -51 -100 -51q-69 0 -158 78t-149 176t-60 157z" />
<glyph unicode="&#xc1;" horiz-adv-x="1841" d="M96 -340q0 221 236 756q-179 57 -203 123q-14 42 -12.5 126.5t-1.5 143.5q177 -87 340 -147q61 101 139 211.5t181 234.5t204.5 224t213 172t204.5 87q37 -5 67.5 -16.5t53 -25.5t39 -37.5t27.5 -43.5t18 -53.5t10 -58t4.5 -66t1 -68.5t-1 -74t-0.5 -75q0 -81 -5 -312.5 t-5 -379.5q0 -129 25 -234.5t55.5 -162.5t74.5 -113q-78 -102 -192 -102q-123 0 -189.5 116t-66.5 316q0 44 8 166q-143 -36 -343.5 -37t-377.5 28q-132 -331 -190 -671q-16 -101 12 -271q-71 6 -118 14t-90 24.5t-66.5 42.5t-37.5 66.5t-14 96.5zM705 586q354 -89 632 -43 q5 46 17.5 151.5t19.5 165t15 143t12 148t4 115.5q0 56 -16 92.5t-41 36.5q-127 -58 -308 -278t-335 -531zM1239 1751q40 47 72.5 94t52 80.5t36.5 72t23 57.5t15 48t10 33q58 37 133 37q51 0 88 -16t37 -46q0 -59 -60 -157t-149 -176t-158 -78q-41 0 -100 51z" />
<glyph unicode="&#xc2;" horiz-adv-x="1841" d="M96 -340q0 221 236 756q-179 57 -203 123q-14 42 -12.5 126.5t-1.5 143.5q177 -87 340 -147q61 101 139 211.5t181 234.5t204.5 224t213 172t204.5 87q37 -5 67.5 -16.5t53 -25.5t39 -37.5t27.5 -43.5t18 -53.5t10 -58t4.5 -66t1 -68.5t-1 -74t-0.5 -75q0 -81 -5 -312.5 t-5 -379.5q0 -129 25 -234.5t55.5 -162.5t74.5 -113q-78 -102 -192 -102q-123 0 -189.5 116t-66.5 316q0 44 8 166q-143 -36 -343.5 -37t-377.5 28q-132 -331 -190 -671q-16 -101 12 -271q-71 6 -118 14t-90 24.5t-66.5 42.5t-37.5 66.5t-14 96.5zM705 586q354 -89 632 -43 q5 46 17.5 151.5t19.5 165t15 143t12 148t4 115.5q0 56 -16 92.5t-41 36.5q-127 -58 -308 -278t-335 -531zM999 1792q176 206 265.5 288.5t146.5 82.5q58 0 146.5 -81.5t265.5 -289.5q-23 -44 -48 -69t-59 -25q-44 0 -104.5 46.5t-109.5 104.5t-91 121q-64 -102 -150.5 -187 t-154.5 -85q-34 0 -59 25t-48 69z" />
<glyph unicode="&#xc3;" horiz-adv-x="1841" d="M96 -340q0 221 236 756q-179 57 -203 123q-14 42 -12.5 126.5t-1.5 143.5q177 -87 340 -147q61 101 139 211.5t181 234.5t204.5 224t213 172t204.5 87q37 -5 67.5 -16.5t53 -25.5t39 -37.5t27.5 -43.5t18 -53.5t10 -58t4.5 -66t1 -68.5t-1 -74t-0.5 -75q0 -81 -5 -312.5 t-5 -379.5q0 -129 25 -234.5t55.5 -162.5t74.5 -113q-78 -102 -192 -102q-123 0 -189.5 116t-66.5 316q0 44 8 166q-143 -36 -343.5 -37t-377.5 28q-132 -331 -190 -671q-16 -101 12 -271q-71 6 -118 14t-90 24.5t-66.5 42.5t-37.5 66.5t-14 96.5zM705 586q354 -89 632 -43 q5 46 17.5 151.5t19.5 165t15 143t12 148t4 115.5q0 56 -16 92.5t-41 36.5q-127 -58 -308 -278t-335 -531zM1018 1845q0 73 71.5 136t157.5 63q58 0 121.5 -30t115.5 -59.5t81 -29.5q16 0 31.5 8.5t26 17t24 27.5t18.5 27t16 27q60 0 91.5 -21t31.5 -59q0 -69 -69.5 -140 t-159.5 -71q-56 0 -120.5 30t-117.5 59.5t-82 29.5q-32 0 -64.5 -30.5t-51.5 -76.5q-59 0 -90 25t-31 67z" />
<glyph unicode="&#xc4;" horiz-adv-x="1841" d="M96 -340q0 221 236 756q-179 57 -203 123q-14 42 -12.5 126.5t-1.5 143.5q177 -87 340 -147q61 101 139 211.5t181 234.5t204.5 224t213 172t204.5 87q37 -5 67.5 -16.5t53 -25.5t39 -37.5t27.5 -43.5t18 -53.5t10 -58t4.5 -66t1 -68.5t-1 -74t-0.5 -75q0 -81 -5 -312.5 t-5 -379.5q0 -129 25 -234.5t55.5 -162.5t74.5 -113q-78 -102 -192 -102q-123 0 -189.5 116t-66.5 316q0 44 8 166q-143 -36 -343.5 -37t-377.5 28q-132 -331 -190 -671q-16 -101 12 -271q-71 6 -118 14t-90 24.5t-66.5 42.5t-37.5 66.5t-14 96.5zM705 586q354 -89 632 -43 q5 46 17.5 151.5t19.5 165t15 143t12 148t4 115.5q0 56 -16 92.5t-41 36.5q-127 -58 -308 -278t-335 -531zM1057 1880q0 70 45 112t112 42q70 0 109 -42t39 -100q0 -62 -43 -106.5t-123 -44.5q-69 0 -104 40.5t-35 98.5zM1458 1880q0 70 45.5 112t112.5 42q70 0 108.5 -42 t38.5 -100q0 -62 -43 -106.5t-123 -44.5q-69 0 -104 40.5t-35 98.5z" />
<glyph unicode="&#xc5;" horiz-adv-x="1841" d="M96 -340q0 221 236 756q-179 57 -203 123q-14 42 -12.5 126.5t-1.5 143.5q177 -87 340 -147q61 101 139 211.5t181 234.5t204.5 224t213 172t204.5 87q37 -5 67.5 -16.5t53 -25.5t39 -37.5t27.5 -43.5t18 -53.5t10 -58t4.5 -66t1 -68.5t-1 -74t-0.5 -75q0 -81 -5 -312.5 t-5 -379.5q0 -129 25 -234.5t55.5 -162.5t74.5 -113q-78 -102 -192 -102q-123 0 -189.5 116t-66.5 316q0 44 8 166q-143 -36 -343.5 -37t-377.5 28q-132 -331 -190 -671q-16 -101 12 -271q-71 6 -118 14t-90 24.5t-66.5 42.5t-37.5 66.5t-14 96.5zM705 586q354 -89 632 -43 q5 46 17.5 151.5t19.5 165t15 143t12 148t4 115.5q0 56 -16 92.5t-41 36.5q-127 -58 -308 -278t-335 -531zM1184 1933q0 100 66.5 156.5t156.5 56.5t155.5 -56t65.5 -157q0 -100 -66.5 -156.5t-156.5 -56.5t-155.5 56t-65.5 157zM1331 1935q0 -114 72 -114q76 0 76 114 q0 111 -72 111q-76 0 -76 -111z" />
<glyph unicode="&#xc6;" horiz-adv-x="2879" d="M96 -340q0 221 236 756q-179 57 -203 123q-14 42 -12.5 126.5t-1.5 143.5q177 -87 340 -147q61 101 139 211.5t181 234.5t204.5 224t213 172t204.5 87q75 0 117.5 -39.5t93.5 -140.5q33 15 71 27.5t67 22t77.5 19t70.5 14.5t79.5 13t72.5 10t80.5 10t73.5 9 q63 8 132 40.5t99 72.5q84 -26 124 -77t40 -114q0 -38 -20 -65.5t-64.5 -44t-84 -26.5t-111.5 -14t-111 -4.5t-117 -0.5h-33q-135 0 -223.5 -43t-133.5 -117.5t-67 -190.5q-21 -127 -24 -348q344 57 553 119t241 117q61 -30 98 -74.5t37 -83.5q0 -46 -32 -81.5t-91.5 -59 t-131.5 -40.5t-163.5 -30t-174.5 -23.5t-179 -24t-164 -28.5q-8 -95 -11.5 -163.5t-3.5 -145t8 -129t24.5 -103.5t43.5 -81t68 -48t95 -18q73 0 158 28.5t161.5 68.5t150 80.5t146.5 69t129 28.5q70 0 107 -41.5t37 -106.5q0 -54 -24 -114t-67 -109q-91 13 -154.5 8 t-142 -22.5t-143 -36.5t-158.5 -34t-188 -15q-146 0 -243 25.5t-161 86.5t-92 158t-28 244q0 127 30 352q-310 -77 -698 -25q-164 -379 -190 -665q-12 -121 12 -271q-73 6 -123 14t-100 25t-79.5 42t-48 66t-18.5 97zM748 575q128 -30 300 -35.5t316 13.5q66 440 74 582 q13 260 -90 260q-103 -39 -273.5 -274.5t-326.5 -545.5z" />
<glyph unicode="&#xc7;" horiz-adv-x="1861" d="M102 522q0 150 46 297.5t138.5 280t220.5 234t305 161t378 59.5q139 0 257 -38t196 -102t121.5 -147t43.5 -173q0 -101 -38.5 -154t-98.5 -53q-46 0 -91.5 17t-70 36t-24.5 29q1 6 19.5 42t36.5 86t18 91q0 52 -25.5 91.5t-70.5 61.5t-98 32.5t-114 10.5 q-148 0 -279.5 -49.5t-227 -133.5t-165.5 -193t-104.5 -231.5t-34.5 -246.5q0 -104 25.5 -201.5t76.5 -181.5t122.5 -146.5t170 -98t212.5 -35.5q113 0 214.5 28.5t168.5 67.5t122 88.5t81 83.5t40 60q51 0 78 -27t27 -68q0 -80 -99 -171.5t-260.5 -160.5t-326.5 -83 l-39 -80q76 -15 125 -63.5t49 -127.5q0 -87 -74 -144.5t-184 -57.5q-28 0 -58.5 6.5t-59 19t-47 36.5t-18.5 54q0 25 21 46.5t41 21.5q30 -37 86 -37q37 0 60.5 24.5t23.5 57.5q0 38 -27 70t-76 32l-20 39l41 105q-173 14 -325 80t-265 172.5t-178.5 257.5t-65.5 325z" />
<glyph unicode="&#xc8;" horiz-adv-x="1556" d="M10 1044q-2 132 72.5 247.5t199.5 193.5t290.5 123t342.5 45q197 0 372 -51.5t279 -137t105 -180.5q0 -99 -127 -133q-97 140 -150 195q-120 123 -292 151q-60 10 -131 10q-141 0 -254.5 -40t-182.5 -106t-105 -147.5t-34 -169.5q1 -50 14 -102.5t39 -108t73.5 -106.5 t109.5 -86q125 23 246 23q275 0 297 -105q18 -70 -53.5 -114t-184.5 -44q-163 0 -385 80q-83 -43 -129.5 -121.5t-44.5 -166.5q1 -65 33.5 -126.5t89 -110.5t141.5 -78.5t182 -29.5q106 0 207 25.5t178.5 68t130.5 81t95 79.5q74 -22 65 -82q-2 -10 -14.5 -32t-41.5 -55.5 t-69.5 -68.5t-104 -71t-138 -64t-178.5 -45.5t-220 -17.5q-141 0 -264 38t-208 101.5t-134.5 147.5t-50.5 174q-2 123 76 239t227 191q-164 85 -265 208t-104 279zM668 2128q0 30 37 45.5t88 15.5q75 0 133 -37q1 -4 10 -33t15 -48t23 -57.5t36.5 -72t52 -80.5t72.5 -94 q-59 -51 -101 -51q-69 0 -157.5 78t-148.5 176.5t-60 157.5z" />
<glyph unicode="&#xc9;" horiz-adv-x="1556" d="M10 1044q-2 132 72.5 247.5t199.5 193.5t290.5 123t342.5 45q197 0 372 -51.5t279 -137t105 -180.5q0 -99 -127 -133q-97 140 -150 195q-120 123 -292 151q-60 10 -131 10q-141 0 -254.5 -40t-182.5 -106t-105 -147.5t-34 -169.5q1 -50 14 -102.5t39 -108t73.5 -106.5 t109.5 -86q125 23 246 23q275 0 297 -105q18 -70 -53.5 -114t-184.5 -44q-163 0 -385 80q-83 -43 -129.5 -121.5t-44.5 -166.5q1 -65 33.5 -126.5t89 -110.5t141.5 -78.5t182 -29.5q106 0 207 25.5t178.5 68t130.5 81t95 79.5q74 -22 65 -82q-2 -10 -14.5 -32t-41.5 -55.5 t-69.5 -68.5t-104 -71t-138 -64t-178.5 -45.5t-220 -17.5q-141 0 -264 38t-208 101.5t-134.5 147.5t-50.5 174q-2 123 76 239t227 191q-164 85 -265 208t-104 279zM739 1767q40 47 72.5 94t52 80.5t36.5 72t23 57.5t15 48t10 33q58 37 133 37q51 0 88 -15.5t37 -45.5 q0 -59 -60 -157.5t-148.5 -176.5t-157.5 -78q-42 0 -101 51z" />
<glyph unicode="&#xca;" horiz-adv-x="1556" d="M10 1044q-2 132 72.5 247.5t199.5 193.5t290.5 123t342.5 45q197 0 372 -51.5t279 -137t105 -180.5q0 -99 -127 -133q-97 140 -150 195q-120 123 -292 151q-60 10 -131 10q-141 0 -254.5 -40t-182.5 -106t-105 -147.5t-34 -169.5q1 -50 14 -102.5t39 -108t73.5 -106.5 t109.5 -86q125 23 246 23q275 0 297 -105q18 -70 -53.5 -114t-184.5 -44q-163 0 -385 80q-83 -43 -129.5 -121.5t-44.5 -166.5q1 -65 33.5 -126.5t89 -110.5t141.5 -78.5t182 -29.5q106 0 207 25.5t178.5 68t130.5 81t95 79.5q74 -22 65 -82q-2 -10 -14.5 -32t-41.5 -55.5 t-69.5 -68.5t-104 -71t-138 -64t-178.5 -45.5t-220 -17.5q-141 0 -264 38t-208 101.5t-134.5 147.5t-50.5 174q-2 123 76 239t227 191q-164 85 -265 208t-104 279zM500 1808q177 207 265.5 289t145.5 82q58 0 146.5 -81.5t265.5 -289.5q-23 -44 -47.5 -69t-58.5 -25 q-44 0 -104.5 47t-110 105t-91.5 121q-64 -102 -150.5 -187.5t-154.5 -85.5q-34 0 -58.5 25t-47.5 69z" />
<glyph unicode="&#xcb;" horiz-adv-x="1556" d="M10 1044q-2 132 72.5 247.5t199.5 193.5t290.5 123t342.5 45q197 0 372 -51.5t279 -137t105 -180.5q0 -99 -127 -133q-97 140 -150 195q-120 123 -292 151q-60 10 -131 10q-141 0 -254.5 -40t-182.5 -106t-105 -147.5t-34 -169.5q1 -50 14 -102.5t39 -108t73.5 -106.5 t109.5 -86q125 23 246 23q275 0 297 -105q18 -70 -53.5 -114t-184.5 -44q-163 0 -385 80q-83 -43 -129.5 -121.5t-44.5 -166.5q1 -65 33.5 -126.5t89 -110.5t141.5 -78.5t182 -29.5q106 0 207 25.5t178.5 68t130.5 81t95 79.5q74 -22 65 -82q-2 -10 -14.5 -32t-41.5 -55.5 t-69.5 -68.5t-104 -71t-138 -64t-178.5 -45.5t-220 -17.5q-141 0 -264 38t-208 101.5t-134.5 147.5t-50.5 174q-2 123 76 239t227 191q-164 85 -265 208t-104 279zM557 1896q0 70 45.5 112t112.5 42q70 0 108.5 -41.5t38.5 -99.5q0 -62 -43 -107t-123 -45q-69 0 -104 40.5 t-35 98.5zM958 1896q0 70 45.5 112t112.5 42q70 0 109 -41.5t39 -99.5q0 -62 -43 -107t-123 -45q-69 0 -104.5 40.5t-35.5 98.5z" />
<glyph unicode="&#xcc;" horiz-adv-x="1388" d="M6 1358q13 71 74 122t166 80.5t236 42.5t300 13q109 0 297.5 -4t202.5 -4q98 0 141.5 7t100.5 27q15 -69 -15 -143q-20 -51 -78.5 -92t-166.5 -41q-107 0 -252.5 9.5t-194.5 10.5q12 -45 2 -102q-14 -88 -38 -333.5t-27 -362.5q-13 -455 47 -699q79 -5 168 -2 q127 5 187.5 16.5t90.5 41.5q23 -11 41.5 -30t29 -42.5t13 -49t-9.5 -50t-35.5 -45t-68.5 -34.5t-105 -18q-97 -7 -319.5 5.5t-280.5 11.5q-142 0 -237 -12.5t-199 -38.5q-38 31 -55.5 77t-10.5 89.5t51 75t119 32.5q183 3 350 -10q-12 39 -18 82q-18 94 -8.5 443.5 t39.5 580.5q37 313 35 370q-412 -24 -453 -174q-48 0 -86.5 43t-32.5 107zM549 2111q0 30 37 46t88 16q75 0 133 -37q1 -4 10 -33t15 -48t23 -57.5t36.5 -72t52 -80.5t72.5 -94q-59 -51 -101 -51q-69 0 -157.5 78t-148.5 176t-60 157z" />
<glyph unicode="&#xcd;" horiz-adv-x="1388" d="M6 1358q13 71 74 122t166 80.5t236 42.5t300 13q109 0 297.5 -4t202.5 -4q98 0 141.5 7t100.5 27q15 -69 -15 -143q-20 -51 -78.5 -92t-166.5 -41q-107 0 -252.5 9.5t-194.5 10.5q12 -45 2 -102q-14 -88 -38 -333.5t-27 -362.5q-13 -455 47 -699q79 -5 168 -2 q127 5 187.5 16.5t90.5 41.5q23 -11 41.5 -30t29 -42.5t13 -49t-9.5 -50t-35.5 -45t-68.5 -34.5t-105 -18q-97 -7 -319.5 5.5t-280.5 11.5q-142 0 -237 -12.5t-199 -38.5q-38 31 -55.5 77t-10.5 89.5t51 75t119 32.5q183 3 350 -10q-12 39 -18 82q-18 94 -8.5 443.5 t39.5 580.5q37 313 35 370q-412 -24 -453 -174q-48 0 -86.5 43t-32.5 107zM621 1751q40 47 72.5 94t52 80.5t36 71.5t23 57.5t14.5 48t10 33.5q58 37 134 37q51 0 87.5 -16t36.5 -46q0 -59 -60 -157t-148.5 -176t-157.5 -78q-41 0 -100 51z" />
<glyph unicode="&#xce;" horiz-adv-x="1388" d="M6 1358q13 71 74 122t166 80.5t236 42.5t300 13q109 0 297.5 -4t202.5 -4q98 0 141.5 7t100.5 27q15 -69 -15 -143q-20 -51 -78.5 -92t-166.5 -41q-107 0 -252.5 9.5t-194.5 10.5q12 -45 2 -102q-14 -88 -38 -333.5t-27 -362.5q-13 -455 47 -699q79 -5 168 -2 q127 5 187.5 16.5t90.5 41.5q23 -11 41.5 -30t29 -42.5t13 -49t-9.5 -50t-35.5 -45t-68.5 -34.5t-105 -18q-97 -7 -319.5 5.5t-280.5 11.5q-142 0 -237 -12.5t-199 -38.5q-38 31 -55.5 77t-10.5 89.5t51 75t119 32.5q183 3 350 -10q-12 39 -18 82q-18 94 -8.5 443.5 t39.5 580.5q37 313 35 370q-412 -24 -453 -174q-48 0 -86.5 43t-32.5 107zM381 1792q176 206 265.5 288.5t146.5 82.5q58 0 145.5 -81t265.5 -290q-23 -44 -47.5 -69t-58.5 -25q-44 0 -104.5 46.5t-109.5 104.5t-91 121q-64 -101 -151 -186.5t-155 -85.5q-34 0 -58.5 25 t-47.5 69z" />
<glyph unicode="&#xcf;" horiz-adv-x="1388" d="M6 1358q13 71 74 122t166 80.5t236 42.5t300 13q109 0 297.5 -4t202.5 -4q98 0 141.5 7t100.5 27q15 -69 -15 -143q-20 -51 -78.5 -92t-166.5 -41q-107 0 -252.5 9.5t-194.5 10.5q12 -45 2 -102q-14 -88 -38 -333.5t-27 -362.5q-13 -455 47 -699q79 -5 168 -2 q127 5 187.5 16.5t90.5 41.5q23 -11 41.5 -30t29 -42.5t13 -49t-9.5 -50t-35.5 -45t-68.5 -34.5t-105 -18q-97 -7 -319.5 5.5t-280.5 11.5q-142 0 -237 -12.5t-199 -38.5q-38 31 -55.5 77t-10.5 89.5t51 75t119 32.5q183 3 350 -10q-12 39 -18 82q-18 94 -8.5 443.5 t39.5 580.5q37 313 35 370q-412 -24 -453 -174q-48 0 -86.5 43t-32.5 107zM438 1880q0 70 45.5 112t112.5 42q70 0 108.5 -42t38.5 -100q0 -62 -42.5 -106.5t-122.5 -44.5q-69 0 -104.5 40.5t-35.5 98.5zM840 1880q0 70 45 112t112 42q70 0 109 -42t39 -100 q0 -62 -43 -106.5t-123 -44.5q-69 0 -104 40.5t-35 98.5z" />
<glyph unicode="&#xd0;" horiz-adv-x="1714" d="M-162 727q0 30 27 82q102 -4 330 -4q63 287 174 555q-43 -7 -135.5 -33.5t-147.5 -26.5q-70 0 -101.5 37t-31.5 95q0 30 6 57q235 33 455 33h26q45 88 72 112q22 -7 40 -15.5t41.5 -23t36 -36.5t9.5 -48q202 -18 367 -69.5t279 -126t191.5 -169.5t113.5 -199.5t36 -217.5 q0 -130 -45 -254t-122.5 -224t-179 -188t-215 -152.5t-230.5 -111.5t-226 -70.5t-200 -23.5q-242 0 -275 170q231 0 447 68.5t376.5 183.5t257.5 275.5t97 336.5q0 124 -50 234.5t-141 195t-227.5 138t-302.5 63.5q-102 -274 -148 -565q50 1 98.5 0.5t92 -2.5t81 -9.5 t64.5 -19t42.5 -31.5t15.5 -47q0 -24 -13 -58t-35 -54q-136 18 -374 18q-19 -182 -19 -358q0 -130 13 -289q-14 -4 -43 -4q-63 0 -109.5 27.5t-73 77.5t-39 112.5t-12.5 138.5q0 138 25 297q-177 3 -247.5 27.5t-70.5 95.5z" />
<glyph unicode="&#xd1;" horiz-adv-x="1703" d="M102 119q0 200 46.5 564t46.5 544q0 112 -25 276q217 64 309 -22q60 -58 90 -219q24 -129 160.5 -472.5t239.5 -510.5q166 -275 241 -275q93 0 101 592q1 104 3 178t6.5 165t11.5 155t19 135.5t29 120t41 95t54.5 74t71 44t89.5 16.5q44 0 78.5 -22.5t53 -59t27.5 -74.5 t9 -75q-18 -13 -47 -28.5t-46 -25.5t-40 -36t-37.5 -63t-29 -105.5t-23.5 -163.5q-7 -77 -10.5 -181.5t-3.5 -193.5t-4.5 -191t-13 -184.5t-30 -162.5t-54 -136t-87 -94.5t-127.5 -48.5q-69 -10 -140 25.5t-133.5 103t-123.5 162t-112.5 202t-99 223.5t-84.5 225t-67 209 t-48.5 173t-26.5 119q-5 -106 -7 -247.5t-2 -242t0.5 -254t0.5 -201.5q0 -294 57 -475q-32 -21 -92 -31.5t-123 -0.5q-36 5 -62 26t-46 65t-30 120t-10 184zM557 1767q0 73 71.5 136t157.5 63q58 0 121.5 -30t115.5 -59.5t81 -29.5q19 0 37 10t34.5 30t24.5 32.5t21 34.5 q60 0 91 -21t31 -59q0 -69 -69.5 -140t-159.5 -71q-56 0 -120 30t-117 59.5t-82 29.5q-32 0 -65 -30.5t-52 -76.5q-59 0 -90 25t-31 67z" />
<glyph unicode="&#xd2;" horiz-adv-x="1818" d="M59 635q0 92 12.5 195t41 208.5t68 189.5t99 137.5t128.5 53.5q81 0 124 -76q-94 -99 -146 -273t-52 -382q0 -201 39 -362t107.5 -263t158.5 -156t195 -54q89 0 171.5 33.5t154.5 103.5t125.5 170.5t84.5 243.5t31 313q0 145 -23 272t-68.5 228t-120 159t-169.5 58 q-91 0 -160.5 -54.5t-103 -136.5t-33.5 -174q0 -84 28.5 -155.5t92 -121t153.5 -55.5q-13 -108 -69 -165.5t-131 -57.5q-93 0 -160 59.5t-98 152t-31 206.5q0 92 20.5 183.5t64 177t104.5 151t148.5 104.5t190.5 39q107 0 198.5 -31.5t156.5 -84.5t117 -125.5t85 -150.5 t54.5 -164t30 -162t8.5 -148q0 -202 -46 -372.5t-125 -290.5t-185.5 -203.5t-227 -123.5t-250.5 -40q-106 0 -203.5 24.5t-187 73t-162.5 126.5t-127 180.5t-83.5 240t-29.5 299.5zM625 2111q0 30 37 46t88 16q75 0 133 -37q1 -4 10 -33t15 -48t23 -57.5t36.5 -72t52 -80.5 t72.5 -94q-59 -51 -101 -51q-69 0 -157.5 78t-148.5 176t-60 157z" />
<glyph unicode="&#xd3;" horiz-adv-x="1818" d="M59 635q0 92 12.5 195t41 208.5t68 189.5t99 137.5t128.5 53.5q81 0 124 -76q-94 -99 -146 -273t-52 -382q0 -201 39 -362t107.5 -263t158.5 -156t195 -54q89 0 171.5 33.5t154.5 103.5t125.5 170.5t84.5 243.5t31 313q0 145 -23 272t-68.5 228t-120 159t-169.5 58 q-91 0 -160.5 -54.5t-103 -136.5t-33.5 -174q0 -84 28.5 -155.5t92 -121t153.5 -55.5q-13 -108 -69 -165.5t-131 -57.5q-93 0 -160 59.5t-98 152t-31 206.5q0 92 20.5 183.5t64 177t104.5 151t148.5 104.5t190.5 39q107 0 198.5 -31.5t156.5 -84.5t117 -125.5t85 -150.5 t54.5 -164t30 -162t8.5 -148q0 -202 -46 -372.5t-125 -290.5t-185.5 -203.5t-227 -123.5t-250.5 -40q-106 0 -203.5 24.5t-187 73t-162.5 126.5t-127 180.5t-83.5 240t-29.5 299.5zM696 1751q40 47 72.5 94t52 80.5t36.5 72t23 57.5t15 48t10 33q58 37 133 37q51 0 88 -16 t37 -46q0 -59 -60 -157t-148.5 -176t-157.5 -78q-42 0 -101 51z" />
<glyph unicode="&#xd4;" horiz-adv-x="1818" d="M59 635q0 92 12.5 195t41 208.5t68 189.5t99 137.5t128.5 53.5q81 0 124 -76q-94 -99 -146 -273t-52 -382q0 -201 39 -362t107.5 -263t158.5 -156t195 -54q89 0 171.5 33.5t154.5 103.5t125.5 170.5t84.5 243.5t31 313q0 145 -23 272t-68.5 228t-120 159t-169.5 58 q-91 0 -160.5 -54.5t-103 -136.5t-33.5 -174q0 -84 28.5 -155.5t92 -121t153.5 -55.5q-13 -108 -69 -165.5t-131 -57.5q-93 0 -160 59.5t-98 152t-31 206.5q0 92 20.5 183.5t64 177t104.5 151t148.5 104.5t190.5 39q107 0 198.5 -31.5t156.5 -84.5t117 -125.5t85 -150.5 t54.5 -164t30 -162t8.5 -148q0 -202 -46 -372.5t-125 -290.5t-185.5 -203.5t-227 -123.5t-250.5 -40q-106 0 -203.5 24.5t-187 73t-162.5 126.5t-127 180.5t-83.5 240t-29.5 299.5zM457 1792q177 207 265.5 289t145.5 82q58 0 146.5 -81.5t265.5 -289.5q-23 -44 -47.5 -69 t-58.5 -25q-64 0 -151 85t-155 187q-64 -102 -150.5 -187t-154.5 -85q-34 0 -58.5 25t-47.5 69z" />
<glyph unicode="&#xd5;" horiz-adv-x="1818" d="M59 635q0 92 12.5 195t41 208.5t68 189.5t99 137.5t128.5 53.5q81 0 124 -76q-94 -99 -146 -273t-52 -382q0 -201 39 -362t107.5 -263t158.5 -156t195 -54q89 0 171.5 33.5t154.5 103.5t125.5 170.5t84.5 243.5t31 313q0 145 -23 272t-68.5 228t-120 159t-169.5 58 q-91 0 -160.5 -54.5t-103 -136.5t-33.5 -174q0 -84 28.5 -155.5t92 -121t153.5 -55.5q-13 -108 -69 -165.5t-131 -57.5q-93 0 -160 59.5t-98 152t-31 206.5q0 92 20.5 183.5t64 177t104.5 151t148.5 104.5t190.5 39q107 0 198.5 -31.5t156.5 -84.5t117 -125.5t85 -150.5 t54.5 -164t30 -162t8.5 -148q0 -202 -46 -372.5t-125 -290.5t-185.5 -203.5t-227 -123.5t-250.5 -40q-106 0 -203.5 24.5t-187 73t-162.5 126.5t-127 180.5t-83.5 240t-29.5 299.5zM475 1845q0 73 72 136t158 63q58 0 121.5 -30t115 -59.5t80.5 -29.5q19 0 37 10t34.5 30 t24.5 32.5t21 34.5q60 0 91.5 -21t31.5 -59q0 -69 -70 -140t-160 -71q-56 0 -120 30t-117 59.5t-82 29.5q-32 0 -65 -30.5t-52 -76.5q-59 0 -90 25t-31 67z" />
<glyph unicode="&#xd6;" horiz-adv-x="1818" d="M59 635q0 92 12.5 195t41 208.5t68 189.5t99 137.5t128.5 53.5q81 0 124 -76q-94 -99 -146 -273t-52 -382q0 -201 39 -362t107.5 -263t158.5 -156t195 -54q89 0 171.5 33.5t154.5 103.5t125.5 170.5t84.5 243.5t31 313q0 145 -23 272t-68.5 228t-120 159t-169.5 58 q-91 0 -160.5 -54.5t-103 -136.5t-33.5 -174q0 -84 28.5 -155.5t92 -121t153.5 -55.5q-13 -108 -69 -165.5t-131 -57.5q-93 0 -160 59.5t-98 152t-31 206.5q0 92 20.5 183.5t64 177t104.5 151t148.5 104.5t190.5 39q107 0 198.5 -31.5t156.5 -84.5t117 -125.5t85 -150.5 t54.5 -164t30 -162t8.5 -148q0 -202 -46 -372.5t-125 -290.5t-185.5 -203.5t-227 -123.5t-250.5 -40q-106 0 -203.5 24.5t-187 73t-162.5 126.5t-127 180.5t-83.5 240t-29.5 299.5zM514 1880q0 70 45.5 112t112.5 42q70 0 108.5 -42t38.5 -100q0 -62 -43 -106.5t-123 -44.5 q-69 0 -104 40.5t-35 98.5zM915 1880q0 70 45.5 112t112.5 42q70 0 109 -42t39 -100q0 -62 -43 -106.5t-123 -44.5q-69 0 -104.5 40.5t-35.5 98.5z" />
<glyph unicode="&#xd7;" horiz-adv-x="948" d="M31 223q31 37 62.5 71t56.5 59l80 80l104 104q-47 48 -109 108t-94 94t-68 78q13 35 37 62q22 22 43 31.5t48 3.5t50.5 -18.5t64 -47.5t75.5 -68.5t96 -95.5q106 110 180.5 172t120.5 62q41 0 60.5 -37t7.5 -90q-64 -90 -221 -254q173 -176 254 -287q12 -53 -7.5 -90 t-60.5 -37q-18 0 -40.5 9.5t-53 33t-53.5 42t-64 58.5t-59.5 58.5t-63.5 64.5q-106 -107 -153.5 -152.5t-102 -82.5t-86.5 -32t-67 40q-25 28 -37 61z" />
<glyph unicode="&#xd8;" horiz-adv-x="1818" d="M59 635q0 92 12.5 195t41 208.5t68 189.5t99 137.5t128.5 53.5q81 0 124 -76q-94 -99 -146 -273t-52 -382q0 -322 98 -536q194 258 279 376q-65 24 -112 85t-69 142.5t-22 176.5q0 92 20.5 183.5t64 177t104.5 151t148.5 104.5t190.5 39q190 0 334 -100q64 102 74 125 q64 -11 110.5 -48t55.5 -89q3 -9 -88 -150q85 -127 124.5 -291t39.5 -313q0 -202 -46 -372.5t-125 -290.5t-185.5 -203.5t-227 -123.5t-250.5 -40q-226 0 -399 102q-101 -142 -109 -155q-77 42 -114 79t-37 88q0 20 83 136q-217 251 -217 694zM571 -45q114 -102 263 -102 q89 0 171.5 33.5t154.5 103.5t125.5 170.5t84.5 243.5t31 313q0 198 -43 360q-159 -240 -428 -626q-106 -152 -359 -496zM723 1069q0 -99 40.5 -180t119.5 -121q220 314 370 541q-95 125 -233 125q-91 0 -160.5 -54.5t-103 -136.5t-33.5 -174z" />
<glyph unicode="&#xd9;" horiz-adv-x="1783" d="M145 430q6 157 34 439.5t32 396.5q1 78 -9 122t-34 101q30 45 85.5 68.5t121.5 23.5q69 0 114.5 -51.5t45.5 -155.5q0 -89 -26.5 -255.5t-55.5 -369t-33 -368.5q-8 -254 38 -385t158 -131q98 0 207 95t199 242.5t160.5 328t101.5 350.5q28 324 82 516q18 71 69.5 110 t120.5 39q43 0 92 -17t66 -40q-1 -4 -22 -55t-30.5 -77.5t-29.5 -88.5t-31 -118t-24 -133.5t-19 -168t-6 -189.5q0 -93 6.5 -187.5t23 -216t54.5 -226t93 -164.5q-47 -47 -97.5 -67.5t-118.5 -20.5q-124 0 -180 121q-50 112 -63 364q-84 -176 -189.5 -318t-233.5 -233.5 t-247 -91.5q-78 0 -147.5 29t-129.5 92.5t-101.5 156.5t-62.5 229.5t-14 303.5zM723 2034q0 30 37 45.5t88 15.5q75 0 133 -37q1 -4 10 -33t15 -48t23 -57.5t36.5 -72t52 -80.5t72.5 -94q-59 -51 -100 -51q-52 0 -118.5 48t-120.5 113.5t-91 136t-37 114.5z" />
<glyph unicode="&#xda;" horiz-adv-x="1783" d="M145 430q6 157 34 439.5t32 396.5q1 78 -9 122t-34 101q30 45 85.5 68.5t121.5 23.5q69 0 114.5 -51.5t45.5 -155.5q0 -89 -26.5 -255.5t-55.5 -369t-33 -368.5q-8 -254 38 -385t158 -131q98 0 207 95t199 242.5t160.5 328t101.5 350.5q28 324 82 516q18 71 69.5 110 t120.5 39q43 0 92 -17t66 -40q-1 -4 -22 -55t-30.5 -77.5t-29.5 -88.5t-31 -118t-24 -133.5t-19 -168t-6 -189.5q0 -93 6.5 -187.5t23 -216t54.5 -226t93 -164.5q-47 -47 -97.5 -67.5t-118.5 -20.5q-124 0 -180 121q-50 112 -63 364q-84 -176 -189.5 -318t-233.5 -233.5 t-247 -91.5q-78 0 -147.5 29t-129.5 92.5t-101.5 156.5t-62.5 229.5t-14 303.5zM795 1673q40 47 72.5 94t52 80.5t36.5 72t23 57.5t15 48t10 33q58 37 133 37q51 0 88 -15.5t37 -45.5q0 -44 -37 -114.5t-91 -136t-120.5 -113.5t-118.5 -48q-41 0 -100 51z" />
<glyph unicode="&#xdb;" horiz-adv-x="1783" d="M145 430q6 157 34 439.5t32 396.5q1 78 -9 122t-34 101q30 45 85.5 68.5t121.5 23.5q69 0 114.5 -51.5t45.5 -155.5q0 -89 -26.5 -255.5t-55.5 -369t-33 -368.5q-8 -254 38 -385t158 -131q98 0 207 95t199 242.5t160.5 328t101.5 350.5q28 324 82 516q18 71 69.5 110 t120.5 39q43 0 92 -17t66 -40q-1 -4 -22 -55t-30.5 -77.5t-29.5 -88.5t-31 -118t-24 -133.5t-19 -168t-6 -189.5q0 -93 6.5 -187.5t23 -216t54.5 -226t93 -164.5q-47 -47 -97.5 -67.5t-118.5 -20.5q-124 0 -180 121q-50 112 -63 364q-84 -176 -189.5 -318t-233.5 -233.5 t-247 -91.5q-78 0 -147.5 29t-129.5 92.5t-101.5 156.5t-62.5 229.5t-14 303.5zM555 1714q176 206 265.5 288.5t146.5 82.5q58 0 145.5 -81t265.5 -290q-23 -44 -47.5 -69t-58.5 -25q-44 0 -104.5 46.5t-109.5 104.5t-91 121q-64 -102 -150.5 -187t-154.5 -85q-34 0 -59 25 t-48 69z" />
<glyph unicode="&#xdc;" horiz-adv-x="1783" d="M145 430q6 157 34 439.5t32 396.5q1 78 -9 122t-34 101q30 45 85.5 68.5t121.5 23.5q69 0 114.5 -51.5t45.5 -155.5q0 -89 -26.5 -255.5t-55.5 -369t-33 -368.5q-8 -254 38 -385t158 -131q98 0 207 95t199 242.5t160.5 328t101.5 350.5q28 324 82 516q18 71 69.5 110 t120.5 39q43 0 92 -17t66 -40q-1 -4 -22 -55t-30.5 -77.5t-29.5 -88.5t-31 -118t-24 -133.5t-19 -168t-6 -189.5q0 -93 6.5 -187.5t23 -216t54.5 -226t93 -164.5q-47 -47 -97.5 -67.5t-118.5 -20.5q-124 0 -180 121q-50 112 -63 364q-84 -176 -189.5 -318t-233.5 -233.5 t-247 -91.5q-78 0 -147.5 29t-129.5 92.5t-101.5 156.5t-62.5 229.5t-14 303.5zM612 1802q0 70 45.5 112t112.5 42q70 0 109 -41.5t39 -99.5q0 -62 -43 -107t-123 -45q-69 0 -104.5 40.5t-35.5 98.5zM1014 1802q0 70 45 112t112 42q70 0 109 -41.5t39 -99.5q0 -62 -43 -107 t-123 -45q-69 0 -104 40.5t-35 98.5z" />
<glyph unicode="&#xdd;" horiz-adv-x="1476" d="M115 1010q0 147 27 266t69 162q107 104 338 98q-6 -9 -16 -26t-35 -77.5t-44 -128t-35 -176.5t-16 -225q0 -219 60.5 -330.5t175.5 -111.5q50 0 102.5 24t108.5 80.5t103 140t85 213.5t56 289q1 203 83 283t253 55q-40 -96 -49 -239.5t-9 -583.5q0 -176 -30.5 -333.5 t-95.5 -293t-159.5 -234t-230.5 -154.5t-301 -56q-58 0 -126.5 11t-141 33t-120 65.5t-48.5 99.5q0 48 31 87t100 81q70 -101 164 -151t159 -50q91 0 165.5 23.5t128 64.5t94 102.5t66 130t42 156t23.5 172t8 185.5q-93 -193 -221 -292.5t-256 -99.5q-94 0 -172.5 31 t-132.5 86.5t-94.5 126t-63.5 155.5t-34 169t-11 172zM649 1673q40 47 72.5 94t52 80.5t36.5 72t23 57.5t15 48t10 33q58 37 133 37q51 0 88 -15.5t37 -45.5q0 -59 -60 -157.5t-148.5 -176.5t-157.5 -78q-42 0 -101 51z" />
<glyph unicode="&#xde;" horiz-adv-x="1751" d="M-43 696q0 56 33 117.5t94.5 122t162.5 113t226 84.5v6q-3 82 -18 129t-58 104q30 31 76 54.5t101 24.5t88 -38q23 -21 41 -76.5t18 -115.5v-52q92 5 115 5q226 0 413.5 -65t300.5 -188t113 -280q0 -80 -29.5 -159t-85 -152t-141 -136t-191.5 -110t-243 -73.5t-289 -26.5 h-55q10 -201 71 -332q-130 -34 -206 -25q-45 3 -77.5 23.5t-51.5 49.5t-28.5 74t-11.5 87.5t3 101t11.5 103.5t16.5 104l2 14q9 40 15 78q68 446 88 643q4 28 8 72q-114 -39 -184 -102.5t-70 -141.5q0 -50 25 -79t75 -58q-21 -44 -67.5 -67t-100.5 -23q-83 0 -136.5 56 t-53.5 134zM627 117q16 -2 49 -2q126 0 246 34t217.5 96.5t158 161.5t62.5 218v6q0 172 -159.5 283.5t-440.5 111.5q-31 0 -45 -2q-7 -116 -46.5 -409.5t-41.5 -497.5z" />
<glyph unicode="&#xdf;" horiz-adv-x="1259" d="M104 70q24 62 30.5 158t6.5 253q0 122 3.5 219.5t15 209.5t30.5 196.5t53 166.5t79.5 134.5t112 84.5t149.5 32q141 0 229 -98t88 -228q0 -66 -28 -123t-61 -88t-61 -61t-28 -49q0 -23 29 -52.5t57 -48.5t80 -51q46 -30 78.5 -54t71 -61.5t61.5 -76t39 -92t16 -113.5 q0 -105 -55.5 -187t-141 -123t-182.5 -41q-122 0 -185 32t-63 87q0 34 17.5 70t54.5 57q42 -37 81.5 -56.5t90.5 -19.5q74 0 125 56.5t51 113.5t-42 112t-102 100.5t-119.5 92.5t-101.5 106t-42 122q0 40 16 79t39.5 72t46.5 66t39 74.5t16 85.5q0 71 -30.5 118.5 t-83.5 47.5q-213 0 -213 -791q0 -31 2 -94t3 -113.5t0.5 -115t-7.5 -112.5t-19 -90.5t-35 -65.5t-55 -23q-20 0 -44 11t-43.5 23.5t-68.5 47.5z" />
<glyph unicode="&#xe0;" horiz-adv-x="1050" d="M-47 360q0 141 65 269t181.5 208.5t253.5 80.5q109 0 194.5 -67.5t104.5 -141.5q-33 -146 -33 -242q0 -127 67 -127q23 0 55.5 22.5t71.5 65t70.5 79t74.5 90t60 73.5h8q18 0 30.5 -14t12.5 -27q0 -19 -26 -70t-72.5 -115t-102.5 -123.5t-125.5 -100t-131.5 -40.5 q-47 0 -81 27t-47.5 59.5t-19.5 71.5q-42 -115 -144.5 -191.5t-203.5 -76.5q-114 0 -188 82t-74 208zM127 1409q0 30 37 45.5t88 15.5q77 0 133 -36q1 -4 10 -33t15 -48t23 -57.5t36.5 -72t52 -80.5t72.5 -94q-60 -52 -100 -52q-52 0 -118.5 48t-120.5 113.5t-91 136 t-37 114.5zM215 371q0 -35 11.5 -62.5t33.5 -27.5q54 0 116 87.5t102.5 190t53.5 174.5q-21 58 -67 58q-52 0 -112.5 -76.5t-99 -175.5t-38.5 -168z" />
<glyph unicode="&#xe1;" horiz-adv-x="1050" d="M-47 360q0 141 65 269t181.5 208.5t253.5 80.5q109 0 194.5 -67.5t104.5 -141.5q-33 -146 -33 -242q0 -127 67 -127q23 0 55.5 22.5t71.5 65t70.5 79t74.5 90t60 73.5h8q18 0 30.5 -14t12.5 -27q0 -19 -26 -70t-72.5 -115t-102.5 -123.5t-125.5 -100t-131.5 -40.5 q-47 0 -81 27t-47.5 59.5t-19.5 71.5q-42 -115 -144.5 -191.5t-203.5 -76.5q-114 0 -188 82t-74 208zM215 371q0 -35 11.5 -62.5t33.5 -27.5q54 0 116 87.5t102.5 190t53.5 174.5q-21 58 -67 58q-52 0 -112.5 -76.5t-99 -175.5t-38.5 -168zM281 1049q40 47 72.5 94t52 80.5 t36 71.5t23 57.5t14.5 48t10 33.5q56 36 134 36q51 0 88 -15.5t37 -45.5q0 -44 -37 -114.5t-91 -136t-120.5 -113.5t-118.5 -48q-40 0 -100 52z" />
<glyph unicode="&#xe2;" horiz-adv-x="1050" d="M-47 360q0 141 65 269t181.5 208.5t253.5 80.5q109 0 194.5 -67.5t104.5 -141.5q-33 -146 -33 -242q0 -127 67 -127q23 0 55.5 22.5t71.5 65t70.5 79t74.5 90t60 73.5h8q18 0 30.5 -14t12.5 -27q0 -19 -26 -70t-72.5 -115t-102.5 -123.5t-125.5 -100t-131.5 -40.5 q-47 0 -81 27t-47.5 59.5t-19.5 71.5q-42 -115 -144.5 -191.5t-203.5 -76.5q-114 0 -188 82t-74 208zM68 1100q160 205 241 287.5t133 82.5t133.5 -82t241.5 -288q-21 -44 -43.5 -69t-54.5 -25q-57 0 -135.5 84.5t-141.5 187.5q-57 -101 -136 -186.5t-140 -85.5 q-32 0 -54.5 25t-43.5 69zM215 371q0 -35 11.5 -62.5t33.5 -27.5q54 0 116 87.5t102.5 190t53.5 174.5q-21 58 -67 58q-52 0 -112.5 -76.5t-99 -175.5t-38.5 -168z" />
<glyph unicode="&#xe3;" horiz-adv-x="1050" d="M-47 360q0 141 65 269t181.5 208.5t253.5 80.5q109 0 194.5 -67.5t104.5 -141.5q-33 -146 -33 -242q0 -127 67 -127q23 0 55.5 22.5t71.5 65t70.5 79t74.5 90t60 73.5h8q18 0 30.5 -14t12.5 -27q0 -19 -26 -70t-72.5 -115t-102.5 -123.5t-125.5 -100t-131.5 -40.5 q-47 0 -81 27t-47.5 59.5t-19.5 71.5q-42 -115 -144.5 -191.5t-203.5 -76.5q-114 0 -188 82t-74 208zM53 1153q0 73 72 136t158 63q58 0 121.5 -30t115 -59.5t80.5 -29.5q19 0 37 10t34 29.5t24.5 32t21.5 34.5q60 0 91.5 -21t31.5 -58q0 -69 -70 -140t-160 -71 q-56 0 -120 29.5t-117 59t-82 29.5q-32 0 -65 -30t-52 -76q-59 0 -90 25t-31 67zM215 371q0 -35 11.5 -62.5t33.5 -27.5q54 0 116 87.5t102.5 190t53.5 174.5q-21 58 -67 58q-52 0 -112.5 -76.5t-99 -175.5t-38.5 -168z" />
<glyph unicode="&#xe4;" horiz-adv-x="1050" d="M-47 360q0 141 65 269t181.5 208.5t253.5 80.5q109 0 194.5 -67.5t104.5 -141.5q-33 -146 -33 -242q0 -127 67 -127q23 0 55.5 22.5t71.5 65t70.5 79t74.5 90t60 73.5h8q18 0 30.5 -14t12.5 -27q0 -19 -26 -70t-72.5 -115t-102.5 -123.5t-125.5 -100t-131.5 -40.5 q-47 0 -81 27t-47.5 59.5t-19.5 71.5q-42 -115 -144.5 -191.5t-203.5 -76.5q-114 0 -188 82t-74 208zM94 1180q0 70 45.5 111.5t112.5 41.5q70 0 108.5 -41.5t38.5 -99.5q0 -62 -43 -107t-123 -45q-69 0 -104 41t-35 99zM215 371q0 -35 11.5 -62.5t33.5 -27.5q54 0 116 87.5 t102.5 190t53.5 174.5q-21 58 -67 58q-52 0 -112.5 -76.5t-99 -175.5t-38.5 -168zM496 1180q0 70 45 111.5t112 41.5q70 0 109 -41.5t39 -99.5q0 -62 -43 -107t-123 -45q-69 0 -104 41t-35 99z" />
<glyph unicode="&#xe5;" horiz-adv-x="1050" d="M-47 360q0 141 65 269t181.5 208.5t253.5 80.5q109 0 194.5 -67.5t104.5 -141.5q-33 -146 -33 -242q0 -127 67 -127q23 0 55.5 22.5t71.5 65t70.5 79t74.5 90t60 73.5h8q18 0 30.5 -14t12.5 -27q0 -19 -26 -70t-72.5 -115t-102.5 -123.5t-125.5 -100t-131.5 -40.5 q-47 0 -81 27t-47.5 59.5t-19.5 71.5q-42 -115 -144.5 -191.5t-203.5 -76.5q-114 0 -188 82t-74 208zM215 371q0 -35 11.5 -62.5t33.5 -27.5q54 0 116 87.5t102.5 190t53.5 174.5q-21 58 -67 58q-52 0 -112.5 -76.5t-99 -175.5t-38.5 -168zM223 1231q0 100 66.5 156.5 t156.5 56.5t156 -56t66 -157q0 -100 -67 -156.5t-157 -56.5t-155.5 56t-65.5 157zM371 1233q0 -115 71 -115q76 0 76 115q0 110 -72 110q-75 0 -75 -110z" />
<glyph unicode="&#xe6;" horiz-adv-x="1595" d="M59 272q0 75 48 136t123.5 98.5t160 57.5t166.5 22q-13 109 -72.5 161t-142.5 52q-79 0 -149 -64q-24 19 -40 53.5t-16 57.5q0 39 39.5 68.5t93 42t109.5 12.5q188 0 299 -146q107 156 272 156q110 0 169 -69t59 -189q0 -219 -258 -397q71 -113 192 -113q62 0 129 32.5 t124.5 83t113 117t97.5 130t75 126.5q53 14 72.5 -3t19.5 -54q0 -31 -36 -101t-103 -156.5t-149.5 -165.5t-190 -133t-209.5 -54q-125 0 -223 49t-160 135q-60 -87 -148.5 -137.5t-201.5 -50.5q-117 0 -190 67t-73 176zM250 254q0 -23 19.5 -39t47.5 -16q89 0 151.5 69 t82.5 176q-133 -11 -217 -63t-84 -127zM852 598q0 -77 16 -149q72 68 113 135t41 145q0 45 -17.5 65.5t-41.5 20.5q-40 0 -75.5 -59.5t-35.5 -157.5z" />
<glyph unicode="&#xe7;" horiz-adv-x="1003" d="M-6 449q0 88 28.5 170.5t81 150.5t136.5 109t186 41q112 0 197.5 -58t85.5 -121q0 -33 -26.5 -57t-88.5 -51q-75 129 -150 129q-57 0 -98.5 -44.5t-60.5 -108.5t-19 -136q0 -111 48 -190.5t135 -79.5q96 0 228.5 88t240 202.5t161.5 211.5q29 0 46.5 -20t17.5 -48 q0 -29 -39 -91t-109.5 -138.5t-156 -150t-190 -130.5t-199.5 -74l-29 -59q76 -15 125 -63.5t49 -127.5q0 -87 -74 -144.5t-184 -57.5q-40 0 -79 10.5t-71 38t-32 67.5q0 25 20.5 46.5t40.5 21.5q30 -37 86 -37q37 0 60.5 24.5t23.5 57.5q0 38 -26.5 70t-75.5 32l-21 39 l33 82q-146 26 -223.5 137.5t-77.5 258.5z" />
<glyph unicode="&#xe8;" horiz-adv-x="1019" d="M6 504q0 119 44 226.5t130 178t195 70.5q110 0 168.5 -69t58.5 -189q0 -219 -258 -397q71 -113 193 -113q77 0 159.5 47.5t153 124.5t126.5 156.5t99 160.5q53 14 72.5 -3t19.5 -54q0 -31 -36 -101t-103 -156.5t-149.5 -165.5t-190 -133t-209.5 -54q-108 0 -198 38 t-149.5 102.5t-92.5 150t-33 180.5zM68 1473q0 30 37 45.5t88 15.5q75 0 133 -37q1 -4 10 -33t15 -48t23 -57.5t36.5 -72t52 -80.5t72.5 -94q-59 -51 -101 -51q-69 0 -157.5 78t-148.5 176.5t-60 157.5zM276 598q0 -72 17 -149q72 68 112.5 135t40.5 145q0 45 -17.5 65.5 t-41.5 20.5q-40 0 -75.5 -59.5t-35.5 -157.5z" />
<glyph unicode="&#xe9;" horiz-adv-x="1019" d="M6 504q0 119 44 226.5t130 178t195 70.5q110 0 168.5 -69t58.5 -189q0 -219 -258 -397q71 -113 193 -113q77 0 159.5 47.5t153 124.5t126.5 156.5t99 160.5q53 14 72.5 -3t19.5 -54q0 -31 -36 -101t-103 -156.5t-149.5 -165.5t-190 -133t-209.5 -54q-108 0 -198 38 t-149.5 102.5t-92.5 150t-33 180.5zM221 1112q40 47 72.5 94t52 80.5t36.5 72t23 57.5t15 48t10 33q58 37 133 37q51 0 88 -15.5t37 -45.5q0 -59 -60 -157.5t-148.5 -176.5t-157.5 -78q-42 0 -101 51zM276 598q0 -72 17 -149q72 68 112.5 135t40.5 145q0 45 -17.5 65.5 t-41.5 20.5q-40 0 -75.5 -59.5t-35.5 -157.5z" />
<glyph unicode="&#xea;" horiz-adv-x="1019" d="M6 504q0 119 44 226.5t130 178t195 70.5q110 0 168.5 -69t58.5 -189q0 -219 -258 -397q71 -113 193 -113q77 0 159.5 47.5t153 124.5t126.5 156.5t99 160.5q53 14 72.5 -3t19.5 -54q0 -31 -36 -101t-103 -156.5t-149.5 -165.5t-190 -133t-209.5 -54q-108 0 -198 38 t-149.5 102.5t-92.5 150t-33 180.5zM8 1163q160 205 241.5 288t133.5 83t133 -82t242 -289q-21 -43 -44 -68.5t-55 -25.5q-57 0 -135 84.5t-141 187.5q-57 -101 -136.5 -186.5t-140.5 -85.5q-32 0 -54.5 25t-43.5 69zM276 598q0 -72 17 -149q72 68 112.5 135t40.5 145 q0 45 -17.5 65.5t-41.5 20.5q-40 0 -75.5 -59.5t-35.5 -157.5z" />
<glyph unicode="&#xeb;" horiz-adv-x="1019" d="M6 504q0 119 44 226.5t130 178t195 70.5q110 0 168.5 -69t58.5 -189q0 -219 -258 -397q71 -113 193 -113q77 0 159.5 47.5t153 124.5t126.5 156.5t99 160.5q53 14 72.5 -3t19.5 -54q0 -31 -36 -101t-103 -156.5t-149.5 -165.5t-190 -133t-209.5 -54q-108 0 -198 38 t-149.5 102.5t-92.5 150t-33 180.5zM35 1243q0 70 45.5 112t112.5 42q70 0 108.5 -42t38.5 -100q0 -62 -43 -106.5t-123 -44.5q-69 0 -104 40.5t-35 98.5zM276 598q0 -72 17 -149q72 68 112.5 135t40.5 145q0 45 -17.5 65.5t-41.5 20.5q-40 0 -75.5 -59.5t-35.5 -157.5z M436 1243q0 70 45.5 112t112.5 42q70 0 108.5 -42t38.5 -100q0 -62 -43 -106.5t-123 -44.5q-69 0 -104 40.5t-35 98.5z" />
<glyph unicode="&#xec;" horiz-adv-x="401" d="M-188 1239q0 30 37 45.5t88 15.5q77 0 133 -36q1 -4 10 -33t15 -48t23 -57.5t36.5 -72t52 -80.5t72.5 -94q-60 -52 -101 -52q-69 0 -157.5 78t-148.5 176.5t-60 157.5zM16 256q0 46 4.5 171.5t4.5 207.5t-2 133q70 12 98 12q147 0 147 -155q0 -90 -6 -282.5t-6 -326.5 q-58 -39 -109 -39q-35 0 -58.5 12.5t-38 33t-22 58t-10 76.5t-2.5 99z" />
<glyph unicode="&#xed;" horiz-adv-x="401" d="M-35 879q40 47 72.5 94t52 80.5t36.5 72t23 57.5t15 48t10 33q56 36 133 36q51 0 88 -15.5t37 -45.5q0 -59 -60 -157.5t-148.5 -176.5t-157.5 -78q-41 0 -101 52zM16 256q0 46 4.5 171.5t4.5 207.5t-2 133q70 12 98 12q147 0 147 -155q0 -90 -6 -282.5t-6 -326.5 q-58 -39 -109 -39q-35 0 -58.5 12.5t-38 33t-22 58t-10 76.5t-2.5 99z" />
<glyph unicode="&#xee;" horiz-adv-x="401" d="M-248 930q159 204 241 287t134 83t133.5 -82t241.5 -288q-21 -43 -44 -68.5t-55 -25.5q-57 0 -135 84.5t-141 187.5q-57 -101 -136.5 -186.5t-140.5 -85.5q-32 0 -54.5 25t-43.5 69zM16 256q0 46 4.5 171.5t4.5 207.5t-2 133q70 12 98 12q147 0 147 -155q0 -90 -6 -282.5 t-6 -326.5q-58 -39 -109 -39q-35 0 -58.5 12.5t-38 33t-22 58t-10 76.5t-2.5 99z" />
<glyph unicode="&#xef;" horiz-adv-x="401" d="M-221 1010q0 70 45.5 111.5t112.5 41.5q70 0 108.5 -41.5t38.5 -99.5q0 -62 -43 -107t-123 -45q-69 0 -104 41t-35 99zM16 256q0 46 4.5 171.5t4.5 207.5t-2 133q70 12 98 12q147 0 147 -155q0 -90 -6 -282.5t-6 -326.5q-58 -39 -109 -39q-35 0 -58.5 12.5t-38 33t-22 58 t-10 76.5t-2.5 99zM180 1010q0 70 45.5 111.5t112.5 41.5q70 0 108.5 -41.5t38.5 -99.5q0 -62 -43 -107t-123 -45q-69 0 -104 41t-35 99z" />
<glyph unicode="&#xf0;" horiz-adv-x="1228" d="M70 391q0 211 159.5 354t413.5 152q-26 100 -74 178q-160 -92 -209 -92q-31 2 -51 33t-16 84q68 31 170 88q-76 51 -168 51q-60 0 -137 -25q-49 36 -49 86q0 41 32 69t75.5 39t94.5 11q80 0 169 -31t171 -92l185 107q7 -17 22 -70q11 -42 -102 -133q180 -213 180 -541 q0 -55 -4.5 -109.5t-18.5 -122t-36 -126t-59.5 -115.5t-86 -98t-119.5 -67t-157 -27q-97 -1 -183.5 44t-144 138t-57.5 215zM328 391q0 -100 38.5 -178t98.5 -78q89 0 153 134.5t64 312.5q0 100 -12 188q-145 -3 -243.5 -109t-98.5 -270z" />
<glyph unicode="&#xf1;" horiz-adv-x="1384" d="M23 922q72 65 155 65q54 0 88.5 -35.5t34.5 -107.5q0 -18 -6 -133t-6 -183q58 102 110 175.5t88.5 111.5t73 59.5t58.5 26t49 4.5q55 0 95 -16.5t62.5 -41.5t35 -66t16.5 -79t4 -90q0 -59 -3.5 -151t-3.5 -125q0 -79 12.5 -117.5t47.5 -38.5q33 0 97.5 35.5t139.5 95 t152 152t125 190.5q92 20 92 -43q0 -28 -30.5 -84.5t-82 -125t-124 -140.5t-151 -131t-169 -97t-172.5 -38q-37 0 -66.5 8t-58 31.5t-47 62t-30 103t-11.5 151.5q0 78 10 219.5t10 157.5q0 43 -16 43q-12 0 -31 -12t-53 -53t-70 -105.5t-80.5 -185t-84.5 -275.5 q-37 -18 -82 -18q-46 0 -79 15.5t-51.5 38t-28.5 60.5t-12.5 72t-2.5 82q0 81 8 202t8 167q0 88 -20 164zM92 1163q0 73 72 136t158 63q58 0 121.5 -30t115 -59.5t80.5 -29.5q19 0 37 10t34.5 30t24.5 32.5t21 34.5q60 0 91.5 -21t31.5 -59q0 -69 -70 -140t-160 -71 q-56 0 -120 30t-117 59.5t-82 29.5q-32 0 -65 -30.5t-52 -76.5q-59 0 -90 25t-31 67z" />
<glyph unicode="&#xf2;" horiz-adv-x="1122" d="M-23 461q0 116 54.5 198t148.5 82h4q12 109 84.5 166.5t180.5 57.5q100 0 171.5 -55.5t103.5 -140.5t32 -189q0 -42 -6 -86q53 -39 124 -39q79 0 165.5 66.5t154.5 183.5q6 -2 15.5 -6.5t25.5 -22t16 -39.5q0 -40 -35 -95.5t-90.5 -106.5t-134 -86.5t-155.5 -35.5 q-74 0 -125 31q-49 -120 -142.5 -194.5t-222.5 -75.5q-91 -1 -164 33.5t-116.5 92t-66 125t-22.5 136.5zM96 1440q0 30 37 45.5t88 15.5q75 0 133 -37q1 -4 10 -33t15 -48t23 -57.5t36.5 -72t52 -80.5t72.5 -94q-59 -51 -100 -51q-52 0 -118.5 48t-120.5 113.5t-91 136 t-37 114.5zM233 342q0 -62 36 -111t87 -49q50 0 85 56.5t49 129t14 146.5q0 78 -13.5 139.5t-52 105.5t-98.5 44q-55 0 -98 -72q82 -34 82 -151q0 -32 -11 -82q-38 -14 -59 -58t-21 -98z" />
<glyph unicode="&#xf3;" horiz-adv-x="1122" d="M-23 461q0 116 54.5 198t148.5 82h4q12 109 84.5 166.5t180.5 57.5q100 0 171.5 -55.5t103.5 -140.5t32 -189q0 -42 -6 -86q53 -39 124 -39q79 0 165.5 66.5t154.5 183.5q6 -2 15.5 -6.5t25.5 -22t16 -39.5q0 -40 -35 -95.5t-90.5 -106.5t-134 -86.5t-155.5 -35.5 q-74 0 -125 31q-49 -120 -142.5 -194.5t-222.5 -75.5q-91 -1 -164 33.5t-116.5 92t-66 125t-22.5 136.5zM233 342q0 -62 36 -111t87 -49q50 0 85 56.5t49 129t14 146.5q0 78 -13.5 139.5t-52 105.5t-98.5 44q-55 0 -98 -72q82 -34 82 -151q0 -32 -11 -82q-38 -14 -59 -58 t-21 -98zM250 1079q40 47 72.5 94t52 80.5t36.5 72t23 57.5t15 48t10 33q58 37 133 37q51 0 88 -15.5t37 -45.5q0 -44 -37 -114.5t-91 -136t-120.5 -113.5t-118.5 -48q-41 0 -100 51z" />
<glyph unicode="&#xf4;" horiz-adv-x="1122" d="M-23 461q0 116 54.5 198t148.5 82h4q12 109 84.5 166.5t180.5 57.5q100 0 171.5 -55.5t103.5 -140.5t32 -189q0 -42 -6 -86q53 -39 124 -39q79 0 165.5 66.5t154.5 183.5q6 -2 15.5 -6.5t25.5 -22t16 -39.5q0 -40 -35 -95.5t-90.5 -106.5t-134 -86.5t-155.5 -35.5 q-74 0 -125 31q-49 -120 -142.5 -194.5t-222.5 -75.5q-91 -1 -164 33.5t-116.5 92t-66 125t-22.5 136.5zM37 1130q160 205 241.5 288t133.5 83t132 -81.5t242 -289.5q-21 -44 -43.5 -69t-54.5 -25q-39 0 -93.5 47t-99 105t-83.5 121q-57 -101 -136.5 -187t-140.5 -86 q-32 0 -54.5 25t-43.5 69zM233 342q0 -62 36 -111t87 -49q50 0 85 56.5t49 129t14 146.5q0 78 -13.5 139.5t-52 105.5t-98.5 44q-55 0 -98 -72q82 -34 82 -151q0 -32 -11 -82q-38 -14 -59 -58t-21 -98z" />
<glyph unicode="&#xf5;" horiz-adv-x="1122" d="M-23 461q0 116 54.5 198t148.5 82h4q12 109 84.5 166.5t180.5 57.5q100 0 171.5 -55.5t103.5 -140.5t32 -189q0 -42 -6 -86q53 -39 124 -39q79 0 165.5 66.5t154.5 183.5q6 -2 15.5 -6.5t25.5 -22t16 -39.5q0 -40 -35 -95.5t-90.5 -106.5t-134 -86.5t-155.5 -35.5 q-74 0 -125 31q-49 -120 -142.5 -194.5t-222.5 -75.5q-91 -1 -164 33.5t-116.5 92t-66 125t-22.5 136.5zM23 1184q0 73 71.5 135.5t157.5 62.5q46 0 96 -18.5t85.5 -40.5t73.5 -40.5t62 -18.5q19 0 37 10t34 29.5t24.5 32t21.5 34.5q60 0 91.5 -21t31.5 -59 q0 -69 -69.5 -140t-159.5 -71q-56 0 -120.5 30t-117.5 59.5t-82 29.5q-32 0 -65 -30t-52 -76q-59 0 -89.5 25t-30.5 67zM233 342q0 -62 36 -111t87 -49q50 0 85 56.5t49 129t14 146.5q0 78 -13.5 139.5t-52 105.5t-98.5 44q-55 0 -98 -72q82 -34 82 -151q0 -32 -11 -82 q-38 -14 -59 -58t-21 -98z" />
<glyph unicode="&#xf6;" horiz-adv-x="1122" d="M-23 461q0 116 54.5 198t148.5 82h4q12 109 84.5 166.5t180.5 57.5q100 0 171.5 -55.5t103.5 -140.5t32 -189q0 -42 -6 -86q53 -39 124 -39q79 0 165.5 66.5t154.5 183.5q6 -2 15.5 -6.5t25.5 -22t16 -39.5q0 -40 -35 -95.5t-90.5 -106.5t-134 -86.5t-155.5 -35.5 q-74 0 -125 31q-49 -120 -142.5 -194.5t-222.5 -75.5q-91 -1 -164 33.5t-116.5 92t-66 125t-22.5 136.5zM63 1210q0 70 45.5 112t112.5 42q70 0 109 -41.5t39 -99.5q0 -62 -43 -107t-123 -45q-69 0 -104.5 40.5t-35.5 98.5zM233 342q0 -62 36 -111t87 -49q50 0 85 56.5 t49 129t14 146.5q0 78 -13.5 139.5t-52 105.5t-98.5 44q-55 0 -98 -72q82 -34 82 -151q0 -32 -11 -82q-38 -14 -59 -58t-21 -98zM465 1210q0 70 45.5 112t112.5 42q70 0 108.5 -41.5t38.5 -99.5q0 -62 -43 -107t-123 -45q-69 0 -104 40.5t-35 98.5z" />
<glyph unicode="&#xf7;" horiz-adv-x="1177" d="M82 528q0 31 16 62q179 14 514 16q25 0 73.5 0.5t75.5 0.5t69.5 -0.5t68 -3.5t58 -7.5t51.5 -13t37 -19.5t26 -27.5t8 -37.5q0 -40 -43 -80q-169 -15 -428 -15q-320 0 -423 19t-103 106zM428 119q0 64 52.5 126t123.5 62q56 0 96.5 -56t40.5 -106q0 -42 -27.5 -71 t-61.5 -40t-68 -11q-72 0 -114 28.5t-42 67.5zM428 844q0 42 27.5 71.5t62 40.5t68.5 11q71 0 113 -29t42 -68q0 -64 -52.5 -126t-123.5 -62q-56 0 -96.5 56t-40.5 106z" />
<glyph unicode="&#xf8;" horiz-adv-x="1122" d="M-23 461q0 116 54.5 198t148.5 82h4q12 109 84.5 166.5t180.5 57.5q114 0 192 -72q48 71 66 102q24 -4 40 -13t22.5 -22.5t8.5 -24.5t2 -26q0 -29 -65 -123q41 -93 41 -206q0 -42 -6 -86q53 -39 124 -39q79 0 165.5 66.5t154.5 183.5q6 -2 15.5 -6.5t25.5 -22t16 -39.5 q0 -40 -35 -95.5t-90.5 -106.5t-134 -86.5t-155.5 -35.5q-74 0 -125 31q-49 -120 -142.5 -194.5t-222.5 -75.5q-89 -3 -166 35l-33 -41q-103 -128 -153 -2q38 38 96 106q-55 57 -84 134t-29 155zM233 344q61 74 252 328q-40 131 -145 131q-55 0 -98 -72q82 -34 82 -151 q0 -32 -11 -82q-38 -14 -59 -58t-21 -96zM276 223q33 -41 80 -41q37 0 66.5 31t46 80t25.5 103t10 108q-121 -155 -228 -281z" />
<glyph unicode="&#xf9;" horiz-adv-x="1120" d="M-6 893q102 16 137 16q74 0 101.5 -36.5t27.5 -114.5q0 -27 -9 -152t-9 -186q0 -57 12.5 -87t46.5 -30q17 0 40.5 12t70 58.5t94.5 122.5q14 196 14 241q0 96 -14 156q10 1 27.5 2.5t32 2.5t26.5 1q82 0 123 -47t41 -170q0 -20 -11.5 -126.5t-11.5 -160.5q0 -61 8 -95 t18.5 -43t26.5 -9q34 0 91.5 59t113 141.5t101.5 160t69 126.5q30 0 51 -14t21 -45q0 -20 -29.5 -83t-83 -145t-116.5 -159t-140 -130t-145 -53q-183 0 -211 213q-66 -93 -150 -154t-174 -61q-188 0 -188 248q0 25 7 144.5t7 199.5q0 116 -16 197zM70 1419q0 30 37 46t88 16 q75 0 133 -37q1 -4 10 -33t15 -48t23 -57.5t36.5 -72t52 -80.5t72.5 -94q-59 -51 -101 -51q-69 0 -157.5 78t-148.5 176t-60 157z" />
<glyph unicode="&#xfa;" horiz-adv-x="1120" d="M-6 893q102 16 137 16q74 0 101.5 -36.5t27.5 -114.5q0 -27 -9 -152t-9 -186q0 -57 12.5 -87t46.5 -30q17 0 40.5 12t70 58.5t94.5 122.5q14 196 14 241q0 96 -14 156q10 1 27.5 2.5t32 2.5t26.5 1q82 0 123 -47t41 -170q0 -20 -11.5 -126.5t-11.5 -160.5q0 -61 8 -95 t18.5 -43t26.5 -9q34 0 91.5 59t113 141.5t101.5 160t69 126.5q30 0 51 -14t21 -45q0 -20 -29.5 -83t-83 -145t-116.5 -159t-140 -130t-145 -53q-183 0 -211 213q-66 -93 -150 -154t-174 -61q-188 0 -188 248q0 25 7 144.5t7 199.5q0 116 -16 197zM223 1059q40 47 72.5 94 t52 80.5t36.5 72t23 57.5t15 48t10 33q58 37 133 37q51 0 88 -16t37 -46q0 -59 -60 -157t-148.5 -176t-157.5 -78q-42 0 -101 51z" />
<glyph unicode="&#xfb;" horiz-adv-x="1120" d="M-6 893q102 16 137 16q74 0 101.5 -36.5t27.5 -114.5q0 -27 -9 -152t-9 -186q0 -57 12.5 -87t46.5 -30q17 0 40.5 12t70 58.5t94.5 122.5q14 196 14 241q0 96 -14 156q10 1 27.5 2.5t32 2.5t26.5 1q82 0 123 -47t41 -170q0 -20 -11.5 -126.5t-11.5 -160.5q0 -61 8 -95 t18.5 -43t26.5 -9q34 0 91.5 59t113 141.5t101.5 160t69 126.5q30 0 51 -14t21 -45q0 -20 -29.5 -83t-83 -145t-116.5 -159t-140 -130t-145 -53q-183 0 -211 213q-66 -93 -150 -154t-174 -61q-188 0 -188 248q0 25 7 144.5t7 199.5q0 116 -16 197zM10 1110 q160 205 241.5 288t133.5 83t133 -82t242 -289q-21 -44 -43.5 -69t-54.5 -25q-57 0 -135.5 84.5t-141.5 187.5q-57 -101 -136 -186.5t-140 -85.5q-32 0 -55 25.5t-44 68.5z" />
<glyph unicode="&#xfc;" horiz-adv-x="1120" d="M-6 893q102 16 137 16q74 0 101.5 -36.5t27.5 -114.5q0 -27 -9 -152t-9 -186q0 -57 12.5 -87t46.5 -30q17 0 40.5 12t70 58.5t94.5 122.5q14 196 14 241q0 96 -14 156q10 1 27.5 2.5t32 2.5t26.5 1q82 0 123 -47t41 -170q0 -20 -11.5 -126.5t-11.5 -160.5q0 -61 8 -95 t18.5 -43t26.5 -9q34 0 91.5 59t113 141.5t101.5 160t69 126.5q30 0 51 -14t21 -45q0 -20 -29.5 -83t-83 -145t-116.5 -159t-140 -130t-145 -53q-183 0 -211 213q-66 -93 -150 -154t-174 -61q-188 0 -188 248q0 25 7 144.5t7 199.5q0 116 -16 197zM37 1190q0 70 45.5 111.5 t112.5 41.5q70 0 108.5 -41.5t38.5 -99.5q0 -62 -43 -106.5t-123 -44.5q-69 0 -104 40.5t-35 98.5zM438 1190q0 70 45.5 111.5t112.5 41.5q70 0 108.5 -41.5t38.5 -99.5q0 -62 -42.5 -106.5t-122.5 -44.5q-69 0 -104.5 40.5t-35.5 98.5z" />
<glyph unicode="&#xfd;" horiz-adv-x="1034" d="M-4 932q33 29 110 29q57 0 96.5 -26t39.5 -83q0 -13 -8.5 -88t-8.5 -129q0 -141 62 -141t100 117t37 317q24 20 63.5 29.5t73.5 9.5q36 0 61 -13.5t39 -33.5t21.5 -57t9.5 -72t2 -89q0 -62 -4 -172q164 99 316 166.5t184 67.5q28 0 44 -23.5t13 -50.5 q-296 -115 -567 -301q-21 -203 -68 -368.5t-103 -266.5t-120 -170t-116 -96t-93 -27q-69 0 -116.5 61.5t-47.5 172.5q0 331 420 661q8 65 8 136v4q-57 -89 -121.5 -131.5t-125.5 -42.5q-65 0 -111 50t-66 123.5t-20 159.5q0 29 2 81t2 77q0 62 -8 119zM125 -332 q0 -71 45 -71q41 0 88 87.5t85.5 216t64.5 271.5q-283 -269 -283 -504zM174 1110q40 47 72.5 94t52 80.5t36.5 72t23 57.5t15 48t10 33q58 37 133 37q51 0 88 -16t37 -46q0 -59 -60 -157t-149 -176t-158 -78q-41 0 -100 51z" />
<glyph unicode="&#xfe;" horiz-adv-x="987" d="M88 -231v-2v2zM88 -233q0 -31 4.5 317t9 717.5t4.5 390.5q0 22 -2 67t-2 68q59 29 107 29q59 0 89 -39.5t30 -89.5q0 -244 -2 -342h28q84 0 159.5 -13t144 -43t118 -74.5t78.5 -111.5t29 -151q0 -112 -68.5 -204.5t-189 -146t-267.5 -53.5q-35 0 -49 2q-2 -94 -2 -330 q0 -46 6 -92q-59 -45 -123 -45q-57 0 -79.5 35.5t-22.5 108.5zM311 219h8q140 0 226 71t86 189q0 123 -75 197t-212 74h-20q-1 -123 -6.5 -310.5t-6.5 -220.5z" />
<glyph unicode="&#xff;" horiz-adv-x="1034" d="M-12 1241q0 70 45 112t112 42q70 0 109 -42t39 -100q0 -62 -43 -106.5t-123 -44.5q-69 0 -104 40.5t-35 98.5zM-4 932q33 29 110 29q57 0 96.5 -26t39.5 -83q0 -13 -8.5 -88t-8.5 -129q0 -141 62 -141t100 117t37 317q24 20 63.5 29.5t73.5 9.5q36 0 61 -13.5t39 -33.5 t21.5 -57t9.5 -72t2 -89q0 -62 -4 -172q164 99 316 166.5t184 67.5q28 0 44 -23.5t13 -50.5q-296 -115 -567 -301q-21 -203 -68 -368.5t-103 -266.5t-120 -170t-116 -96t-93 -27q-69 0 -116.5 61.5t-47.5 172.5q0 331 420 661q8 65 8 136v4q-57 -89 -121.5 -131.5 t-125.5 -42.5q-65 0 -111 50t-66 123.5t-20 159.5q0 29 2 81t2 77q0 62 -8 119zM125 -332q0 -71 45 -71q41 0 88 87.5t85.5 216t64.5 271.5q-283 -269 -283 -504zM389 1241q0 70 45.5 112t112.5 42q70 0 108.5 -42t38.5 -100q0 -62 -43 -106.5t-123 -44.5q-69 0 -104 40.5 t-35 98.5z" />
<glyph unicode="&#x100;" horiz-adv-x="1841" d="M96 -340q0 221 236 756q-179 57 -203 123q-14 42 -12.5 126.5t-1.5 143.5q177 -87 340 -147q61 101 139 211.5t181 234.5t204.5 224t213 172t204.5 87q37 -5 67.5 -16.5t53 -25.5t39 -37.5t27.5 -43.5t18 -53.5t10 -58t4.5 -66t1 -68.5t-1 -74t-0.5 -75q0 -81 -5 -312.5 t-5 -379.5q0 -129 25 -234.5t55.5 -162.5t74.5 -113q-78 -102 -192 -102q-123 0 -189.5 116t-66.5 316q0 44 8 166q-143 -36 -343.5 -37t-377.5 28q-132 -331 -190 -671q-16 -101 12 -271q-71 6 -118 14t-90 24.5t-66.5 42.5t-37.5 66.5t-14 96.5zM705 586q354 -89 632 -43 q5 46 17.5 151.5t19.5 165t15 143t12 148t4 115.5q0 56 -16 92.5t-41 36.5q-127 -58 -308 -278t-335 -531zM1008 1817q0 40 18 67q64 -4 408 -4q45 0 125 4t112 4q72 0 108 -16.5t36 -63.5q0 -64 -35 -108q-89 12 -166 12q-28 0 -176 -4q-120 -6 -205 -6q-124 0 -174.5 24 t-50.5 91z" />
<glyph unicode="&#x101;" horiz-adv-x="1050" d="M-47 360q0 141 65 269t181.5 208.5t253.5 80.5q109 0 194.5 -67.5t104.5 -141.5q-33 -146 -33 -242q0 -127 67 -127q23 0 55.5 22.5t71.5 65t70.5 79t74.5 90t60 73.5h8q18 0 30.5 -14t12.5 -27q0 -19 -26 -70t-72.5 -115t-102.5 -123.5t-125.5 -100t-131.5 -40.5 q-47 0 -81 27t-47.5 59.5t-19.5 71.5q-42 -115 -144.5 -191.5t-203.5 -76.5q-114 0 -188 82t-74 208zM84 1208q0 41 18 68q64 -4 367 -4q20 0 90 4t107 4q72 0 107.5 -16.5t35.5 -63.5q0 -64 -35 -108q-88 12 -166 12q-25 0 -72.5 -2t-62.5 -2q-17 0 -75 -3t-89 -3 q-125 0 -175 23.5t-50 90.5zM215 371q0 -35 11.5 -62.5t33.5 -27.5q54 0 116 87.5t102.5 190t53.5 174.5q-21 58 -67 58q-52 0 -112.5 -76.5t-99 -175.5t-38.5 -168z" />
<glyph unicode="&#x102;" horiz-adv-x="1841" d="M96 -340q0 221 236 756q-179 57 -203 123q-14 42 -12.5 126.5t-1.5 143.5q177 -87 340 -147q61 101 139 211.5t181 234.5t204.5 224t213 172t204.5 87q37 -5 67.5 -16.5t53 -25.5t39 -37.5t27.5 -43.5t18 -53.5t10 -58t4.5 -66t1 -68.5t-1 -74t-0.5 -75q0 -81 -5 -312.5 t-5 -379.5q0 -129 25 -234.5t55.5 -162.5t74.5 -113q-78 -102 -192 -102q-123 0 -189.5 116t-66.5 316q0 44 8 166q-143 -36 -343.5 -37t-377.5 28q-132 -331 -190 -671q-16 -101 12 -271q-71 6 -118 14t-90 24.5t-66.5 42.5t-37.5 66.5t-14 96.5zM705 586q354 -89 632 -43 q5 46 17.5 151.5t19.5 165t15 143t12 148t4 115.5q0 56 -16 92.5t-41 36.5q-127 -58 -308 -278t-335 -531zM1069 2044q0 49 25.5 74.5t91.5 25.5t106 -30q0 -63 10.5 -114t40.5 -88.5t76 -37.5q36 0 61.5 17.5t38 40.5t20 60.5t8.5 62t1 59.5q38 30 109 30q65 0 90 -25.5 t25 -74.5q0 -126 -107.5 -225t-259.5 -99q-93 0 -171.5 47.5t-121.5 121.5t-43 155z" />
<glyph unicode="&#x103;" horiz-adv-x="1050" d="M-47 360q0 141 65 269t181.5 208.5t253.5 80.5q109 0 194.5 -67.5t104.5 -141.5q-33 -146 -33 -242q0 -127 67 -127q23 0 55.5 22.5t71.5 65t70.5 79t74.5 90t60 73.5h8q18 0 30.5 -14t12.5 -27q0 -19 -26 -70t-72.5 -115t-102.5 -123.5t-125.5 -100t-131.5 -40.5 q-47 0 -81 27t-47.5 59.5t-19.5 71.5q-42 -115 -144.5 -191.5t-203.5 -76.5q-114 0 -188 82t-74 208zM106 1323q0 49 25.5 74.5t91.5 25.5q67 0 107 -30q0 -63 10.5 -114t40.5 -88.5t76 -37.5q36 0 61.5 17.5t38 40.5t20 60.5t8.5 62t1 59.5q38 30 108 30q65 0 90 -25.5 t25 -74.5q0 -126 -107.5 -225t-259.5 -99q-93 0 -171.5 47.5t-121.5 121.5t-43 155zM215 371q0 -35 11.5 -62.5t33.5 -27.5q54 0 116 87.5t102.5 190t53.5 174.5q-21 58 -67 58q-52 0 -112.5 -76.5t-99 -175.5t-38.5 -168z" />
<glyph unicode="&#x104;" horiz-adv-x="1841" d="M96 -340q0 221 236 756q-179 57 -203 123q-14 42 -12.5 126.5t-1.5 143.5q177 -87 340 -147q61 101 139 211.5t181 234.5t204.5 224t213 172t204.5 87q37 -5 67.5 -16.5t53 -25.5t39 -37.5t27.5 -43.5t18 -53.5t10 -58t4.5 -66t1 -68.5t-1 -74t-0.5 -75q0 -81 -5 -312.5 t-5 -379.5q0 -129 25 -234.5t55.5 -162.5t74.5 -113q-20 -24 -37 -41q-74 -72 -109.5 -122t-35.5 -89q0 -38 19 -58t51 -20q51 0 112 45q49 -19 49 -71q0 -55 -61.5 -92t-132.5 -37q-99 0 -170.5 55t-71.5 151q0 111 105 197q-81 38 -123.5 145t-42.5 267q0 44 8 166 q-143 -36 -343.5 -37t-377.5 28q-132 -331 -190 -671q-16 -101 12 -271q-71 6 -118 14t-90 24.5t-66.5 42.5t-37.5 66.5t-14 96.5zM705 586q354 -89 632 -43q5 46 17.5 151.5t19.5 165t15 143t12 148t4 115.5q0 56 -16 92.5t-41 36.5q-127 -58 -308 -278t-335 -531z" />
<glyph unicode="&#x105;" horiz-adv-x="1050" d="M-47 360q0 141 65 269t181.5 208.5t253.5 80.5q109 0 194.5 -67.5t104.5 -141.5q-33 -146 -33 -242q0 -127 67 -127q23 0 55.5 22.5t71.5 65t70.5 79t74.5 90t60 73.5h8q18 0 30.5 -14t12.5 -27q0 -21 -30.5 -77.5t-78 -123t-116.5 -131.5t-135 -94q-129 -126 -129 -195 q0 -38 19 -58t51 -20q51 0 112 45q49 -19 49 -71q0 -55 -61.5 -92t-132.5 -37q-99 0 -170.5 55.5t-71.5 151.5q-2 137 152 227q-52 42 -64 129q-42 -115 -144.5 -191.5t-203.5 -76.5q-114 0 -188 82t-74 208zM215 371q0 -35 11.5 -62.5t33.5 -27.5q54 0 116 87.5t102.5 190 t53.5 174.5q-21 58 -67 58q-52 0 -112.5 -76.5t-99 -175.5t-38.5 -168z" />
<glyph unicode="&#x106;" horiz-adv-x="1861" d="M102 522q0 150 46 297.5t138.5 280t220.5 234t305 161t378 59.5q139 0 257 -38t196 -102t121.5 -147t43.5 -173q0 -101 -38.5 -154t-98.5 -53q-46 0 -91.5 17t-70 36t-24.5 29q1 6 19.5 42t36.5 86t18 91q0 52 -25.5 91.5t-70.5 61.5t-98 32.5t-114 10.5 q-148 0 -279.5 -49.5t-227 -133.5t-165.5 -193t-104.5 -231.5t-34.5 -246.5q0 -104 25.5 -201.5t76.5 -181.5t122.5 -146.5t170 -98t212.5 -35.5q113 0 214.5 28.5t168.5 67.5t122 88.5t81 83.5t40 60q51 0 78 -27t27 -68q0 -63 -68 -137.5t-172.5 -136t-243.5 -102.5 t-270 -41q-187 0 -355 60.5t-293.5 168.5t-199.5 266.5t-74 343.5zM942 1751q40 47 72.5 94t52 80.5t36.5 72t23 57.5t15 48t10 33q58 37 133 37q51 0 88 -16t37 -46q0 -59 -60 -157t-149 -176t-158 -78q-41 0 -100 51z" />
<glyph unicode="&#x107;" horiz-adv-x="1003" d="M-6 449q0 88 28.5 170.5t81 150.5t136.5 109t186 41q112 0 197.5 -58t85.5 -121q0 -33 -26.5 -57t-88.5 -51q-75 129 -150 129q-57 0 -98.5 -44.5t-60.5 -108.5t-19 -136q0 -111 48 -190.5t135 -79.5q96 0 228.5 88t240 202.5t161.5 211.5q29 0 46.5 -20t17.5 -48 q0 -31 -45.5 -100t-125 -152t-175 -159.5t-209.5 -127.5t-213 -51q-94 0 -168.5 33.5t-120 90.5t-69 128t-23.5 150zM266 1059q40 47 72.5 94t52 80.5t36.5 72t23 57.5t15 48t10 33q58 37 133 37q51 0 88 -16t37 -46q0 -59 -60 -157t-148.5 -176t-157.5 -78q-42 0 -101 51z " />
<glyph unicode="&#x10a;" horiz-adv-x="1861" d="M102 522q0 150 46 297.5t138.5 280t220.5 234t305 161t378 59.5q139 0 257 -38t196 -102t121.5 -147t43.5 -173q0 -101 -38.5 -154t-98.5 -53q-46 0 -91.5 17t-70 36t-24.5 29q1 6 19.5 42t36.5 86t18 91q0 52 -25.5 91.5t-70.5 61.5t-98 32.5t-114 10.5 q-148 0 -279.5 -49.5t-227 -133.5t-165.5 -193t-104.5 -231.5t-34.5 -246.5q0 -104 25.5 -201.5t76.5 -181.5t122.5 -146.5t170 -98t212.5 -35.5q113 0 214.5 28.5t168.5 67.5t122 88.5t81 83.5t40 60q51 0 78 -27t27 -68q0 -63 -68 -137.5t-172.5 -136t-243.5 -102.5 t-270 -41q-187 0 -355 60.5t-293.5 168.5t-199.5 266.5t-74 343.5zM977 1872q0 64 41.5 102.5t103.5 38.5q64 0 98.5 -37.5t34.5 -91.5q0 -56 -39.5 -97.5t-103.5 -41.5t-99.5 38t-35.5 89z" />
<glyph unicode="&#x10b;" horiz-adv-x="1003" d="M-6 449q0 88 28.5 170.5t81 150.5t136.5 109t186 41q112 0 197.5 -58t85.5 -121q0 -33 -26.5 -57t-88.5 -51q-75 129 -150 129q-57 0 -98.5 -44.5t-60.5 -108.5t-19 -136q0 -111 48 -190.5t135 -79.5q96 0 228.5 88t240 202.5t161.5 211.5q29 0 46.5 -20t17.5 -48 q0 -31 -45.5 -100t-125 -152t-175 -159.5t-209.5 -127.5t-213 -51q-94 0 -168.5 33.5t-120 90.5t-69 128t-23.5 150zM293 1176q0 64 41.5 102.5t103.5 38.5q64 0 98.5 -37.5t34.5 -91.5q0 -56 -39.5 -97.5t-103.5 -41.5t-99.5 38t-35.5 89z" />
<glyph unicode="&#x10c;" horiz-adv-x="1861" d="M102 522q0 150 46 297.5t138.5 280t220.5 234t305 161t378 59.5q139 0 257 -38t196 -102t121.5 -147t43.5 -173q0 -101 -38.5 -154t-98.5 -53q-46 0 -91.5 17t-70 36t-24.5 29q1 6 19.5 42t36.5 86t18 91q0 52 -25.5 91.5t-70.5 61.5t-98 32.5t-114 10.5 q-148 0 -279.5 -49.5t-227 -133.5t-165.5 -193t-104.5 -231.5t-34.5 -246.5q0 -104 25.5 -201.5t76.5 -181.5t122.5 -146.5t170 -98t212.5 -35.5q113 0 214.5 28.5t168.5 67.5t122 88.5t81 83.5t40 60q51 0 78 -27t27 -68q0 -63 -68 -137.5t-172.5 -136t-243.5 -102.5 t-270 -41q-187 0 -355 60.5t-293.5 168.5t-199.5 266.5t-74 343.5zM694 2073q23 44 47.5 69t59.5 25q69 0 164.5 -88t156.5 -185q182 273 289 273q35 0 59.5 -25t47.5 -69q-177 -208 -265.5 -289.5t-146.5 -81.5q-57 0 -146.5 82.5t-265.5 288.5z" />
<glyph unicode="&#x10d;" horiz-adv-x="1003" d="M-6 449q0 88 28.5 170.5t81 150.5t136.5 109t186 41q112 0 197.5 -58t85.5 -121q0 -33 -26.5 -57t-88.5 -51q-75 129 -150 129q-57 0 -98.5 -44.5t-60.5 -108.5t-19 -136q0 -111 48 -190.5t135 -79.5q96 0 228.5 88t240 202.5t161.5 211.5q29 0 46.5 -20t17.5 -48 q0 -31 -45.5 -100t-125 -152t-175 -159.5t-209.5 -127.5t-213 -51q-94 0 -168.5 33.5t-120 90.5t-69 128t-23.5 150zM59 1386q46 95 99 95q62 0 149 -88.5t142 -184.5q167 273 262 273q32 0 54 -25.5t44 -69.5q-160 -206 -241.5 -288t-133.5 -82q-53 0 -133.5 82t-241.5 288 z" />
<glyph unicode="&#x10e;" horiz-adv-x="1714" d="M-47 1432q0 30 6 57q235 33 455 33h26q45 88 72 112q22 -7 40 -15.5t41.5 -23t36 -36.5t9.5 -48q202 -18 367 -69.5t279 -126t191.5 -169.5t113.5 -199.5t36 -217.5q0 -130 -45 -254t-122.5 -224t-179 -188t-215 -152.5t-230.5 -111.5t-226 -70.5t-200 -23.5 q-242 0 -275 170q231 0 447 68.5t376.5 183.5t257.5 275.5t97 336.5q0 124 -50 234.5t-141 195t-227.5 138t-302.5 63.5q-86 -232 -140.5 -520.5t-54.5 -605.5q0 -130 13 -289q-14 -4 -43 -4q-63 0 -109.5 27.5t-73 77.5t-39 112.5t-12.5 138.5q0 243 70.5 530t167.5 523 q-43 -7 -135.5 -33.5t-147.5 -26.5q-70 0 -101.5 37t-31.5 95zM485 1962q23 44 48 69t59 25q69 0 164.5 -87.5t156.5 -184.5q181 272 289 272q34 0 59 -25t48 -69q-177 -208 -265.5 -289.5t-146.5 -81.5q-57 0 -146.5 82.5t-265.5 288.5z" />
<glyph unicode="&#x10f;" horiz-adv-x="1220" d="M-17 383.5q-16 83.5 2 167t55 152.5t107 112t158 43q126 0 227 -96v35q0 155 9.5 265t32 196.5t64 129t103.5 42.5q57 0 129 -72q-106 -296 -106 -645q0 -237 40.5 -364.5t113.5 -127.5q31 0 65 20.5t61.5 48.5t60.5 76.5t54 83.5t50 92t39.5 80t31.5 68q35 -6 56.5 -27 t21.5 -45q0 -29 -26 -93.5t-75 -144t-109.5 -152t-140.5 -122t-157 -49.5q-175 0 -254 213q-41 -88 -114 -141t-175 -53q-92 0 -164 43t-108 112t-52 152.5zM246 457q0 -109 32.5 -161t81.5 -52q57 0 107 85t63 244q-30 59 -65.5 91t-87.5 32q-57 0 -94 -67t-37 -172z M899 1133q112 160 129 380q42 18 92 21t89.5 -17t39.5 -65q0 -72 -40 -159.5t-102.5 -150.5t-119.5 -63q-52 0 -88 54z" />
<glyph unicode="&#x110;" horiz-adv-x="1714" d="M-162 727q0 30 27 82q102 -4 330 -4q63 287 174 555q-43 -7 -135.5 -33.5t-147.5 -26.5q-70 0 -101.5 37t-31.5 95q0 30 6 57q235 33 455 33h26q45 88 72 112q22 -7 40 -15.5t41.5 -23t36 -36.5t9.5 -48q202 -18 367 -69.5t279 -126t191.5 -169.5t113.5 -199.5t36 -217.5 q0 -130 -45 -254t-122.5 -224t-179 -188t-215 -152.5t-230.5 -111.5t-226 -70.5t-200 -23.5q-242 0 -275 170q231 0 447 68.5t376.5 183.5t257.5 275.5t97 336.5q0 124 -50 234.5t-141 195t-227.5 138t-302.5 63.5q-102 -274 -148 -565q50 1 98.5 0.5t92 -2.5t81 -9.5 t64.5 -19t42.5 -31.5t15.5 -47q0 -24 -13 -58t-35 -54q-136 18 -374 18q-19 -182 -19 -358q0 -130 13 -289q-14 -4 -43 -4q-63 0 -109.5 27.5t-73 77.5t-39 112.5t-12.5 138.5q0 138 25 297q-177 3 -247.5 27.5t-70.5 95.5z" />
<glyph unicode="&#x111;" horiz-adv-x="1220" d="M-17 383.5q-16 83.5 2 167t55 152.5t107 112t158 43q126 0 227 -96v35q0 87 3 164q-39 2 -117 2q-33 0 -49.5 23t-16.5 63q0 39 15 88q67 -21 180 -27q18 159 63.5 239.5t130.5 80.5q57 0 129 -72q-42 -115 -67 -254h168q-4 -25 -17 -72q-7 -24 -17.5 -35t-47 -20.5 t-109.5 -13.5q-16 -134 -16 -250q0 -237 40.5 -364.5t113.5 -127.5q31 0 65 20.5t61.5 48.5t60.5 76.5t54 83.5t50 92t39.5 80t31.5 68q35 -6 56.5 -27t21.5 -45q0 -29 -26 -93.5t-75 -144t-109.5 -152t-140.5 -122t-157 -49.5q-175 0 -254 213q-41 -88 -114 -141t-175 -53 q-92 0 -164 43t-108 112t-52 152.5zM246 457q0 -109 32.5 -161t81.5 -52q56 0 106 84t64 239q-61 115 -153 115q-58 0 -94.5 -60.5t-36.5 -164.5z" />
<glyph unicode="&#x112;" horiz-adv-x="1556" d="M10 1044q-2 132 72.5 247.5t199.5 193.5t290.5 123t342.5 45q197 0 372 -51.5t279 -137t105 -180.5q0 -99 -127 -133q-97 140 -150 195q-120 123 -292 151q-60 10 -131 10q-141 0 -254.5 -40t-182.5 -106t-105 -147.5t-34 -169.5q1 -50 14 -102.5t39 -108t73.5 -106.5 t109.5 -86q125 23 246 23q275 0 297 -105q18 -70 -53.5 -114t-184.5 -44q-163 0 -385 80q-83 -43 -129.5 -121.5t-44.5 -166.5q1 -65 33.5 -126.5t89 -110.5t141.5 -78.5t182 -29.5q106 0 207 25.5t178.5 68t130.5 81t95 79.5q74 -22 65 -82q-2 -10 -14.5 -32t-41.5 -55.5 t-69.5 -68.5t-104 -71t-138 -64t-178.5 -45.5t-220 -17.5q-141 0 -264 38t-208 101.5t-134.5 147.5t-50.5 174q-2 123 76 239t227 191q-164 85 -265 208t-104 279zM508 1833q0 41 18 68q80 -5 408 -5q45 0 125 4.5t112 4.5q72 0 108 -16.5t36 -63.5q0 -25 -9.5 -57 t-25.5 -52q-96 13 -166 13q-21 0 -47 -1t-64 -2t-65 -2q-120 -6 -205 -6q-124 0 -174.5 24t-50.5 91z" />
<glyph unicode="&#x113;" horiz-adv-x="1019" d="M6 504q0 119 44 226.5t130 178t195 70.5q110 0 168.5 -69t58.5 -189q0 -219 -258 -397q71 -113 193 -113q77 0 159.5 47.5t153 124.5t126.5 156.5t99 160.5q53 14 72.5 -3t19.5 -54q0 -31 -36 -101t-103 -156.5t-149.5 -165.5t-190 -133t-209.5 -54q-108 0 -198 38 t-149.5 102.5t-92.5 150t-33 180.5zM25 1272q0 40 18 67q64 -4 367 -4q20 0 89.5 4t106.5 4q73 0 108.5 -16t35.5 -63q0 -25 -9.5 -57t-25.5 -52q-88 12 -166 12q-25 0 -72.5 -2t-62.5 -2q-17 0 -75 -3t-89 -3q-124 0 -174.5 24t-50.5 91zM276 598q0 -72 17 -149 q72 68 112.5 135t40.5 145q0 45 -17.5 65.5t-41.5 20.5q-40 0 -75.5 -59.5t-35.5 -157.5z" />
<glyph unicode="&#x116;" horiz-adv-x="1556" d="M10 1044q-2 132 72.5 247.5t199.5 193.5t290.5 123t342.5 45q197 0 372 -51.5t279 -137t105 -180.5q0 -99 -127 -133q-97 140 -150 195q-120 123 -292 151q-60 10 -131 10q-141 0 -254.5 -40t-182.5 -106t-105 -147.5t-34 -169.5q1 -50 14 -102.5t39 -108t73.5 -106.5 t109.5 -86q125 23 246 23q275 0 297 -105q18 -70 -53.5 -114t-184.5 -44q-163 0 -385 80q-83 -43 -129.5 -121.5t-44.5 -166.5q1 -65 33.5 -126.5t89 -110.5t141.5 -78.5t182 -29.5q106 0 207 25.5t178.5 68t130.5 81t95 79.5q74 -22 65 -82q-2 -10 -14.5 -32t-41.5 -55.5 t-69.5 -68.5t-104 -71t-138 -64t-178.5 -45.5t-220 -17.5q-141 0 -264 38t-208 101.5t-134.5 147.5t-50.5 174q-2 123 76 239t227 191q-164 85 -265 208t-104 279zM774 1888q0 64 42 103t104 39q64 0 98.5 -37.5t34.5 -91.5q0 -56 -39.5 -98t-104.5 -42q-64 0 -99.5 38 t-35.5 89z" />
<glyph unicode="&#x117;" horiz-adv-x="1019" d="M6 504q0 119 44 226.5t130 178t195 70.5q110 0 168.5 -69t58.5 -189q0 -219 -258 -397q71 -113 193 -113q77 0 159.5 47.5t153 124.5t126.5 156.5t99 160.5q53 14 72.5 -3t19.5 -54q0 -31 -36 -101t-103 -156.5t-149.5 -165.5t-190 -133t-209.5 -54q-108 0 -198 38 t-149.5 102.5t-92.5 150t-33 180.5zM248 1229q0 64 41.5 102.5t103.5 38.5q64 0 98.5 -37.5t34.5 -91.5q0 -56 -39.5 -97.5t-103.5 -41.5t-99.5 38t-35.5 89zM276 598q0 -72 17 -149q72 68 112.5 135t40.5 145q0 45 -17.5 65.5t-41.5 20.5q-40 0 -75.5 -59.5t-35.5 -157.5z " />
<glyph unicode="&#x118;" horiz-adv-x="1556" d="M10 1044q-2 132 72.5 247.5t199.5 193.5t290.5 123t342.5 45q197 0 372 -51.5t279 -137t105 -180.5q0 -99 -127 -133q-97 140 -150 195q-120 123 -292 151q-60 10 -131 10q-141 0 -254.5 -40t-182.5 -106t-105 -147.5t-34 -169.5q1 -50 14 -102.5t39 -108t73.5 -106.5 t109.5 -86q125 23 246 23q275 0 297 -105q18 -70 -53.5 -114t-184.5 -44q-163 0 -385 80q-83 -43 -129.5 -121.5t-44.5 -166.5q1 -65 33.5 -126.5t89 -110.5t141.5 -78.5t182 -29.5q106 0 207 25.5t178.5 68t130.5 81t95 79.5q74 -22 65 -82q-1 -11 -16.5 -36.5t-51.5 -64.5 t-85.5 -77t-129.5 -76.5t-172 -62.5q-131 -128 -131 -197q0 -38 19 -57.5t51 -19.5q52 0 113 45q49 -19 49 -72q0 -55 -62 -92t-133 -37q-99 0 -170 55.5t-71 151.5q0 110 96 188q-25 -2 -72 -2q-141 0 -264 38t-208 101.5t-134.5 147.5t-50.5 174q-2 123 76 239t227 191 q-164 85 -265 208t-104 279z" />
<glyph unicode="&#x119;" horiz-adv-x="1019" d="M6 504q0 119 44 226.5t130 178t195 70.5q110 0 168.5 -69t58.5 -189q0 -219 -258 -397q71 -113 193 -113q77 0 159.5 47.5t153 124.5t126.5 156.5t99 160.5q53 14 72.5 -3t19.5 -54q0 -33 -42 -110t-109.5 -166t-169 -175t-203.5 -126q-145 -139 -145 -211 q0 -39 18.5 -58.5t50.5 -19.5q52 0 113 45q49 -19 49 -72q0 -55 -61.5 -92t-132.5 -37q-99 0 -170.5 55.5t-71.5 151.5q-2 121 123 209q-126 14 -220 81t-142 167t-48 219zM276 598q0 -72 17 -149q72 68 112.5 135t40.5 145q0 45 -17.5 65.5t-41.5 20.5q-40 0 -75.5 -59.5 t-35.5 -157.5z" />
<glyph unicode="&#x11a;" horiz-adv-x="1556" d="M10 1044q-2 132 72.5 247.5t199.5 193.5t290.5 123t342.5 45q197 0 372 -51.5t279 -137t105 -180.5q0 -99 -127 -133q-97 140 -150 195q-120 123 -292 151q-60 10 -131 10q-141 0 -254.5 -40t-182.5 -106t-105 -147.5t-34 -169.5q1 -50 14 -102.5t39 -108t73.5 -106.5 t109.5 -86q125 23 246 23q275 0 297 -105q18 -70 -53.5 -114t-184.5 -44q-163 0 -385 80q-83 -43 -129.5 -121.5t-44.5 -166.5q1 -65 33.5 -126.5t89 -110.5t141.5 -78.5t182 -29.5q106 0 207 25.5t178.5 68t130.5 81t95 79.5q74 -22 65 -82q-2 -10 -14.5 -32t-41.5 -55.5 t-69.5 -68.5t-104 -71t-138 -64t-178.5 -45.5t-220 -17.5q-141 0 -264 38t-208 101.5t-134.5 147.5t-50.5 174q-2 123 76 239t227 191q-164 85 -265 208t-104 279zM492 2089q23 44 47.5 69t58.5 25q69 0 165 -88t157 -184q181 272 288 272q34 0 59 -25t48 -69 q-177 -208 -265.5 -289.5t-146.5 -81.5q-57 0 -145.5 82t-265.5 289z" />
<glyph unicode="&#x11b;" horiz-adv-x="1019" d="M6 504q0 119 44 226.5t130 178t195 70.5q110 0 168.5 -69t58.5 -189q0 -219 -258 -397q71 -113 193 -113q77 0 159.5 47.5t153 124.5t126.5 156.5t99 160.5q53 14 72.5 -3t19.5 -54q0 -31 -36 -101t-103 -156.5t-149.5 -165.5t-190 -133t-209.5 -54q-108 0 -198 38 t-149.5 102.5t-92.5 150t-33 180.5zM14 1440q21 43 44 68.5t55 25.5q62 0 148.5 -88t141.5 -184q167 272 263 272q32 0 54.5 -25t43.5 -69q-161 -207 -242 -289t-133 -82q-53 0 -133.5 82t-241.5 289zM276 598q0 -72 17 -149q72 68 112.5 135t40.5 145q0 45 -17.5 65.5 t-41.5 20.5q-40 0 -75.5 -59.5t-35.5 -157.5z" />
<glyph unicode="&#x11e;" horiz-adv-x="2064" d="M123 578q0 146 41 286t128 266.5t210.5 221.5t300.5 151.5t387 57.5q114 1 226 -20.5t197.5 -56.5t153 -77t103.5 -84t37 -76q2 -50 -46 -101t-137 -65q-39 63 -91 117.5t-121 100t-158 71.5t-187 25q-131 -1 -247.5 -49.5t-200.5 -130t-145.5 -187t-92 -221.5 t-30.5 -232q0 -104 23 -201t71.5 -181.5t117.5 -147.5t166.5 -99t212.5 -36q143 0 274 45t219.5 115t141 153.5t52.5 161.5q0 65 -77 96.5t-192 14.5q-23 -3 -73.5 -9.5t-81.5 -10.5t-74 -7.5t-78 -3.5q-81 0 -124.5 33t-43.5 90q0 77 70 162q79 -26 153 -33.5t174 -7.5 q69 0 125.5 -2.5t116 -10t105 -20t87 -33.5t68.5 -50t42.5 -69t15.5 -90q0 -113 -42 -215t-113.5 -178.5t-163 -139t-192.5 -101.5t-200.5 -60t-188.5 -21q-179 0 -330.5 47.5t-258.5 129t-182.5 191t-111.5 234t-36 257.5zM829 2044q0 49 25.5 74.5t91.5 25.5q67 0 107 -30 q0 -63 10.5 -114t40.5 -88.5t76 -37.5q36 0 61.5 17.5t38 40.5t20 60.5t8.5 62t1 59.5q38 30 108 30q65 0 90 -25.5t25 -74.5q0 -126 -107.5 -225t-259.5 -99q-93 0 -171.5 47.5t-121.5 121.5t-43 155z" />
<glyph unicode="&#x11f;" horiz-adv-x="1007" d="M-25 555q0 119 69.5 230t180 178t226.5 67q58 0 105.5 -20.5t47.5 -59.5q0 -20 -34.5 -44.5t-88.5 -43.5q-21 27 -47 27q-51 0 -96.5 -37.5t-73 -93t-43.5 -114.5t-16 -107q0 -76 35 -76q38 0 76.5 45.5t57 113.5t3.5 125q125 82 164 82q106 0 135 -290q263 143 471 143 q22 0 37.5 -16t15.5 -39q0 -7 -4 -23q-249 -31 -512 -205v-53q0 -102 -17 -217t-55.5 -234.5t-92 -215t-134 -156t-174.5 -60.5q-103 0 -153 62.5t-50 165.5q0 170 116 349.5t304 332.5q0 52 -6 92q-117 -154 -252 -154q-95 0 -145 66.5t-50 179.5zM10 1436q0 49 25.5 74.5 t91.5 25.5q64 0 106 -31q0 -100 30 -169.5t97 -69.5q30 0 53 11t36.5 32t22 42.5t12 53t4.5 51.5t1 49q39 31 109 31q65 0 90 -25.5t25 -74.5q0 -126 -107.5 -225t-259.5 -99q-93 0 -171.5 47.5t-121.5 121.5t-43 155zM158 -354q0 -90 43 -90q39 0 75.5 62.5t63.5 163.5 t45.5 199t30.5 197q-258 -268 -258 -532z" />
<glyph unicode="&#x120;" horiz-adv-x="2064" d="M123 578q0 146 41 286t128 266.5t210.5 221.5t300.5 151.5t387 57.5q114 1 226 -20.5t197.5 -56.5t153 -77t103.5 -84t37 -76q2 -50 -46 -101t-137 -65q-39 63 -91 117.5t-121 100t-158 71.5t-187 25q-131 -1 -247.5 -49.5t-200.5 -130t-145.5 -187t-92 -221.5 t-30.5 -232q0 -104 23 -201t71.5 -181.5t117.5 -147.5t166.5 -99t212.5 -36q143 0 274 45t219.5 115t141 153.5t52.5 161.5q0 65 -77 96.5t-192 14.5q-23 -3 -73.5 -9.5t-81.5 -10.5t-74 -7.5t-78 -3.5q-81 0 -124.5 33t-43.5 90q0 77 70 162q79 -26 153 -33.5t174 -7.5 q69 0 125.5 -2.5t116 -10t105 -20t87 -33.5t68.5 -50t42.5 -69t15.5 -90q0 -113 -42 -215t-113.5 -178.5t-163 -139t-192.5 -101.5t-200.5 -60t-188.5 -21q-179 0 -330.5 47.5t-258.5 129t-182.5 191t-111.5 234t-36 257.5zM1034 1872q0 64 42 102.5t104 38.5 q64 0 98.5 -37.5t34.5 -91.5q0 -56 -39.5 -97.5t-104.5 -41.5q-64 0 -99.5 38t-35.5 89z" />
<glyph unicode="&#x121;" horiz-adv-x="1007" d="M-25 555q0 119 69.5 230t180 178t226.5 67q58 0 105.5 -20.5t47.5 -59.5q0 -20 -34.5 -44.5t-88.5 -43.5q-21 27 -47 27q-51 0 -96.5 -37.5t-73 -93t-43.5 -114.5t-16 -107q0 -76 35 -76q38 0 76.5 45.5t57 113.5t3.5 125q125 82 164 82q106 0 135 -290q263 143 471 143 q22 0 37.5 -16t15.5 -39q0 -7 -4 -23q-249 -31 -512 -205v-53q0 -102 -17 -217t-55.5 -234.5t-92 -215t-134 -156t-174.5 -60.5q-103 0 -153 62.5t-50 165.5q0 170 116 349.5t304 332.5q0 52 -6 92q-117 -154 -252 -154q-95 0 -145 66.5t-50 179.5zM158 -354q0 -90 43 -90 q39 0 75.5 62.5t63.5 163.5t45.5 199t30.5 197q-258 -268 -258 -532zM211 1278q0 64 41.5 102.5t103.5 38.5q64 0 98.5 -37.5t34.5 -91.5q0 -56 -39.5 -97.5t-103.5 -41.5t-99.5 38t-35.5 89z" />
<glyph unicode="&#x122;" horiz-adv-x="2064" d="M123 578q0 146 41 286t128 266.5t210.5 221.5t300.5 151.5t387 57.5q114 1 226 -20.5t197.5 -56.5t153 -77t103.5 -84t37 -76q2 -50 -46 -101t-137 -65q-39 63 -91 117.5t-121 100t-158 71.5t-187 25q-131 -1 -247.5 -49.5t-200.5 -130t-145.5 -187t-92 -221.5 t-30.5 -232q0 -104 23 -201t71.5 -181.5t117.5 -147.5t166.5 -99t212.5 -36q143 0 274 45t219.5 115t141 153.5t52.5 161.5q0 65 -77 96.5t-192 14.5q-23 -3 -73.5 -9.5t-81.5 -10.5t-74 -7.5t-78 -3.5q-81 0 -124.5 33t-43.5 90q0 77 70 162q79 -26 153 -33.5t174 -7.5 q69 0 125.5 -2.5t116 -10t105 -20t87 -33.5t68.5 -50t42.5 -69t15.5 -90q0 -113 -42 -215t-113.5 -178.5t-163 -139t-192.5 -101.5t-200.5 -60t-188.5 -21q-179 0 -330.5 47.5t-258.5 129t-182.5 191t-111.5 234t-36 257.5zM977 -735q31 33 46 50t29 42t19 51 q-44 21 -66 56.5t-22 76.5q0 63 40.5 98t100.5 35q58 0 95.5 -48.5t37.5 -125.5q0 -51 -34.5 -121t-86.5 -122t-96 -52q-41 0 -63 60z" />
</font>
</defs>
</svg>
